<?xml version="1.0" encoding="utf-8"?>
<!-- Generator: $$$/GeneralStr/196=Adobe Illustrator 27.6.0, SVG Export Plug-In . SVG Version: 6.00 Build 0)  -->
<svg version="1.1" xmlns="http://www.w3.org/2000/svg" xmlns:xlink="http://www.w3.org/1999/xlink" x="0px" y="0px" width="426px"
	 height="300.9px" viewBox="0 0 426 300.9" style="enable-background:new 0 0 426 300.9;" xml:space="preserve">
<style type="text/css">
	.st0{fill:#A9DAE1;stroke:#000000;stroke-width:0.5;stroke-miterlimit:10;}
	.st1{fill:#99C1C4;stroke:#000000;stroke-width:0.5;stroke-linecap:round;stroke-linejoin:round;stroke-miterlimit:10;}
	.st2{fill:#FFFFFF;stroke:#000000;stroke-width:0.5;stroke-miterlimit:10;}
	.st3{fill:#75C8D4;stroke:#000000;stroke-width:0.5;stroke-miterlimit:10;}
	.st4{fill:#C2D37E;stroke:#000000;stroke-width:0.5;stroke-miterlimit:10;}
	.st5{fill:none;stroke:#000000;stroke-width:0.5;stroke-linecap:round;stroke-linejoin:round;stroke-miterlimit:10;}
	.st6{fill:#CA83B7;stroke:#000000;stroke-width:0.5;stroke-linecap:round;stroke-linejoin:round;stroke-miterlimit:10;}
	.st7{fill:#FFFACE;stroke:#000000;stroke-width:0.5;stroke-linecap:round;stroke-linejoin:round;stroke-miterlimit:10;}
	.st8{fill:#CDD0EA;stroke:#000000;stroke-width:0.5;stroke-linecap:round;stroke-linejoin:round;stroke-miterlimit:10;}
	.st9{fill:#8EBBE5;stroke:#000000;stroke-width:0.5;stroke-linecap:round;stroke-linejoin:round;stroke-miterlimit:10;}
	.st10{fill:#FFFFFF;stroke:#000000;stroke-width:0.5;stroke-linecap:round;stroke-linejoin:round;stroke-miterlimit:10;}
	.st11{fill:#CCACD2;stroke:#000000;stroke-width:0.5;stroke-linecap:round;stroke-linejoin:round;stroke-miterlimit:10;}
	.st12{fill:#D7B57D;stroke:#000000;stroke-width:0.5;stroke-linecap:round;stroke-linejoin:round;stroke-miterlimit:10;}
	.st13{fill:#E3DBA5;stroke:#000000;stroke-width:0.5;stroke-linecap:round;stroke-linejoin:round;stroke-miterlimit:10;}
	.st14{fill:#1E1E1C;}
	.st15{fill:#CA9F78;stroke:#000000;stroke-width:0.5;stroke-miterlimit:10;}
	.st16{fill:#BFD7AF;stroke:#000000;stroke-width:0.5;stroke-miterlimit:10;}
	.st17{fill:#CA9F78;stroke:#000000;stroke-width:0.5;stroke-linecap:round;stroke-linejoin:round;stroke-miterlimit:10;}
	.st18{fill:#BFD7AF;stroke:#000000;stroke-width:0.5;stroke-linecap:round;stroke-linejoin:round;stroke-miterlimit:10;}
</style>
<g id="Calque_1">
</g>
<g id="Calque_2">
	<rect x="0" y="-0.3" class="st0" width="426" height="301.2"/>
	<circle class="st1" cx="215.1" cy="115.9" r="116.2"/>
	<path class="st2" d="M349.2,100.9h-1c0-0.1,0-0.1,0-0.2c0-4.8-3.9-8.6-8.6-8.6c-2.6,0-4.9,1.1-6.5,3c-1.5-3.3-4.8-5.6-8.7-5.6
		c-5.3,0-9.5,4.3-9.5,9.5c0,0.6,0.1,1.3,0.2,1.9h-1.5c-4.5,0-8.1,3.7-8.1,8.1v0c0,4.5,3.7,8.1,8.1,8.1h35.7c4.5,0,8.1-3.7,8.1-8.1v0
		C357.3,104.5,353.6,100.9,349.2,100.9z"/>
	<rect x="0" y="236.4" class="st3" width="426" height="64.5"/>
	<rect x="0" y="204.6" class="st4" width="426" height="32.3"/>
	<path class="st5" d="M5.6,265.4c0,0,17-7,30.3,0c13.3,7,34.9,7.8,48.9-1.6"/>
	<path class="st5" d="M10.5,276.8c0,0,20.8-3.1,31.2,7.3c10.4,10.4,33.2,0,33.2,0"/>
	<path class="st5" d="M53.4,282.5c0,0,17.2-8.1,29.8,0"/>
	<path class="st5" d="M38.4,256.9c0,0,6.4,4.5,13.7,4.5c10.4,0,18.9-7,32.7-2.2"/>
	<path class="st5" d="M139.7,267.4c0,0,17.7-5,37.7,0s33.9,5.3,44.6,2.1"/>
	<path class="st5" d="M154.4,255.6c0,0,11.1-4.3,20.7,0c9.6,4.3,26.4,0,26.4,0"/>
	<path class="st5" d="M152.1,277.6c0,0,3.7,1.3,8.7,0c6-1.5,17.5-2.4,25.8,1.8"/>
	<path class="st5" d="M201.5,262.4c0,0,16.5,4.4,30.8,0"/>
	<path class="st5" d="M278.7,260.7c0,0,15.3-4.7,27.8,0c12.4,4.7,32.9,8.8,50.4,0"/>
	<path class="st5" d="M287.1,277.4c0,0,14.6-5.7,26.7-0.1c12.1,5.6,25.5,2.7,28.1,0"/>
	<path class="st5" d="M320,253.3c0,0,12.4,5.5,25.9,0"/>
	<path class="st5" d="M320,287.1c0,0,15.3-4.6,27.4,0c12.1,4.6,27-6.2,27-6.2"/>
	<path class="st5" d="M359.1,271.2c0,0,20.6-6.9,33.3,0"/>
	<rect x="114.7" y="83.4" class="st6" width="196.6" height="8"/>
	<path class="st7" d="M311.3,91.4v32.7H307v-18.5c0-2.6-1-4.9-2.7-6.6c-1.7-1.7-4-2.7-6.6-2.7c-5.1,0-9.3,4.2-9.3,9.3v18.5h-5.3
		v-18.5c0-5.1-4.2-9.3-9.3-9.3c-5.1,0-9.3,4.2-9.3,9.3v18.5h-5.3v-18.5c0-2.6-1-4.9-2.7-6.6c-1.7-1.7-4-2.7-6.6-2.7
		c-5.1,0-9.3,4.2-9.3,9.3v18.5h-5.3v-18.5c0-2.6-1-4.9-2.7-6.6c-1.7-1.7-4-2.7-6.6-2.7c-5.1,0-9.3,4.2-9.3,9.3v18.5h-5.3v-18.5
		c0-5.1-4.2-9.3-9.3-9.3s-9.3,4.2-9.3,9.3v18.5h-5.3v-18.5c0-2.6-1-4.9-2.7-6.6c-1.7-1.7-4-2.7-6.6-2.7c-5.1,0-9.3,4.2-9.3,9.3v18.5
		h-5.3v-18.5c0-2.6-1-4.9-2.7-6.6c-1.7-1.7-4-2.7-6.6-2.7c-5.1,0-9.3,4.2-9.3,9.3v18.5h-5.3v-18.5c0-2.6-1-4.9-2.7-6.6
		c-1.7-1.7-4-2.7-6.6-2.7c-5.1,0-9.3,4.2-9.3,9.3v18.5h-6.3V91.4H311.3z"/>
	<path class="st5" d="M200.2,31.8"/>
	<g>
		<g>
			<path class="st8" d="M157.5,52.3H148c-0.8,0-1.4-0.6-1.4-1.4v0c0-0.8,0.6-1.4,1.4-1.4h9.5c0.8,0,1.4,0.6,1.4,1.4v0
				C158.9,51.7,158.3,52.3,157.5,52.3z"/>
			<polygon class="st9" points="157,49.5 148.5,49.5 146.9,44.4 158.7,44.4 			"/>
			<polygon class="st10" points="157.1,83.4 148.4,83.4 149.3,52.3 156.2,52.3 			"/>
			<line class="st5" x1="150.5" y1="52.3" x2="149.8" y2="83.4"/>
			<line class="st5" x1="152.1" y1="52.3" x2="151.7" y2="83.4"/>
			<line class="st5" x1="155" y1="52.3" x2="155.8" y2="83.4"/>
			<line class="st5" x1="153.5" y1="52.3" x2="153.8" y2="83.4"/>
			<path class="st5" d="M153.6,52.3"/>
		</g>
		<g>
			<path class="st8" d="M181.6,52.3h-9.5c-0.8,0-1.4-0.6-1.4-1.4v0c0-0.8,0.6-1.4,1.4-1.4h9.5c0.8,0,1.4,0.6,1.4,1.4v0
				C183,51.7,182.4,52.3,181.6,52.3z"/>
			<polygon class="st9" points="181.1,49.5 172.6,49.5 171,44.4 182.7,44.4 			"/>
			<polygon class="st10" points="181.2,83.4 172.5,83.4 173.4,52.3 180.3,52.3 			"/>
			<line class="st5" x1="174.6" y1="52.3" x2="173.9" y2="83.4"/>
			<line class="st5" x1="176.2" y1="52.3" x2="175.8" y2="83.4"/>
			<line class="st5" x1="179.1" y1="52.3" x2="179.8" y2="83.4"/>
			<line class="st5" x1="177.6" y1="52.3" x2="177.9" y2="83.4"/>
			<path class="st5" d="M177.7,52.3"/>
		</g>
		<g>
			<path class="st8" d="M205.7,52.3h-9.5c-0.8,0-1.4-0.6-1.4-1.4v0c0-0.8,0.6-1.4,1.4-1.4h9.5c0.8,0,1.4,0.6,1.4,1.4v0
				C207.1,51.7,206.5,52.3,205.7,52.3z"/>
			<polygon class="st9" points="205.2,49.5 196.7,49.5 195.1,44.4 206.8,44.4 			"/>
			<polygon class="st10" points="205.3,83.4 196.6,83.4 197.5,52.3 204.4,52.3 			"/>
			<line class="st5" x1="198.7" y1="52.3" x2="198" y2="83.4"/>
			<line class="st5" x1="200.2" y1="52.3" x2="199.9" y2="83.4"/>
			<line class="st5" x1="203.2" y1="52.3" x2="203.9" y2="83.4"/>
			<line class="st5" x1="201.7" y1="52.3" x2="202" y2="83.4"/>
			<path class="st5" d="M201.8,52.3"/>
		</g>
		<g>
			<path class="st8" d="M229.8,52.3h-9.5c-0.8,0-1.4-0.6-1.4-1.4v0c0-0.8,0.6-1.4,1.4-1.4h9.5c0.8,0,1.4,0.6,1.4,1.4v0
				C231.2,51.7,230.5,52.3,229.8,52.3z"/>
			<polygon class="st9" points="229.3,49.5 220.8,49.5 219.2,44.4 230.9,44.4 			"/>
			<polygon class="st10" points="229.4,83.4 220.7,83.4 221.6,52.3 228.5,52.3 			"/>
			<line class="st5" x1="222.8" y1="52.3" x2="222.1" y2="83.4"/>
			<line class="st5" x1="224.3" y1="52.3" x2="224" y2="83.4"/>
			<line class="st5" x1="227.3" y1="52.3" x2="228" y2="83.4"/>
			<line class="st5" x1="225.8" y1="52.3" x2="226.1" y2="83.4"/>
			<path class="st5" d="M225.9,52.3"/>
		</g>
		<g>
			<path class="st8" d="M253.9,52.3h-9.5c-0.8,0-1.4-0.6-1.4-1.4v0c0-0.8,0.6-1.4,1.4-1.4h9.5c0.8,0,1.4,0.6,1.4,1.4v0
				C255.3,51.7,254.6,52.3,253.9,52.3z"/>
			<polygon class="st9" points="253.4,49.5 244.9,49.5 243.3,44.4 255,44.4 			"/>
			<polygon class="st10" points="253.5,83.4 244.8,83.4 245.7,52.3 252.6,52.3 			"/>
			<line class="st5" x1="246.9" y1="52.3" x2="246.2" y2="83.4"/>
			<line class="st5" x1="248.4" y1="52.3" x2="248.1" y2="83.4"/>
			<line class="st5" x1="251.4" y1="52.3" x2="252.1" y2="83.4"/>
			<line class="st5" x1="249.8" y1="52.3" x2="250.2" y2="83.4"/>
			<path class="st5" d="M250,52.3"/>
		</g>
		<g>
			<path class="st8" d="M278,52.3h-9.5c-0.8,0-1.4-0.6-1.4-1.4v0c0-0.8,0.6-1.4,1.4-1.4h9.5c0.8,0,1.4,0.6,1.4,1.4v0
				C279.4,51.7,278.7,52.3,278,52.3z"/>
			<polygon class="st9" points="277.5,49.5 269,49.5 267.3,44.4 279.1,44.4 			"/>
			<polygon class="st10" points="277.6,83.4 268.9,83.4 269.8,52.3 276.7,52.3 			"/>
			<line class="st5" x1="271" y1="52.3" x2="270.2" y2="83.4"/>
			<line class="st5" x1="272.5" y1="52.3" x2="272.2" y2="83.4"/>
			<line class="st5" x1="275.5" y1="52.3" x2="276.2" y2="83.4"/>
			<line class="st5" x1="273.9" y1="52.3" x2="274.3" y2="83.4"/>
			<path class="st5" d="M274.1,52.3"/>
		</g>
	</g>
	<rect x="139" y="39.2" class="st6" width="147.9" height="5.1"/>
	<rect x="184.9" y="6.9" class="st6" width="56.1" height="5"/>
	<path class="st7" d="M241.1,11.9v27.3h-4V21.7c0-1.2-0.5-2.4-1.3-3.2c-0.8-0.8-1.9-1.3-3.2-1.3c-2.5,0-4.5,2-4.5,4.5v17.6H224V21.7
		c0-1.2-0.5-2.4-1.3-3.2c-0.8-0.8-1.9-1.3-3.2-1.3c-2.5,0-4.5,2-4.5,4.5v17.6H211V21.7c0-1.2-0.5-2.4-1.3-3.2
		c-0.8-0.8-1.9-1.3-3.2-1.3c-2.5,0-4.5,2-4.5,4.5v17.6h-4.1V21.7c0-1.2-0.5-2.4-1.3-3.2c-0.8-0.8-1.9-1.3-3.2-1.3
		c-2.5,0-4.5,2-4.5,4.5v17.6h-4V11.9H241.1z"/>
	<rect x="75.1" y="124.1" class="st6" width="275.8" height="10.6"/>
	<g>
	</g>
	<path class="st7" d="M350.9,134.6v69.9h-13.2v-33.2c0-5.7-2.3-10.8-6-14.6c-3.7-3.7-8.9-6-14.6-6c-11.4,0-20.6,9.2-20.6,20.6v33.2
		h-54.3v-33.4c0-16.1-13.1-29.2-29.2-29.2h0c-16.1,0-29.2,13.1-29.2,29.2v33.4h-54.5v-33.2c0-5.7-2.3-10.8-6-14.6
		c-3.7-3.7-8.9-6-14.6-6c-11.4,0-20.6,9.2-20.6,20.6v33.2H75.1v-69.9H350.9z"/>
	<g>
		<polygon class="st6" points="159.4,163 157.1,167.2 154.8,163 157.1,160.8 		"/>
		<polygon class="st6" points="153.7,168.1 149.6,165.7 150.5,162.5 153.6,163.4 		"/>
		<polygon class="st6" points="151.2,170.6 146.5,170.5 145.6,167.4 148.8,166.5 		"/>
		<polygon class="st6" points="150.3,174 146.1,176.3 143.9,174 146.1,171.7 		"/>
		<polygon class="st6" points="151.2,177.4 148.8,181.5 145.6,180.6 146.5,177.5 		"/>
		<polygon class="st6" points="153.7,179.9 153.6,184.7 150.5,185.5 149.6,182.4 		"/>
		<polygon class="st6" points="159.4,185 157.1,187.3 154.8,185 157.1,180.8 		"/>
		<polygon class="st6" points="164.6,182.4 163.7,185.5 160.6,184.7 160.5,179.9 		"/>
		<polygon class="st6" points="168.6,180.6 165.5,181.5 163,177.4 167.8,177.5 		"/>
		<polygon class="st6" points="170.4,174 168.1,176.3 163.9,174 168.1,171.7 		"/>
		<polygon class="st6" points="168.6,167.4 167.8,170.5 163,170.6 165.5,166.5 		"/>
		<polygon class="st6" points="164.6,165.7 160.5,168.1 160.6,163.4 163.7,162.5 		"/>
		<polygon class="st8" points="156,169.8 155.4,171.1 154,170.9 153.7,168.1 		"/>
		<polygon class="st11" points="157.1,167.2 156,169.8 153.7,168.1 153.6,163.4 154.8,163 		"/>
		<polygon class="st8" points="154.2,172.3 152.9,172.9 151.2,170.6 154,170.9 		"/>
		<polygon class="st11" points="154,170.9 151.2,170.6 148.8,166.5 149.6,165.7 153.7,168.1 		"/>
		<polygon class="st8" points="153.7,174 152.9,175.1 150.3,174 152.9,172.9 		"/>
		<polygon class="st11" points="152.9,172.9 150.3,174 146.1,171.7 146.5,170.5 151.2,170.6 		"/>
		<polygon class="st8" points="154.2,175.7 154,177.1 151.2,177.4 152.9,175.1 		"/>
		<polygon class="st11" points="152.9,175.1 151.2,177.4 146.5,177.5 146.1,176.3 150.3,174 		"/>
		<polygon class="st8" points="156,178.2 153.7,179.9 154,177.1 155.4,176.9 		"/>
		<polygon class="st11" points="154,177.1 153.7,179.9 149.6,182.4 148.8,181.5 151.2,177.4 		"/>
		<polygon class="st8" points="158.2,178.2 157.1,180.8 156,178.2 157.1,177.4 		"/>
		<polygon class="st11" points="157.1,180.8 154.8,185 153.6,184.7 153.7,179.9 156,178.2 		"/>
		<polygon class="st8" points="160.5,179.9 158.2,178.2 158.8,176.9 160.2,177.1 		"/>
		<polygon class="st11" points="160.6,184.7 159.4,185 157.1,180.8 158.2,178.2 160.5,179.9 		"/>
		<polygon class="st8" points="163,177.4 160.2,177.1 160,175.7 161.3,175.1 		"/>
		<polygon class="st11" points="165.5,181.5 164.6,182.4 160.5,179.9 160.2,177.1 163,177.4 		"/>
		<polygon class="st11" points="168.1,176.3 167.8,177.5 163,177.4 161.3,175.1 163.9,174 		"/>
		<polygon class="st8" points="163,170.6 161.3,172.9 160,172.3 160.2,170.9 		"/>
		<polygon class="st8" points="163.9,174 161.3,175.1 160.5,174 161.3,172.9 		"/>
		<polygon class="st11" points="168.1,171.7 163.9,174 161.3,172.9 163,170.6 167.8,170.5 		"/>
		<polygon class="st8" points="160.5,168.1 160.2,170.9 158.8,171.1 158.2,169.8 		"/>
		<polygon class="st11" points="165.5,166.5 163,170.6 160.2,170.9 160.5,168.1 164.6,165.7 		"/>
		<polygon class="st8" points="158.2,169.8 157.1,170.6 156,169.8 157.1,167.2 		"/>
		<polygon class="st11" points="160.6,163.4 160.5,168.1 158.2,169.8 157.1,167.2 159.4,163 		"/>
	</g>
	<g>
		<polygon class="st6" points="272.2,163 269.9,167.2 267.6,163 269.9,160.8 		"/>
		<polygon class="st6" points="266.6,168.1 262.5,165.7 263.3,162.5 266.4,163.4 		"/>
		<polygon class="st6" points="264.1,170.6 259.3,170.5 258.5,167.4 261.6,166.5 		"/>
		<polygon class="st6" points="263.2,174 259,176.3 256.7,174 259,171.7 		"/>
		<polygon class="st6" points="264.1,177.4 261.6,181.5 258.5,180.6 259.3,177.5 		"/>
		<polygon class="st6" points="266.6,179.9 266.4,184.7 263.3,185.5 262.5,182.4 		"/>
		<polygon class="st6" points="272.2,185 269.9,187.3 267.6,185 269.9,180.8 		"/>
		<polygon class="st6" points="277.4,182.4 276.6,185.5 273.4,184.7 273.3,179.9 		"/>
		<polygon class="st6" points="281.4,180.6 278.3,181.5 275.8,177.4 280.6,177.5 		"/>
		<polygon class="st6" points="283.2,174 280.9,176.3 276.7,174 280.9,171.7 		"/>
		<polygon class="st6" points="281.4,167.4 280.6,170.5 275.8,170.6 278.3,166.5 		"/>
		<polygon class="st6" points="277.4,165.7 273.3,168.1 273.4,163.4 276.6,162.5 		"/>
		<polygon class="st8" points="268.8,169.8 268.2,171.1 266.9,170.9 266.6,168.1 		"/>
		<polygon class="st11" points="269.9,167.2 268.8,169.8 266.6,168.1 266.4,163.4 267.6,163 		"/>
		<polygon class="st8" points="267,172.3 265.7,172.9 264.1,170.6 266.9,170.9 		"/>
		<polygon class="st11" points="266.9,170.9 264.1,170.6 261.6,166.5 262.5,165.7 266.6,168.1 		"/>
		<polygon class="st8" points="266.6,174 265.7,175.1 263.2,174 265.7,172.9 		"/>
		<polygon class="st11" points="265.7,172.9 263.2,174 259,171.7 259.3,170.5 264.1,170.6 		"/>
		<polygon class="st8" points="267,175.7 266.9,177.1 264.1,177.4 265.7,175.1 		"/>
		<polygon class="st11" points="265.7,175.1 264.1,177.4 259.3,177.5 259,176.3 263.2,174 		"/>
		<polygon class="st8" points="268.8,178.2 266.6,179.9 266.9,177.1 268.2,176.9 		"/>
		<polygon class="st11" points="266.9,177.1 266.6,179.9 262.5,182.4 261.6,181.5 264.1,177.4 		"/>
		<polygon class="st8" points="271.1,178.2 269.9,180.8 268.8,178.2 269.9,177.4 		"/>
		<polygon class="st11" points="269.9,180.8 267.6,185 266.4,184.7 266.6,179.9 268.8,178.2 		"/>
		<polygon class="st8" points="273.3,179.9 271.1,178.2 271.6,176.9 273,177.1 		"/>
		<polygon class="st11" points="273.4,184.7 272.2,185 269.9,180.8 271.1,178.2 273.3,179.9 		"/>
		<polygon class="st8" points="275.8,177.4 273,177.1 272.9,175.7 274.2,175.1 		"/>
		<polygon class="st11" points="278.3,181.5 277.4,182.4 273.3,179.9 273,177.1 275.8,177.4 		"/>
		<polygon class="st11" points="280.9,176.3 280.6,177.5 275.8,177.4 274.2,175.1 276.7,174 		"/>
		<polygon class="st8" points="275.8,170.6 274.2,172.9 272.9,172.3 273,170.9 		"/>
		<polygon class="st8" points="276.7,174 274.2,175.1 273.3,174 274.2,172.9 		"/>
		<polygon class="st11" points="280.9,171.7 276.7,174 274.2,172.9 275.8,170.6 280.6,170.5 		"/>
		<polygon class="st8" points="273.3,168.1 273,170.9 271.6,171.1 271.1,169.8 		"/>
		<polygon class="st11" points="278.3,166.5 275.8,170.6 273,170.9 273.3,168.1 277.4,165.7 		"/>
		<polygon class="st8" points="271.1,169.8 269.9,170.6 268.8,169.8 269.9,167.2 		"/>
		<polygon class="st11" points="273.4,163.4 273.3,168.1 271.1,169.8 269.9,167.2 272.2,163 		"/>
	</g>
	<path class="st12" d="M125.3,171.9v32.6H92.2v-32.6c0-9.1,7.4-16.5,16.5-16.5c4.6,0,8.7,1.9,11.7,4.8
		C123.5,163.2,125.3,167.4,125.3,171.9z"/>
	<path class="st12" d="M333.6,171.9v32.6h-33.1v-32.6c0-9.1,7.4-16.5,16.5-16.5c4.6,0,8.7,1.9,11.7,4.8
		C331.8,163.2,333.6,167.4,333.6,171.9z"/>
	<path class="st12" d="M236,171v33.6h-46V171c0-12.7,10.3-23,23-23h0C225.7,148,236,158.3,236,171z"/>
	<path class="st13" d="M337.7,171.4v33.2h-4v-32.6c0-4.6-1.9-8.7-4.8-11.7c-3-3-7.1-4.8-11.7-4.8c-9.1,0-16.5,7.4-16.5,16.5v32.6h-4
		v-33.2c0-11.4,9.2-20.6,20.6-20.6c5.7,0,10.8,2.3,14.6,6C335.3,160.6,337.7,165.7,337.7,171.4z"/>
	<path class="st13" d="M242.2,171.1v33.4H236V171c0-12.7-10.3-23-23-23h0c-12.7,0-23,10.3-23,23v33.6h-6.2v-33.4
		c0-16.1,13.1-29.2,29.2-29.2h0C229.1,142,242.2,155,242.2,171.1z"/>
	<path class="st13" d="M129.3,171.4v33.2h-4v-32.6c0-4.6-1.9-8.7-4.8-11.7c-3-3-7.1-4.8-11.7-4.8c-9.1,0-16.5,7.4-16.5,16.5v32.6
		h-4.1v-33.2c0-11.4,9.2-20.6,20.6-20.6c5.7,0,10.8,2.3,14.6,6C127,160.6,129.3,165.7,129.3,171.4z"/>
	<line class="st12" x1="108.8" y1="150.8" x2="108.8" y2="155.4"/>
	<line class="st12" x1="101.2" y1="157.2" x2="97.9" y2="154"/>
	<line class="st12" x1="94.5" y1="163.6" x2="91" y2="161"/>
	<line class="st12" x1="92.2" y1="174.4" x2="88.2" y2="174.4"/>
	<line class="st12" x1="92.2" y1="184.7" x2="88.2" y2="184.7"/>
	<line class="st12" x1="92.2" y1="194.4" x2="88.2" y2="194.4"/>
	<line class="st12" x1="116.4" y1="157.2" x2="119.7" y2="154"/>
	<line class="st12" x1="123" y1="163.6" x2="126.5" y2="161"/>
	<line class="st12" x1="125.3" y1="174.4" x2="129.3" y2="174.4"/>
	<line class="st12" x1="125.3" y1="184.7" x2="129.3" y2="184.7"/>
	<line class="st12" x1="125.3" y1="194.4" x2="129.3" y2="194.4"/>
	<line class="st12" x1="317.1" y1="150.8" x2="317.1" y2="155.4"/>
	<line class="st12" x1="309.5" y1="157.2" x2="306.2" y2="154"/>
	<line class="st12" x1="302.8" y1="163.6" x2="299.3" y2="161"/>
	<line class="st12" x1="300.6" y1="174.4" x2="296.5" y2="174.4"/>
	<line class="st12" x1="300.6" y1="184.7" x2="296.5" y2="184.7"/>
	<line class="st12" x1="300.6" y1="194.4" x2="296.5" y2="194.4"/>
	<line class="st12" x1="324.7" y1="157.2" x2="328" y2="154"/>
	<line class="st12" x1="331.3" y1="163.6" x2="334.8" y2="161"/>
	<line class="st12" x1="333.6" y1="174.4" x2="337.7" y2="174.4"/>
	<line class="st12" x1="333.6" y1="184.7" x2="337.7" y2="184.7"/>
	<line class="st12" x1="333.6" y1="194.4" x2="337.7" y2="194.4"/>
	<line class="st12" x1="213" y1="142" x2="213" y2="147.9"/>
	<line class="st12" x1="202.3" y1="150.6" x2="197.8" y2="146.3"/>
	<line class="st12" x1="193" y1="159.4" x2="188.1" y2="155.9"/>
	<line class="st12" x1="190" y1="174.1" x2="183.8" y2="174.1"/>
	<line class="st12" x1="190" y1="188.2" x2="183.8" y2="188.2"/>
	<line class="st12" x1="190" y1="201.4" x2="183.8" y2="201.4"/>
	<line class="st12" x1="223.7" y1="150.6" x2="228.2" y2="146.3"/>
	<line class="st12" x1="233" y1="159.4" x2="237.9" y2="155.9"/>
	<line class="st12" x1="236" y1="174.1" x2="242.2" y2="174.1"/>
	<line class="st12" x1="236" y1="188.2" x2="242.2" y2="188.2"/>
	<line class="st12" x1="236" y1="201.4" x2="242.2" y2="201.4"/>
	<path class="st2" d="M82.6,32h-1.5c0-0.1,0-0.2,0-0.3c0-7-5.7-12.7-12.7-12.7c-3.8,0-7.2,1.7-9.6,4.3c-2.2-4.8-7.1-8.2-12.7-8.2
		c-7.7,0-14,6.3-14,14c0,1,0.1,1.9,0.3,2.8h-2.2c-6.6,0-11.9,5.4-11.9,11.9v0c0,6.6,5.4,11.9,11.9,11.9h52.4
		c6.6,0,11.9-5.4,11.9-11.9v0C94.5,37.4,89.1,32,82.6,32z"/>
	<path class="st2" d="M45.1,113.6h-1c0-0.1,0-0.1,0-0.2c0-4.6-3.7-8.3-8.3-8.3c-2.5,0-4.7,1.1-6.2,2.8c-1.4-3.1-4.6-5.3-8.3-5.3
		c-5,0-9.1,4.1-9.1,9.1c0,0.6,0.1,1.2,0.2,1.8H11c-4.3,0-7.8,3.5-7.8,7.8v0c0,4.3,3.5,7.8,7.8,7.8h34.2c4.3,0,7.8-3.5,7.8-7.8v0
		C52.9,117.1,49.4,113.6,45.1,113.6z"/>
	<path class="st2" d="M426,9.7v29.6h-34c-2.7,0-5.1-1.1-6.9-2.9c-1.8-1.8-2.9-4.2-2.9-6.9c0-5.3,4.4-9.7,9.7-9.7h1.8
		c-0.1-0.7-0.2-1.5-0.2-2.3c0-6.3,5.1-11.4,11.4-11.4c4.6,0,8.6,2.7,10.4,6.7c1.9-2.2,4.7-3.5,7.8-3.5C424.1,9.2,425.1,9.4,426,9.7z
		"/>
	<path class="st2" d="M401.9,147.6h-0.4c0,0,0,0,0-0.1c0-1.6-1.3-3-3-3c-0.9,0-1.7,0.4-2.2,1c-0.5-1.1-1.7-1.9-3-1.9
		c-1.8,0-3.3,1.5-3.3,3.3c0,0.2,0,0.4,0.1,0.7h-0.5c-1.5,0-2.8,1.3-2.8,2.8l0,0c0,1.5,1.3,2.8,2.8,2.8h12.3c1.5,0,2.8-1.3,2.8-2.8
		l0,0C404.7,148.9,403.5,147.6,401.9,147.6z"/>
	<path class="st14" d="M126.9,24C118.5,11.8,102,20,102,20c17.3-2.3,25.4,7.3,25.4,7.3s5-11.6,22.2-14.4
		C149.6,13,131.4,9.9,126.9,24z"/>
	<path class="st14" d="M47.4,86.8c-3.2-5.6-10.6-2.6-10.6-2.6c7.5-0.4,10.7,4.1,10.7,4.1s2.6-4.8,10.1-5.4
		C57.6,82.8,49.8,80.8,47.4,86.8z"/>
	<path class="st14" d="M305.9,66.6c-2.3-7.3-11.7-5.8-11.7-5.8c8.9,1.5,11.4,7.5,11.4,7.5s4.3-4.9,13.2-3.7
		C318.8,64.6,310.3,60.3,305.9,66.6z"/>
	<g>
		<rect x="81.4" y="108.3" class="st15" width="1.4" height="15.8"/>
		<path class="st16" d="M90.5,101.8c0-1.9-1.5-3.5-3.4-3.7v-1.4c0-2.4-2-4.4-4.4-4.4h-1.2c-1.9,0-3.4,1.2-4.1,2.8c0,0,0,0-0.1,0
			c-1.5,0-2.7,1.2-2.7,2.7c0,1.4,1.1,2.5,2.4,2.6v5c-1.2,0.1-2.2,1.2-2.1,2.4c0.1,1.2,1.1,2.1,2.3,2.2c0.3,0,0.6-0.1,0.9-0.2
			c0.8,0.9,2,1.5,3.3,1.5h1.2c2.4,0,4.4-2,4.4-4.4v-1.4C89,105.3,90.5,103.7,90.5,101.8z"/>
	</g>
	<g>
		<rect x="50.8" y="176.3" class="st15" width="2.5" height="28.3"/>
		<path class="st16" d="M67.1,164.6c0-3.5-2.7-6.3-6.1-6.6v-2.5c0-4.3-3.5-7.9-7.9-7.9H51c-3.3,0-6.2,2.1-7.3,5c0,0-0.1,0-0.1,0
			c-2.6,0-4.8,2.1-4.8,4.8c0,2.5,1.9,4.5,4.3,4.7v9c-2.2,0.2-3.9,2.1-3.7,4.4c0.1,2.1,2,3.8,4.1,3.9c0.6,0,1.1-0.1,1.6-0.3
			c1.4,1.6,3.5,2.6,5.9,2.6h2.1c4.3,0,7.9-3.5,7.9-7.9v-2.5C64.4,170.9,67.1,168.1,67.1,164.6z"/>
	</g>
	<g>
		<rect x="160.9" y="27.7" class="st15" width="1" height="11.5"/>
		<path class="st16" d="M167.5,22.9c0-1.4-1.1-2.6-2.5-2.7v-1c0-1.8-1.4-3.2-3.2-3.2H161c-1.4,0-2.5,0.8-3,2c0,0,0,0-0.1,0
			c-1.1,0-1.9,0.9-1.9,1.9c0,1,0.8,1.8,1.8,1.9v3.7c-0.9,0.1-1.6,0.9-1.5,1.8c0.1,0.9,0.8,1.6,1.7,1.6c0.2,0,0.5,0,0.7-0.1
			c0.6,0.7,1.4,1.1,2.4,1.1h0.8c1.8,0,3.2-1.4,3.2-3.2v-1C166.4,25.5,167.5,24.4,167.5,22.9z"/>
	</g>
	<g>
		<rect x="289.1" y="72.6" class="st15" width="0.9" height="10.8"/>
		<path class="st16" d="M295.3,68.1c0-1.3-1-2.4-2.3-2.5v-1c0-1.7-1.4-3-3-3h-0.8c-1.3,0-2.4,0.8-2.8,1.9c0,0,0,0-0.1,0
			c-1,0-1.8,0.8-1.8,1.8c0,0.9,0.7,1.7,1.7,1.8v3.4c-0.8,0.1-1.5,0.8-1.4,1.7c0.1,0.8,0.7,1.5,1.6,1.5c0.2,0,0.4,0,0.6-0.1
			c0.6,0.6,1.3,1,2.2,1h0.8c1.7,0,3-1.4,3-3v-1C294.3,70.6,295.3,69.5,295.3,68.1z"/>
	</g>
	<rect x="323.2" y="104.5" class="st15" width="2" height="19.5"/>
	<path class="st16" d="M334.8,94.8c-1-5.7-5.4-10-10.6-10c-3.8,0-7.1,2.2-9,5.6c-0.2-0.1-0.4-0.1-0.5-0.1c-0.9,0-1.7,0.8-1.7,1.9
		c0,0.7,0.3,1.3,0.8,1.6c-0.3,1.2-0.5,2.4-0.5,3.7c0,1.6,0.3,3.1,0.7,4.5c-1,0.7-1.7,1.9-1.7,3.3c0,2.1,1.5,3.9,3.4,3.9
		c0.9,0,1.8-0.4,2.4-1.1c1.7,1.3,3.8,2.1,6,2.1c3.4,0,6.5-1.9,8.4-4.7c0.2,0,0.4,0.1,0.6,0.1c2.7,0,4.8-2.4,4.8-5.5
		C338.1,97.6,336.7,95.5,334.8,94.8z"/>
	<rect x="402.9" y="177.3" class="st15" width="2.7" height="27.3"/>
	<path class="st16" d="M419.1,163.7c-1.5-8-7.5-14-14.8-14c-5.2,0-9.9,3.1-12.6,7.9c-0.2-0.1-0.5-0.1-0.8-0.1
		c-1.3,0-2.3,1.2-2.3,2.6c0,1,0.5,1.8,1.2,2.3c-0.4,1.6-0.6,3.3-0.6,5.1c0,2.2,0.4,4.4,1,6.4c-1.4,0.9-2.3,2.7-2.3,4.6
		c0,3,2.1,5.4,4.8,5.4c1.3,0,2.5-0.6,3.4-1.6c2.4,1.9,5.3,2.9,8.3,2.9c4.8,0,9-2.6,11.8-6.6c0.3,0,0.6,0.1,0.9,0.1
		c3.7,0,6.7-3.4,6.7-7.6C423.7,167.5,421.8,164.7,419.1,163.7z"/>
	<rect x="256.8" y="28.7" class="st15" width="1.1" height="10.6"/>
	<path class="st16" d="M263.1,23.4c-0.6-3.1-2.9-5.4-5.7-5.4c-2,0-3.8,1.2-4.9,3.1c-0.1,0-0.2-0.1-0.3-0.1c-0.5,0-0.9,0.5-0.9,1
		c0,0.4,0.2,0.7,0.5,0.9c-0.2,0.6-0.3,1.3-0.3,2c0,0.9,0.1,1.7,0.4,2.5c-0.5,0.4-0.9,1-0.9,1.8c0,1.2,0.8,2.1,1.8,2.1
		c0.5,0,1-0.2,1.3-0.6c0.9,0.7,2,1.1,3.2,1.1c1.9,0,3.5-1,4.6-2.6c0.1,0,0.2,0,0.4,0c1.4,0,2.6-1.3,2.6-3
		C264.9,24.9,264.1,23.8,263.1,23.4z"/>
	<g>
		<path class="st17" d="M103.8,124c0,0-2-10.2,1.4-20.7l0,0c-0.7,9.5,2.9,20.7,2.9,20.7H103.8z"/>
		<path class="st18" d="M105,103.9c0,0-4.7,4.4-5.7,12C99.4,115.9,96.3,104.5,105,103.9z"/>
		<path class="st18" d="M105,103.9c0,0-6.2-0.9-9,8.5C96.1,112.5,94.3,99.5,105,103.9z"/>
		<path class="st18" d="M105,103.9c0,0,2.1,3.9,1.6,8.1C106.7,112.1,109.8,105.5,105,103.9z"/>
		<path class="st18" d="M105,103.9c0,0,3.4,1.9,4.3,6.4C109.3,110.4,110.6,103.6,105,103.9z"/>
		<path class="st18" d="M105,103.9c0,0,6-0.1,8.2,6.4C113.2,110.4,114.3,101,105,103.9z"/>
		<path class="st18" d="M105,103.9c0,0,4.9-2.7,9.2-1.6C114.2,102.4,108.5,98.6,105,103.9z"/>
		<path class="st18" d="M105,103.9c0,0-4.8-1.9-10.5,2.5C94.5,106.5,99.2,99.2,105,103.9z"/>
		<path class="st18" d="M105,103.9c0,0,1.6-4.5,4.8-5.5C109.8,98.5,104.7,98,105,103.9z"/>
	</g>
	<g>
		<path class="st17" d="M17.2,204.6c0,0-3.5-17.5,2.4-35.4l0,0c-1.2,16.3,5,35.4,5,35.4H17.2z"/>
		<path class="st18" d="M19.3,170.1c0,0-8,7.6-9.8,20.6C9.5,190.7,4.4,171,19.3,170.1z"/>
		<path class="st18" d="M19.3,170.1c0,0-10.6-1.6-15.4,14.6C3.9,184.7,0.8,162.4,19.3,170.1z"/>
		<path class="st18" d="M19.3,170.1c0,0,3.6,6.7,2.8,13.9C22.1,184.1,27.5,172.9,19.3,170.1z"/>
		<path class="st18" d="M19.3,170.1c0,0,5.8,3.2,7.4,11C26.7,181.2,28.9,169.5,19.3,170.1z"/>
		<path class="st18" d="M19.3,170.1c0,0,10.3-0.2,14,11C33.3,181.2,35.3,165,19.3,170.1z"/>
		<path class="st18" d="M19.3,170.1c0,0,8.4-4.6,15.7-2.7C35.1,167.5,25.2,161,19.3,170.1z"/>
		<path class="st18" d="M19.3,170.1c0,0-8.2-3.3-18.1,4.3C1.2,174.5,9.4,162,19.3,170.1z"/>
		<path class="st18" d="M19.3,170.1c0,0,2.7-7.7,8.2-9.4C27.5,160.7,18.7,159.9,19.3,170.1z"/>
	</g>
	<g>
		<path class="st17" d="M370.5,204.6c0,0,3.5-17.5-2.4-35.4l0,0c1.2,16.3-5,35.4-5,35.4H370.5z"/>
		<path class="st18" d="M368.4,170.1c0,0,8,7.6,9.8,20.6C378.2,190.7,383.4,171,368.4,170.1z"/>
		<path class="st18" d="M368.4,170.1c0,0,10.6-1.6,15.4,14.6C383.8,184.7,386.9,162.4,368.4,170.1z"/>
		<path class="st18" d="M368.4,170.1c0,0-3.6,6.7-2.8,13.9C365.6,184.1,360.2,172.9,368.4,170.1z"/>
		<path class="st18" d="M368.4,170.1c0,0-5.8,3.2-7.4,11C361,181.2,358.8,169.5,368.4,170.1z"/>
		<path class="st18" d="M368.4,170.1c0,0-10.3-0.2-14,11C354.4,181.2,352.5,165,368.4,170.1z"/>
		<path class="st18" d="M368.4,170.1c0,0-8.4-4.6-15.7-2.7C352.7,167.5,362.6,161,368.4,170.1z"/>
		<path class="st18" d="M368.4,170.1c0,0,8.2-3.3,18.1,4.3C386.5,174.5,378.4,162,368.4,170.1z"/>
		<path class="st18" d="M368.4,170.1c0,0-2.7-7.7-8.2-9.4C360.2,160.7,369,159.9,368.4,170.1z"/>
	</g>
	<g>
		<path class="st17" d="M132,83.4c0,0,2-10.2-1.4-20.7l0,0c0.7,9.5-2.9,20.7-2.9,20.7H132z"/>
		<path class="st18" d="M130.8,63.3c0,0,4.7,4.4,5.7,12C136.5,75.3,139.5,63.8,130.8,63.3z"/>
		<path class="st18" d="M130.8,63.3c0,0,6.2-0.9,9,8.5C139.7,71.8,141.5,58.8,130.8,63.3z"/>
		<path class="st18" d="M130.8,63.3c0,0-2.1,3.9-1.6,8.1C129.1,71.4,126,64.9,130.8,63.3z"/>
		<path class="st18" d="M130.8,63.3c0,0-3.4,1.9-4.3,6.4C126.5,69.8,125.2,63,130.8,63.3z"/>
		<path class="st18" d="M130.8,63.3c0,0-6-0.1-8.2,6.4C122.6,69.8,121.5,60.3,130.8,63.3z"/>
		<path class="st18" d="M130.8,63.3c0,0-4.9-2.7-9.2-1.6C121.6,61.8,127.4,58,130.8,63.3z"/>
		<path class="st18" d="M130.8,63.3c0,0,4.8-1.9,10.5,2.5C141.3,65.8,136.6,58.6,130.8,63.3z"/>
		<path class="st18" d="M130.8,63.3c0,0-1.6-4.5-4.8-5.5C126,57.9,131.1,57.3,130.8,63.3z"/>
	</g>
	<line class="st5" x1="294.1" y1="171.8" x2="294.1" y2="201.4"/>
	<polyline class="st5" points="338.6,200.8 338.6,203.4 344.7,203.4 	"/>
	<line class="st5" x1="206.3" y1="89.3" x2="239.7" y2="89.3"/>
	<line class="st5" x1="259.5" y1="89.3" x2="266.5" y2="89.3"/>
	<polyline class="st5" points="247.7,48.3 252.2,48.3 253,46.4 	"/>
	<polyline class="st5" points="271.2,45.4 268.9,45.4 269.8,47.9 	"/>
	<polyline class="st5" points="285.7,41.5 285.7,40.4 278.6,40.4 	"/>
	<line class="st5" x1="150.3" y1="48.6" x2="155" y2="48.6"/>
	<line class="st5" x1="199.6" y1="12.8" x2="192.7" y2="12.8"/>
	<line class="st5" x1="208.2" y1="12.8" x2="211.9" y2="12.8"/>
	<polyline class="st5" points="239.8,9.1 239.8,10.8 232.1,10.8 	"/>
	<line class="st5" x1="188.1" y1="8.1" x2="201.2" y2="8.1"/>
	<polyline class="st5" points="413.9,239 422.9,239 422.9,244 	"/>
	<line class="st5" x1="422.9" y1="211.9" x2="422.9" y2="222.9"/>
	<line class="st5" x1="28.8" y1="206.8" x2="47.2" y2="206.8"/>
	<line class="st5" x1="65.2" y1="206.8" x2="77.4" y2="206.8"/>
	<line class="st5" x1="1.7" y1="220.7" x2="1.7" y2="232.8"/>
	<polyline class="st5" points="342.4,136.2 349.4,136.2 349.4,140.6 	"/>
	<line class="st5" x1="339.7" y1="136.2" x2="327.5" y2="136.2"/>
	<polyline class="st5" points="76.6,128.6 76.6,132.9 86.4,132.9 	"/>
	<line class="st5" x1="181.3" y1="125.9" x2="215.7" y2="125.9"/>
	<polyline class="st5" points="131.2,196 131.2,203 152.3,203 	"/>
	<line class="st5" x1="155.4" y1="203" x2="160.6" y2="203"/>
</g>
</svg>
