<?xml version="1.0" encoding="utf-8"?>
<!-- Generator: $$$/GeneralStr/196=Adobe Illustrator 27.6.0, SVG Export Plug-In . SVG Version: 6.00 Build 0)  -->
<svg version="1.1" id="Calque_1" xmlns="http://www.w3.org/2000/svg" xmlns:xlink="http://www.w3.org/1999/xlink" x="0px" y="0px"
	 width="426px" height="301px" viewBox="0 0 426 301" style="enable-background:new 0 0 426 301;" xml:space="preserve">
<style type="text/css">
	.st0{fill:#00B4EC;}
	.st1{fill:#FFFFFF;stroke:#000000;stroke-width:0.5;stroke-miterlimit:10;}
	.st2{fill:#FFF69E;stroke:#000000;stroke-width:0.5;stroke-miterlimit:10;}
	.st3{fill:none;stroke:#000000;stroke-width:0.5;stroke-linecap:round;stroke-linejoin:round;stroke-miterlimit:10;}
	.st4{fill:#FFF482;stroke:#000000;stroke-width:0.5;stroke-miterlimit:10;}
	.st5{fill:#69B42E;stroke:#000000;stroke-width:0.5;stroke-linecap:round;stroke-linejoin:round;stroke-miterlimit:10;}
	.st6{fill:#B17F4A;stroke:#000000;stroke-width:0.5;stroke-linecap:round;stroke-linejoin:round;stroke-miterlimit:10;}
	.st7{opacity:0.22;stroke:#000000;stroke-width:0.5;stroke-linecap:round;stroke-linejoin:round;stroke-miterlimit:10;}
	.st8{fill:#D9A266;stroke:#000000;stroke-width:0.5;stroke-miterlimit:10;}
	.st9{fill:#36A9E1;stroke:#000000;stroke-width:0.5;stroke-miterlimit:10;}
	.st10{fill:none;stroke:#000000;stroke-width:0.5;stroke-miterlimit:10;}
	.st11{fill:#FFF599;stroke:#000000;stroke-width:0.5;stroke-miterlimit:10;}
	.st12{fill:#D9A266;stroke:#000000;stroke-width:0.5;stroke-linecap:round;stroke-linejoin:round;stroke-miterlimit:10;}
	.st13{stroke:#000000;stroke-width:0.5;stroke-linecap:round;stroke-linejoin:round;stroke-miterlimit:10;}
	.st14{fill:#36A9E1;stroke:#000000;stroke-width:0.5;stroke-linecap:round;stroke-linejoin:round;stroke-miterlimit:10;}
	.st15{fill:#E30613;stroke:#000000;stroke-width:0.5;stroke-miterlimit:10;}
	.st16{fill:#7B6A58;stroke:#000000;stroke-width:0.5;stroke-linecap:round;stroke-linejoin:round;stroke-miterlimit:10;}
	.st17{fill:#FFFFFF;}
	.st18{fill:#525251;stroke:#000000;stroke-width:0.5;stroke-linecap:round;stroke-linejoin:round;stroke-miterlimit:10;}
	.st19{fill:#B48D59;stroke:#000000;stroke-width:0.5;stroke-linecap:round;stroke-linejoin:round;stroke-miterlimit:10;}
	.st20{fill:#CA9E63;stroke:#000000;stroke-width:0.5;stroke-linecap:round;stroke-linejoin:round;stroke-miterlimit:10;}
	.st21{fill:#FFED00;stroke:#000000;stroke-width:0.5;stroke-linecap:round;stroke-linejoin:round;stroke-miterlimit:10;}
	.st22{fill:#FFFFFF;stroke:#000000;stroke-width:0.5;stroke-linecap:round;stroke-linejoin:round;stroke-miterlimit:10;}
	.st23{fill:#1E1E1C;}
</style>
<g>
	<rect x="0" y="-0.1" class="st0" width="426" height="301.2"/>
	<path class="st1" d="M111.9,29.4h-1.5c0-0.1,0-0.2,0-0.3c0-7.1-5.8-12.9-12.9-12.9c-3.9,0-7.4,1.7-9.7,4.4c-2.2-4.9-7.2-8.3-13-8.3
		c-7.9,0-14.2,6.4-14.2,14.2c0,1,0.1,1.9,0.3,2.8h-2.2c-6.7,0-12.1,5.5-12.1,12.1v0c0,6.7,5.5,12.1,12.1,12.1h53.3
		c6.7,0,12.1-5.5,12.1-12.1v0C124,34.8,118.5,29.4,111.9,29.4z"/>
	<path class="st1" d="M376,47h-0.9c0-0.1,0-0.1,0-0.2c0-4.2-3.4-7.5-7.5-7.5c-2.3,0-4.3,1-5.7,2.6c-1.3-2.9-4.2-4.9-7.6-4.9
		c-4.6,0-8.3,3.7-8.3,8.3c0,0.6,0.1,1.1,0.2,1.6h-1.3c-3.9,0-7.1,3.2-7.1,7.1v0c0,3.9,3.2,7.1,7.1,7.1H376c3.9,0,7.1-3.2,7.1-7.1v0
		C383,50.2,379.9,47,376,47z"/>
	<path class="st1" d="M426,137.6v23.2h-13.3c-1.9,0-3.7-0.8-5-2.1c-1.3-1.3-2.1-3-2.1-5c0-3.9,3.2-7.1,7.1-7.1h1.3
		c-0.1-0.5-0.2-1.1-0.2-1.6c0-4.6,3.7-8.3,8.3-8.3C423.6,136.7,424.9,137,426,137.6z"/>
	<path class="st1" d="M217.4,79.3h-1.5c0-0.1,0-0.2,0-0.3c0-6.8-5.5-12.3-12.3-12.3c-3.7,0-7,1.6-9.3,4.2c-2.1-4.7-6.9-7.9-12.4-7.9
		c-7.5,0-13.6,6.1-13.6,13.6c0,0.9,0.1,1.8,0.3,2.7h-2.1c-6.4,0-11.6,5.2-11.6,11.6v0c0,6.4,5.2,11.6,11.6,11.6h50.9
		c6.4,0,11.6-5.2,11.6-11.6v0C228.9,84.5,223.7,79.3,217.4,79.3z"/>
	<polyline class="st2" points="305.2,258.1 365.6,141.4 426,258.1 	"/>
	<polyline class="st2" points="119.4,271.1 255.9,7.9 392.4,271.1 	"/>
	<polygon class="st2" points="206.3,258.1 0,258.1 19.4,222.7 43.4,178.9 94.4,85.8 103.1,70 103.2,69.8 133.3,124.8 148.8,153.1 
		162.8,178.6 175.7,202.1 176.5,203.6 176.5,203.6 187,222.7 	"/>
	<line class="st3" x1="133.3" y1="124.8" x2="112.8" y2="124.8"/>
	<line class="st3" x1="109" y1="124.8" x2="103.7" y2="124.8"/>
	<line class="st3" x1="148.8" y1="153.1" x2="72.8" y2="153.1"/>
	<line class="st3" x1="43.4" y1="178.9" x2="100" y2="178.9"/>
	<line class="st3" x1="123.1" y1="178.9" x2="139.9" y2="178.9"/>
	<line class="st3" x1="187" y1="222.7" x2="110.8" y2="222.7"/>
	<line class="st3" x1="52.2" y1="222.7" x2="19.4" y2="222.7"/>
	<line class="st3" x1="385.4" y1="179.6" x2="360.4" y2="179.6"/>
	<line class="st3" x1="375.6" y1="160.8" x2="370.2" y2="160.8"/>
	<line class="st3" x1="397.8" y1="203.6" x2="383.4" y2="203.6"/>
	<line class="st3" x1="375.6" y1="227.4" x2="403.1" y2="227.4"/>
	<line class="st3" x1="304.9" y1="102.5" x2="231" y2="102.5"/>
	<line class="st3" x1="376.1" y1="239.8" x2="213" y2="239.8"/>
	<line class="st3" x1="176.5" y1="203.6" x2="232.6" y2="203.6"/>
	<line class="st3" x1="266.5" y1="203.6" x2="312.4" y2="203.6"/>
	<line class="st3" x1="335.2" y1="160.8" x2="210.7" y2="160.8"/>
	<line class="st3" x1="197.5" y1="160.8" x2="183.9" y2="160.8"/>
	<line class="st3" x1="273" y1="40.8" x2="248.3" y2="40.8"/>
	<line class="st3" x1="319.5" y1="130.5" x2="302" y2="130.5"/>
	<path class="st4" d="M426,222.7v78.4H0v-78.4c6.9-0.7,13.7-1.1,20.2-1.5c26.4-1.4,49.4-0.4,70.2,2c2.5,0.3,5,0.6,7.4,1
		c14.9,2.1,28.6,4.9,41.7,8.1c22,5.4,42.1,12,62.6,18c22.4,6.6,45.4,12.5,71.7,15.6c36.3,4.2,66.4-0.3,89.9-7.9
		c6.6-2.1,12.7-4.5,18.2-6.9c13.5-5.9,23.9-12.5,31.2-17.8C421.7,227.2,426,222.7,426,222.7z"/>
	<path class="st5" d="M132.1,135.2c0,0.2,0,0.4,0,0.6c-0.1,1.2-0.4,2.5-0.9,3.8c-1.3,3.8-3.9,8.1-6.3,11.5c-0.7,1-1.3,1.8-1.9,2.6
		c-1.9,2.5-3.3,4.2-3.3,4.2c-1.5-1.7-2.9-3.3-4.1-4.9v0c-2.2-2.8-3.9-5.4-5.2-7.7c-1.9-3.3-3-5.9-3.5-7.6c-0.1-0.3-0.2-0.6-0.2-0.8
		c-0.3-1-0.3-1.5-0.3-1.5c1.8-4.8,4.7-8.2,7.2-10.4c0.8-0.8,1.6-1.4,2.3-1.9c1.5-1.1,2.6-1.6,2.6-1.6c1.1,0.2,2.2,0.7,3.3,1.3
		c0.6,0.3,1.2,0.7,1.8,1.2C128.9,128,132.1,135.2,132.1,135.2z"/>
	<path class="st5" d="M165.9,188.8l-41-37.6c2.4-3.5,5-7.7,6.3-11.5c0.5-1.3,0.8-2.6,0.9-3.8c1.8,0.7,3.5,1.4,5,2.2
		C174.5,155.9,165.9,188.8,165.9,188.8z"/>
	<path class="st5" d="M110.4,145.5l-6.1,20c-9.7,7.8-23.9,11.8-23.9,11.8c0.8-24,12.3-35.1,15.6-37.8c5.2-1,9.2-1.4,10.9-1.6
		C107.5,139.6,108.5,142.2,110.4,145.5z"/>
	<path class="st5" d="M116,123.2c-0.7,0.5-1.5,1.1-2.3,1.9c-2.5,2.2-5.4,5.6-7.2,10.4c0,0,0.1,0.5,0.3,1.5c0.1,0.2,0.1,0.5,0.2,0.8
		c-1.8,0.2-5.7,0.6-10.9,1.6c-11.5,2.2-29.2,7.4-43.7,19c0,0-0.8-33.6,36-39c6.3-0.9,11.7-0.9,16.2-0.2
		C109.1,120,112.9,121.4,116,123.2z"/>
	<path class="st5" d="M179.7,142.2c0,0-21.6-8.5-42.6-4.1c-1.6-0.8-3.3-1.5-5-2.2c0-0.2,0-0.4,0-0.6c0,0-3.2-7.1-8.5-11.1
		c0.1-0.7,0.2-1.5,0.3-2.3c5.1-2.7,16-7.1,32.2-7.1C179.7,114.6,179.7,142.2,179.7,142.2z"/>
	<path class="st5" d="M123.9,121.7c-0.1,0.9-0.2,1.6-0.3,2.3c-0.6-0.4-1.1-0.8-1.8-1.2c-1-0.6-2.1-1-3.3-1.3c0,0-1.1,0.5-2.6,1.6
		c-3.1-1.8-6.8-3.2-11.4-3.9C100.2,103.3,73,87.6,73,87.6c13.6-3.7,25-2.3,31.6-0.7c6.4,1.6,12,5.6,15.2,11.3
		C124.5,106.5,124.5,116,123.9,121.7z"/>
	<path class="st6" d="M123.1,153.8l-3.8,10.1l-8.4,23.4l-0.4,12.9l-19.1,36.1l-4.8,12.9l-13.7,30.2H61.3L82,244.8l2.1-11.4L95.4,215
		l11-15.3v-14.1l6.5-14.7l2.8-17.7c1.2,1.5,2.6,3.2,4.1,4.9C119.8,158,121.2,156.3,123.1,153.8z"/>
	<path class="st5" d="M134.5,139.8c0,0,23.7,9.2,29.6,35.3"/>
	<path class="st5" d="M164.4,178.2c0,0,0.6,2,0.6,5.1"/>
	<path class="st5" d="M96.4,140.3c0,0-9.5,8.9-13.5,27"/>
	<path class="st5" d="M154.8,115.8c0,0,12.9,0,17.6,8.2"/>
	<path class="st5" d="M173.9,126.9c0,0,2.2,2.4,2.7,6.1"/>
	<path class="st5" d="M107.6,88.9c0,0,13.4,6.6,14.6,19.9"/>
	<path class="st5" d="M109,121.8c0,0-32.8-9.1-50.4,18.5"/>
	<path class="st5" d="M57.6,142.3c0,0-2.8,4.1-3.9,12.6"/>
	<path class="st5" d="M122.5,152.8l-2.6,3.5c0,0-6.2-7.4-8.2-11.6"/>
	<polyline class="st3" points="73.6,275.6 72.3,278.6 68.4,278.6 	"/>
	<polyline class="st3" points="109.8,195.3 109.8,200 103.5,211.2 	"/>
	<polyline class="st3" points="88,228.6 85.1,233.6 84,240.1 	"/>
	<line class="st3" x1="83.8" y1="241.6" x2="83.3" y2="244.6"/>
	<ellipse class="st7" cx="134.4" cy="279.5" rx="42.2" ry="8.3"/>
	<g>
		<g>
			<path class="st8" d="M149.1,252.5c-0.5,0.2-0.9,0.4-1.4,0.5c-0.4,0-0.7,0-1.1-0.1c-0.4-0.1-0.7-0.3-1.1-0.5
				c-0.1-0.1-0.2-0.2-0.2-0.3c-0.1-2.2-0.9-2.6-0.9-2.6c0,0.8-0.5,1.4-0.7,1.6c0,0-0.1,0-0.1,0c0-0.3-0.1-1.2-0.1-1.9
				c0-0.9,0.7-1.7,0.7-1.7c-0.3-11.9-3.3-19.7-3.3-19.7l1,19.6c-4.8,1.1-9.7,1.1-14.5,0l1-19.6c0,0-2.9,7.8-3.3,19.7
				c0,0,0.7,0.8,0.7,1.7c0,0.7,0,1.5-0.1,1.9c0,0.1-0.1,0.1-0.1,0c-0.2-0.2-0.7-0.8-0.7-1.6c0,0-0.8,0.4-0.9,2.6
				c0,0.1-0.1,0.3-0.2,0.3c-0.4,0.2-0.7,0.4-1.1,0.5c-0.4,0.1-0.7,0.1-1.1,0.1c-0.5,0-0.9-0.2-1.4-0.5c-0.3-0.2-0.4-0.5-0.4-0.8
				c0.8-3.4,2.1-4.2,2.1-4.2c0.6-12.3,2.9-18.6,3.4-20.5c0.2-0.6,0.9-1.1,1.9-1.6h0c2.1-0.9,5-1.4,5-1.4c1.1-0.2,0.9-2,0.9-2
				c0.6,0.3,1.1,0.4,1.3,0.4c0.3,0,0.7-0.2,1.4-0.4l0,0c0,0-0.2,1.8,0.9,2c0,0,2.9,0.5,4.9,1.3c0,0,0,0,0,0c0,0,0.1,0,0.3,0.1
				c0,0,0,0,0,0c0,0,0,0,0,0c0,0,0,0,0,0c0.9,0.4,1.5,0.9,1.7,1.5c0.5,1.9,2.8,8.2,3.4,20.5c0,0,1.3,0.8,2.1,4.2
				C149.6,252,149.4,252.4,149.1,252.5z"/>
			<path class="st8" d="M143.1,213.5l-0.1,2.8l0,1.5c0,0.4-0.2,0.8-0.6,1c-1.3,0.7-4.4,2.5-6.3,3.3c-0.6,0.3-1.1,0.4-1.4,0.4
				c-0.2,0-0.7-0.2-1.3-0.4c-1.9-0.8-5-2.6-6.3-3.3c-0.3-0.2-0.6-0.6-0.6-1l-0.1-4.3c0-0.1,0-0.3,0.1-0.4c0.1-0.9,0.3-1.9,0.6-3
				c0.2-0.9,0.5-1.8,0.8-2.7h0c0.1-0.3,0.2-0.7,0.3-1c0.1-0.2,0.1-0.3,0.2-0.5c0,0,5.4-1.6,12.7,0c0,0,0.1,0.2,0.2,0.5
				c0.1,0.3,0.2,0.6,0.4,1c0.2,0.7,0.5,1.7,0.8,2.9c0.2,0.9,0.4,1.9,0.6,3C143.1,213.3,143.1,213.4,143.1,213.5z"/>
			<path class="st1" d="M128,207.3c-0.3,0.9-0.6,1.9-0.8,2.7c-2.4,1.1-3.6-1-3.6-1c0.4-1.2,0.8-2.1,1.1-2.7
				C124.6,206.4,125.7,208.8,128,207.3z"/>
			<path class="st9" d="M127.2,210.1c-0.3,1-0.4,2-0.6,3c-2.5,1.9-4.2-0.3-4.2-0.3c0.4-1.4,0.8-2.6,1.2-3.6
				C123.6,209.1,124.8,211.2,127.2,210.1z"/>
			<path class="st1" d="M126.6,213c0,0.1,0,0.3-0.1,0.4c-0.1,1-0.2,2-0.3,2.9c0,0-3,1.6-4.7-0.8c0.3-1,0.5-2,0.8-2.9
				C122.4,212.7,124.1,214.9,126.6,213z"/>
			<path class="st9" d="M126.4,220.1c0,0-3.8,0.8-5.5-1.2c0.2-1.2,0.5-2.3,0.8-3.3c1.7,2.4,4.7,0.8,4.7,0.8
				C126.2,217.8,126.3,219,126.4,220.1z"/>
			<path class="st1" d="M126.8,222.7c0,0-4.1,1.2-6.4-1.1c0.2-0.9,0.3-1.8,0.5-2.7c1.7,2.1,5.5,1.2,5.5,1.2
				C126.5,221.1,126.6,222,126.8,222.7z"/>
			<path class="st9" d="M127.6,225.4c-8.6,2.9-7.4-3-7.4-3c0-0.3,0.1-0.5,0.1-0.8c2.3,2.3,6.4,1.1,6.4,1.1
				C127.2,224.4,127.6,225.3,127.6,225.4z"/>
			<path class="st1" d="M137.6,199.9c-1.9,1.1-3.8,1-5.8,0c0.8-0.3,1.5-0.5,2-0.6c0.6-0.1,1.3-0.1,1.9,0
				C136.4,199.5,137,199.7,137.6,199.9z"/>
			<path class="st9" d="M140,201c-3.5,1.8-7,1.8-10.6,0.1c0.8-0.5,1.6-0.9,2.4-1.2c2,1,3.9,1.1,5.8,0
				C138.5,200.3,139.3,200.6,140,201z"/>
			<path class="st1" d="M142.4,202.7c0,0-7.5,3.6-15.1,0c0.7-0.6,1.4-1.1,2.1-1.5c0,0,0,0,0,0c3.6,1.7,7.1,1.8,10.6-0.1
				C141,201.6,141.8,202.1,142.4,202.7z"/>
			<path class="st1" d="M146.2,209.1c-0.5,0.5-1.9,1.8-3.7,1.2c-0.3-1.2-0.6-2.1-0.8-2.9h0c2.2,1.4,3.3-1,3.3-1
				C145.4,207.2,145.8,208.1,146.2,209.1C146.2,209,146.2,209,146.2,209.1C146.2,209,146.2,209,146.2,209.1z"/>
			<path class="st9" d="M147.4,212.6c-0.7,0.5-2.4,1.6-4.3,0.6c-0.2-1.1-0.4-2.1-0.6-3c1.8,0.6,3.2-0.6,3.7-1.2
				C146.6,210.2,147,211.4,147.4,212.6z"/>
			<path class="st1" d="M148.2,215.6C148.2,215.6,148.2,215.6,148.2,215.6c-1.6,1.8-3.9,1.1-4.8,0.8c0-1-0.1-2-0.3-2.9
				c0-0.1,0-0.2,0-0.3c1.8,1,3.6-0.1,4.3-0.6c0,0,0,0,0,0C147.7,213.6,147.9,214.6,148.2,215.6C148.1,215.5,148.2,215.6,148.2,215.6
				z"/>
			<path class="st9" d="M148.9,218.9L148.9,218.9c-1.6,1.8-4.4,1.5-5.6,1.3c0.1-1.3,0.2-2.6,0.1-3.8c0.9,0.3,3.2,1,4.8-0.8
				C148.4,216.8,148.7,217.9,148.9,218.9C148.9,218.9,148.9,218.9,148.9,218.9C148.9,218.9,148.9,218.9,148.9,218.9z"/>
			<path class="st1" d="M149.3,221.6L149.3,221.6c-2.1,2-5.6,1.4-6.5,1.2c0.2-0.8,0.3-1.7,0.4-2.5c1.1,0.2,4,0.5,5.6-1.3
				C149.1,219.9,149.2,220.8,149.3,221.6z"/>
			<path class="st9" d="M149.3,224.5c-1.3,2.7-5.7,1.4-6.9,1c0,0,0,0,0,0c0,0,0,0,0,0c0,0,0,0,0,0c-0.1,0-0.2-0.1-0.3-0.1
				c0.3-0.9,0.6-1.8,0.8-2.6c0.9,0.2,4.3,0.8,6.5-1.2c0.1,0.6,0.1,1,0.2,1.3C149.6,223.5,149.5,224,149.3,224.5z"/>
			<path class="st10" d="M142.3,225.5c-0.2-0.1-0.3-0.1-0.3-0.1c0,0,0,0,0,0C142.1,225.4,142.2,225.5,142.3,225.5z"/>
			<path class="st10" d="M123.8,250.3c0,0-0.7,1.7-0.7,2.6"/>
			<path class="st10" d="M122.8,250.3c0,0-0.7,1.4-0.7,2.7"/>
			<path class="st10" d="M121.9,250.1c0,0-0.9,1.3-0.9,2.6"/>
			<path class="st11" d="M142.3,249.9c-2.3,0.5-4.7,0.8-7,0.9c-1,0-2.1,0-3.1-0.1c-1.6-0.1-3.1-0.4-4.7-0.7l0.1-2.5
				c4.8,1.1,9.7,1.1,14.5,0L142.3,249.9z"/>
			<path class="st1" d="M143.1,265.9c0,0.6-0.3,1.1-0.9,1.4c-0.6,0.2-1.2,0.4-1.8,0.6c-1,0.3-2.1,0.5-3.1,0.6c-1.7,0.2-3.4,0.2-5,0
				c-1-0.1-2.1-0.4-3.1-0.7c-0.6-0.2-1.1-0.4-1.7-0.6s-0.9-0.8-0.9-1.4l0.8-16c1.6,0.4,3.1,0.6,4.7,0.7v4.9l1.5,2.3l1.5-2.3v-4.8
				c2.3,0,4.7-0.3,7-0.9L143.1,265.9z"/>
			<path class="st10" d="M146,250.3c0,0,0.7,1.7,0.7,2.6"/>
			<path class="st10" d="M147,250.3c0,0,0.7,1.4,0.7,2.7"/>
			<path class="st10" d="M147.9,250.1c0,0,0.9,1.3,0.9,2.6"/>
			<path class="st12" d="M132.6,279.2c-1.3,0.8-2.7,0.8-4,0C130.6,277,132.6,279.2,132.6,279.2z"/>
			<path class="st12" d="M132.6,278.2c-0.1-0.1-2-2.2-3.9,0c0.1-0.7,0.3-1.1,0.5-1.3c0.1-0.1,0.1-0.2,0.1-0.3v-8.8
				c1,0.3,2.1,0.5,3.1,0.7v8.2c0,0.1,0,0.3,0.1,0.4C132.5,277.3,132.6,277.6,132.6,278.2z"/>
			<path class="st13" d="M132.6,279.2c0,0-2-2.2-4,0c0-0.4,0-0.7,0.1-1c2-2.2,3.8-0.1,3.9,0C132.6,278.5,132.6,278.9,132.6,279.2z"
				/>
			<line class="st10" x1="132.3" y1="268.5" x2="132.3" y2="268.5"/>
			<path class="st3" d="M132.6,278.2C132.6,278.2,132.6,278.2,132.6,278.2"/>
			<path class="st12" d="M140.9,278.2c-2-2.2-3.8-0.1-3.9,0c0-0.6,0.2-1,0.2-1.2c0.1-0.1,0.1-0.2,0.1-0.4v-8.2
				c1-0.1,2.1-0.3,3.1-0.6v8.7c0,0.1,0,0.2,0.1,0.3C140.6,277.1,140.8,277.5,140.9,278.2z"/>
			<line class="st10" x1="140.4" y1="267.9" x2="140.4" y2="267.8"/>
			<path class="st13" d="M141,279.2c-2-2.2-4,0-4,0c0-0.4,0-0.7,0-1c0.1-0.1,2-2.2,3.9,0C141,278.5,141,278.8,141,279.2z"/>
			<path class="st12" d="M141,279.2c-1.3,0.8-2.7,0.8-4,0C137,279.2,139,277,141,279.2z"/>
			<line class="st10" x1="137.3" y1="268.5" x2="137.3" y2="268.5"/>
			<path class="st3" d="M137,278.2C137,278.2,137,278.2,137,278.2"/>
			<line class="st3" x1="140.9" y1="278.2" x2="140.9" y2="278.2"/>
			<path class="st14" d="M145,206.3C145,206.3,145,206.3,145,206.3c0,0.1-1.1,2.4-3.3,1h0c-0.1-0.4-0.3-0.8-0.4-1
				c-0.1-0.3-0.2-0.5-0.2-0.5c-7.2-1.6-12.7,0-12.7,0c-0.1,0.2-0.1,0.3-0.2,0.5c-0.1,0.3-0.2,0.7-0.3,1h0c-2.2,1.4-3.3-1-3.3-1
				c0.3-0.8,0.6-1.2,0.6-1.2c0.6-1,1.4-1.8,2.1-2.5c7.5,3.6,15.1,0,15.1,0c1.6,1.3,2.1,2.5,2.1,2.5
				C144.6,205.5,144.8,205.9,145,206.3L145,206.3z"/>
			<ellipse class="st13" cx="130.7" cy="211.8" rx="0.6" ry="1"/>
			<ellipse class="st13" cx="138.8" cy="211.8" rx="0.6" ry="1"/>
			<path class="st3" d="M138.8,216.9c0,0-3.9,3.4-8,0"/>
			<polygon class="st15" points="135.6,208.4 134.7,210.1 133.8,208.4 133.8,208.4 134.7,207.5 			"/>
			<path class="st10" d="M133.8,208.4c-1.8-0.2-3.6-1.1-5.3-2.6"/>
			<path class="st10" d="M141.2,205.8c-1.9,1.5-3.7,2.4-5.5,2.6"/>
			<path class="st11" d="M135.3,250.7v4.8l-1.5,2.3l-1.5-2.3v-4.9C133.2,250.7,134.2,250.8,135.3,250.7z"/>
			<g>
				<path class="st16" d="M131.5,210.5h-1.4c-0.1,0-0.3-0.1-0.3-0.3l0,0c0-0.1,0.1-0.2,0.2-0.2h1c0.1,0,0.3,0.1,0.4,0.2l0,0
					C131.6,210.3,131.6,210.5,131.5,210.5z"/>
			</g>
			<g>
				<path class="st16" d="M138,210.5h1.4c0.1,0,0.3-0.1,0.3-0.3l0,0c0-0.1-0.1-0.2-0.2-0.2h-1c-0.1,0-0.3,0.1-0.4,0.2l0,0
					C137.9,210.3,137.8,210.5,138,210.5z"/>
			</g>
			<ellipse class="st17" cx="130.8" cy="211.5" rx="0.2" ry="0.2"/>
			<ellipse class="st17" cx="138.7" cy="211.5" rx="0.2" ry="0.2"/>
		</g>
		<path class="st3" d="M142.3,264.3l0.2,1.4c0,0,0.2,0.9-1.4,1.4"/>
		<line class="st3" x1="127.8" y1="250.4" x2="129.3" y2="250.7"/>
		<path class="st3" d="M135.9,221.6l-0.9,0.3c-0.1,0-0.2,0-0.2,0l-0.9-0.3"/>
		<line class="st12" x1="141" y1="237.9" x2="141.1" y2="239.1"/>
		<line class="st12" x1="140.6" y1="231.4" x2="141" y2="236.9"/>
	</g>
	<g>
		<path class="st18" d="M314.6,284.5c0,0-5.7,2.4-10.8,0.1c0,0,0,0,0,0c-0.3-0.2-0.6-0.5-0.6-0.9c0-0.7,0-2,0.6-3.3
			c0.3-0.7,0.9-1.3,1.7-1.8c0.1-0.1,0.3-0.2,0.3-0.3c3.7,2.3,7.4,0,7.4,0L314.6,284.5z"/>
		<path class="st18" d="M392.4,284c0,0-6.6,3.8-13.6,0.4c-0.2-0.1-0.2-0.3-0.2-0.5c-0.2-1.3,0.4-4.5,2.8-5.4
			c0.3-0.1,0.5-0.3,0.7-0.6c0,0,3.3,2,8.3,0.1l0,0.3L392.4,284z"/>
		<path class="st14" d="M358.6,204.5l-2.1,0.6l-2.7,0.7c-0.9,0.2-1.8-0.2-2.2-1l-3.6-7.3c-0.4-0.8-1.3-1.2-2.1-1l-16.4,3.6
			c-0.8,0.2-1.4,0.8-1.5,1.6l-1.6,9.8c-0.1,0.8-0.7,1.4-1.5,1.6l-8.1,1.5c-1,0.2-1.9-0.4-2.2-1.3l-6.4-20.9l0,0
			c1.4-1.8,2.9-3.5,4.6-5.1c1.9-1.8,4.1-3.3,6.4-4.6c0.1,0.1,0.1,0.1,0.1,0.2l3.1,6.8c0.2,0.5,0.8,0.7,1.3,0.6l18.2-5
			c0.4-0.1,0.7-0.4,0.8-0.9l0.7-3.6c0,0,0-0.1,0-0.1c1.7,0.8,3.4,1.8,5.1,3.2c0.4,0.3,0.9,0.7,1.3,1.1c2,1.7,3.9,3.2,5.6,4.5
			c0,0,0,0,0,0c0.1,0.2,3.3,6.5,4.5,12.9C360.2,203.3,359.6,204.2,358.6,204.5z"/>
		<path class="st19" d="M390.4,277.9c-5,1.9-8.3-0.1-8.3-0.1c0.1-0.2,0.1-0.3,0.1-0.5l-1.3-20.7c-0.1-1-0.4-2-0.9-2.8l-8.3-13.7
			l-10.8-17.9l-4.5,3.6h0c-23.8,16.8-43.2-3.6-43.2-3.6v56.1c0,0-3.7,2.3-7.4,0c0.2-0.2,0.3-0.5,0.3-0.8v-22.8l-3.1-20.9v0l-1-6.6
			c-2.8,0.5-5.4,0.8-7.7,0.9c-27.5,0.5-22.3-31.8-22.3-31.8c-1.4-0.2-3.1-0.4-4.8-0.1c-3.7,0.5-7.2,3.1-14,1.7
			c-0.4-0.1-0.7-0.3-0.9-0.5c-0.3-0.4-0.3-0.8,0.5-1.3c0,0-1.6-1-0.5-2.1c0.2-0.2,0.4-0.5,0.4-0.7c0-0.2,0-0.3,0-0.5
			c0,0,2.4,0.5,2.3-2l0-0.1c2.5-0.7,6.6-1.8,8-4.4c0.7-1.4,6.5,0.1,10.4,0.4c1.5,0.1,2.9,0.9,3.7,2.1c-0.7,0.5-1.1,1-1.2,1l1.2-1
			c1.3-0.9,3.7-2.1,7.5-1.7c0,0-0.9,4.9-6.8,4.7l-1.8-0.2c0.7,0.1,1.3,0.2,1.8,0.2c1.8,15.6,11.4,32.4,28.1,4.2
			c0.7-1.3,1.6-2.5,2.5-3.7l0,0l6.4,20.9c0.3,0.9,1.2,1.5,2.2,1.3l8.1-1.5c0.8-0.1,1.4-0.8,1.5-1.6l1.6-9.8c0.1-0.8,0.7-1.4,1.5-1.6
			l16.4-3.6c0.9-0.2,1.7,0.2,2.1,1l3.6,7.3c0.4,0.8,1.3,1.2,2.2,1l4.8-1.3c1-0.3,1.5-1.2,1.4-2.2c-1.1-6.4-4.4-12.7-4.5-12.9
			c5.9,4.4,10.4,6.7,13.7,7.9c0.3,0.1,0.6,0.2,0.8,0.3l0.2,0.1c4.5,1.9,7.8,5.8,8.8,10.6l8.6,40.1L390.4,277.9z"/>
		<path class="st3" d="M267.9,188.9c0,1-0.9,1.8-2.1,1.8c-1.1,0-2.1-0.8-2.1-1.8H267.9z"/>
		<path class="st13" d="M265.8,190.6c-1.1,0-2.1-0.8-2.1-1.8h4.1C267.9,189.8,267,190.6,265.8,190.6z M274.8,197l-2.8-0.7"/>
		<path class="st17" d="M265.8,190.1c-0.5,0-0.8-0.3-0.8-0.7h1.7C266.7,189.8,266.3,190.1,265.8,190.1z"/>
		<path class="st3" d="M252.8,196c1.1-0.6,2.4,0.8,4-0.9"/>
		<path class="st18" d="M370.5,284c0,0-5.5,2.7-11.9,0.1c-0.2-0.1-0.3-0.3-0.2-0.5c0.3-1.1,1.2-4.5,3.5-5.2c0.4-0.2,0.8-0.4,1.1-0.8
			c2.5,2.1,6.4,0.6,6.4,0.6L370.5,284z"/>
		<path class="st19" d="M375.4,256l-6.2,22.3c0,0-3.9,1.4-6.4-0.6c0.1-0.2,0.2-0.4,0.3-0.6l5.3-18.1c0.5-1.6,0.4-3.4-0.3-5
			l-11.9-28.3h0l4.5-3.6l10.8,17.9L375.4,256z"/>
		<line class="st3" x1="275.8" y1="189.7" x2="275.8" y2="189.7"/>
		<path class="st13" d="M252.7,192.7c-0.1-0.6-0.4-1.1,0.3-1.5c0.3-0.2,1-0.4,1.9-0.6l0,0.1C255.1,193.2,252.7,192.7,252.7,192.7z"
			/>
		<path class="st3" d="M252.8,196c1.1-0.6,2.4,0.8,4-0.9"/>
		<line class="st3" x1="252.7" y1="193.2" x2="252.7" y2="192.7"/>
		<line class="st3" x1="274.8" y1="197" x2="274.8" y2="197"/>
		<path class="st18" d="M303.7,284.6c-3.3,1.3-7,1.1-10.8,0c-1.8-4.7,2.7-6.3,2.7-6.3c3.5,2.6,7.3,0,7.3,0l0.8,2.2
			c-0.6,1.2-0.6,2.5-0.6,3.3C303.1,284.1,303.4,284.4,303.7,284.6z"/>
		<path class="st19" d="M302.9,233.8v44.5c0,0-3.8,2.6-7.3,0V254l-1.3-25.9c2.3,0,4.9-0.3,7.7-0.9L302.9,233.8z"/>
		<line class="st3" x1="302" y1="227.3" x2="301.1" y2="223"/>
		<path class="st20" d="M400.4,236.1c1.5-3.6-1.1-5.5-1.1-5.5c-0.8,0.8-0.1,2.8,0,3c-3-4.9-0.9-8.4-0.9-8.4
			C404.4,227.9,404.3,231.7,400.4,236.1z"/>
		<path class="st3" d="M370.2,197.7c0,0,19.8,7.7,28.2,27.4"/>
		<path class="st3" d="M399.2,233.5C399.2,233.5,399.2,233.5,399.2,233.5"/>
		<path class="st19" d="M360.9,222.2c0,0-2.1-2.3-0.9-5.8"/>
		<path class="st21" d="M321.6,219.3c0,0-1.3,1-1.1,2.8c0,0,0.4,0,0.6-0.4c-0.2,0.4-0.4,1.5,0.1,2.3c0,0,0.3-0.9,0.8-1.1
			C323.9,221.9,321.6,219.3,321.6,219.3z M321.1,221.6c0-0.1,0.1-0.1,0.1-0.2C321.2,221.5,321.1,221.5,321.1,221.6z"/>
		<path class="st19" d="M321.2,221.4c0,0.1,0,0.1-0.1,0.2C321.1,221.5,321.2,221.4,321.2,221.4z"/>
		<line class="st3" x1="321.6" y1="219.3" x2="321.6" y2="213.6"/>
		<path class="st21" d="M356.5,211.1c0,0-1.3,1-1.1,2.8c0,0,0.4,0,0.6-0.4c-0.2,0.4-0.4,1.5,0.1,2.3c0,0,0.3-0.9,0.8-1.1
			C358.8,213.7,356.5,211.1,356.5,211.1z M356,213.4c0-0.1,0.1-0.1,0.1-0.2C356.1,213.3,356,213.4,356,213.4z"/>
		<line class="st3" x1="356.5" y1="211.1" x2="356.5" y2="205.1"/>
		<path class="st22" d="M343.4,180.7C343.4,180.7,343.4,180.7,343.4,180.7l-0.7,3.7c-0.1,0.4-0.4,0.7-0.8,0.9l-18.2,5
			c-0.5,0.1-1.1-0.1-1.3-0.6l-3.1-6.8c0-0.1-0.1-0.2-0.1-0.2c0.3-0.1,0.5-0.3,0.8-0.4C326.5,178.8,334.8,176.6,343.4,180.7z"/>
		<polygon class="st1" points="317.9,194.6 314.8,199.6 321,206.2 323,197.7 		"/>
		<polygon class="st1" points="350.3,188.1 347.2,193.2 353.4,199.8 355.4,191.3 		"/>
		<path class="st3" d="M326.3,209.4l-0.3,1.7c0,0-0.1,1.1-1.2,1.5l-0.9,0.2"/>
		<path class="st19" d="M355,225.1c0,0-15.3,14.5-37.2,0"/>
		<polyline class="st19" points="374.6,254.3 375,255.9 374.6,257.4 		"/>
		<path class="st19" d="M272.2,199.5c0,0-0.7,5.5,0.9,11.5"/>
		<path class="st19" d="M273.3,212c0,0,0.2,1.2,0.6,1.9"/>
		<path class="st3" d="M313.7,282.8l0.4,1.5c0,0-0.7,0.3-1.6,0.4"/>
		<path class="st3" d="M311.2,284.9c0,0-2.2,0.6-4.8,0"/>
		<path class="st3" d="M368.9,278.9c0,0-3.1,1-6.1-0.6"/>
		<path class="st3" d="M379.4,280.9c0,0-0.6,1.1-0.5,2.9"/>
		<line class="st3" x1="378.5" y1="210.5" x2="384.3" y2="236.1"/>
		<line class="st3" x1="384.4" y1="237" x2="385.2" y2="240.1"/>
		<polyline class="st3" points="321.5,197.2 322.6,197.9 322.3,198.7 		"/>
		<line class="st14" x1="347.8" y1="193.3" x2="352.9" y2="198.8"/>
		<path class="st3" d="M266,186.2c0,0-1.7-0.1-2.4,0.1c-0.2,0-0.3,0.2-0.3,0.3c-0.1,0.4-0.6,1.1-1.5,1.8"/>
		<path class="st3" d="M280.8,187.5c0,0,1.5-0.3,3.1-0.1c0,0-0.3,1.2-1.2,2.1"/>
		<line class="st3" x1="312.6" y1="224.5" x2="312.6" y2="237.7"/>
		<line class="st3" x1="312.6" y1="238.5" x2="312.6" y2="241.3"/>
		<polyline class="st3" points="295.9,228.5 294.7,228.5 294.8,229.5 		"/>
		<line class="st3" x1="296.1" y1="258.5" x2="296.1" y2="265.2"/>
		<line class="st3" x1="296.1" y1="266.6" x2="296.1" y2="268.8"/>
		<ellipse class="st7" cx="338.2" cy="291.4" rx="27.4" ry="4.6"/>
		<path class="st3" d="M398.7,225.6c0,0,6.1,2.5,3.2,7.5"/>
	</g>
	<path class="st23" d="M350.1,94c-5.4-13.8-23.4-9.5-23.4-9.5c17.3,1.7,23.1,12.9,23.1,12.9s7.5-10.1,24.9-9
		C374.8,88.5,357.7,81.3,350.1,94z"/>
	<path class="st23" d="M397.3,21.2c-2.9-7.4-12.6-5.1-12.6-5.1c9.3,0.9,12.4,6.9,12.4,6.9s4-5.4,13.4-4.8
		C410.6,18.2,401.4,14.3,397.3,21.2z"/>
	<path class="st23" d="M174,81.7c-10.2-16.2-32-6.4-32-6.4c22.4-2.1,32.5,10.8,32.5,10.8s7.1-14.7,29.5-17.5
		C203.9,68.7,180.5,63.7,174,81.7z"/>
	<path class="st23" d="M54.4,101.9c-6.4-10.2-20.2-4-20.2-4c14.1-1.3,20.5,6.8,20.5,6.8s4.5-9.3,18.6-11
		C73.3,93.7,58.6,90.6,54.4,101.9z"/>
</g>
</svg>
