<?xml version="1.0" encoding="utf-8"?>
<!-- Generator: $$$/GeneralStr/196=Adobe Illustrator 27.6.0, SVG Export Plug-In . SVG Version: 6.00 Build 0)  -->
<svg version="1.1" id="Calque_2" xmlns="http://www.w3.org/2000/svg" xmlns:xlink="http://www.w3.org/1999/xlink" x="0px" y="0px"
	 width="426px" height="301px" viewBox="0 0 426 301" style="enable-background:new 0 0 426 301;" xml:space="preserve">
<style type="text/css">
	.st0{fill:#36A9E1;stroke:#000000;stroke-width:0.5;stroke-linecap:round;stroke-linejoin:round;stroke-miterlimit:10;}
	.st1{fill:#FFFFFF;stroke:#000000;stroke-width:0.5;stroke-miterlimit:10;}
	.st2{fill:#EDEDED;stroke:#000000;stroke-width:0.5;stroke-linecap:round;stroke-linejoin:round;stroke-miterlimit:10;}
	.st3{fill:#005F83;stroke:#000000;stroke-width:0.5;stroke-linecap:round;stroke-linejoin:round;stroke-miterlimit:10;}
	.st4{fill:#C6C6C6;stroke:#000000;stroke-width:0.5;stroke-linecap:round;stroke-linejoin:round;stroke-miterlimit:10;}
	.st5{fill:#E63812;stroke:#000000;stroke-width:0.5;stroke-linecap:round;stroke-linejoin:round;stroke-miterlimit:10;}
	.st6{fill:#1D71B8;stroke:#000000;stroke-width:0.5;stroke-linecap:round;stroke-linejoin:round;stroke-miterlimit:10;}
	.st7{fill:none;stroke:#29235C;stroke-width:0.5;stroke-linecap:round;stroke-linejoin:round;stroke-miterlimit:10;}
	.st8{fill:#008D36;stroke:#000000;stroke-width:0.5;stroke-linecap:round;stroke-linejoin:round;stroke-miterlimit:10;}
	.st9{fill:none;stroke:#412E14;stroke-width:0.5;stroke-linecap:round;stroke-linejoin:round;stroke-miterlimit:10;}
	.st10{fill:#DEDEDE;stroke:#000000;stroke-width:0.5;stroke-linecap:round;stroke-linejoin:round;stroke-miterlimit:10;}
	.st11{fill:#3AAA35;stroke:#000000;stroke-width:0.5;stroke-linecap:round;stroke-linejoin:round;stroke-miterlimit:10;}
	.st12{fill:#3AAA35;}
	.st13{fill:#604F25;}
	.st14{fill:#3AAA35;stroke:#604F25;stroke-width:0.5;stroke-linecap:round;stroke-linejoin:round;stroke-miterlimit:10;}
	.st15{fill:none;stroke:#000000;stroke-width:0.5;stroke-linecap:round;stroke-linejoin:round;stroke-miterlimit:10;}
	.st16{fill:#1E1E1C;}
	.st17{fill:#006633;}
	.st18{fill:#2FAC66;}
</style>
<g>
	<rect x="0" y="-0.1" class="st0" width="426" height="301.2"/>
	<path class="st1" d="M273.8,25.2H273c0,0,0-0.1,0-0.1c0-3.7-3-6.7-6.7-6.7c-2,0-3.8,0.9-5.1,2.3c-1.2-2.6-3.7-4.3-6.7-4.3
		c-4.1,0-7.4,3.3-7.4,7.4c0,0.5,0.1,1,0.1,1.5h-1.2c-3.5,0-6.3,2.8-6.3,6.3v0c0,3.5,2.8,6.3,6.3,6.3h27.7c3.5,0,6.3-2.8,6.3-6.3v0
		C280.2,28.1,277.3,25.2,273.8,25.2z"/>
	<path class="st1" d="M355.1,141h-0.6c0,0,0-0.1,0-0.1c0-2.5-2.1-4.6-4.6-4.6c-1.4,0-2.6,0.6-3.5,1.6c-0.8-1.8-2.6-3-4.6-3
		c-2.8,0-5.1,2.3-5.1,5.1c0,0.3,0,0.7,0.1,1h-0.8c-2.4,0-4.3,2-4.3,4.3v0c0,2.4,2,4.3,4.3,4.3h19.1c2.4,0,4.3-2,4.3-4.3v0
		C359.5,143,357.5,141,355.1,141z"/>
	<path class="st1" d="M113.9,26.5h-1.3c0-0.1,0-0.2,0-0.2c0-6.1-4.9-11-11-11c-3.3,0-6.3,1.5-8.3,3.8c-1.9-4.2-6.1-7.1-11-7.1
		c-6.7,0-12.1,5.4-12.1,12.1c0,0.8,0.1,1.6,0.2,2.4h-1.9c-5.7,0-10.3,4.7-10.3,10.3v0c0,5.7,4.7,10.3,10.3,10.3h45.5
		c5.7,0,10.3-4.7,10.3-10.3v0C124.3,31.1,119.6,26.5,113.9,26.5z"/>
	<rect x="149.4" y="181.4" class="st2" width="151.5" height="8.8"/>
	<rect x="142.4" y="190.2" class="st2" width="165.5" height="8.8"/>
	<rect x="156.3" y="172.6" class="st2" width="137.8" height="8.8"/>
	<rect x="162.6" y="163.8" class="st2" width="125.1" height="8.8"/>
	<rect x="164" y="87.7" class="st3" width="125.1" height="4.4"/>
	<rect x="159.6" y="75.4" class="st2" width="133.9" height="12.3"/>
	<g>
		<g>
			<rect x="171.7" y="159.4" class="st4" width="22.3" height="4.4"/>
			<rect x="174.2" y="154.9" class="st4" width="17.3" height="4.4"/>
			<polygon class="st2" points="181.5,105.6 181.1,154.9 175.6,154.9 177.7,105.6 			"/>
			<polygon class="st2" points="189.9,154.9 184.4,154.9 183.9,105.6 187.9,105.6 			"/>
			<path class="st5" d="M192.4,92.1c0,0-3.7,2.6-3.7,8.1h-11.5c0-5.5-3.7-8.1-3.7-8.1H192.4z"/>
			<path class="st2" d="M193,103.8c0,1.6-1.3,2.9-2.9,2.9c-0.9,0-1.6-0.5-2-1.2h-0.2v0h-10.2v0h-0.2c-0.4,0.7-1.2,1.2-2,1.2
				c-1.6,0-2.9-1.3-2.9-2.9c0-2,1.6-3.7,3.6-3.7h13.2C191.4,100.2,193,101.8,193,103.8z"/>
			<line class="st2" x1="179.5" y1="105.6" x2="177.7" y2="154.9"/>
			<polygon class="st2" points="184.4,154.9 181.1,154.9 181.5,105.6 183.9,105.6 			"/>
			<line class="st2" x1="186" y1="105.6" x2="187.7" y2="154.9"/>
			<line class="st2" x1="183.9" y1="105.6" x2="183.9" y2="105.6"/>
			<polyline class="st2" points="184.5,102.3 185.3,102.3 185.3,103.6 183.7,103.6 183.7,101.3 186.3,101.3 186.3,104.5 
				179.2,104.5 179.2,101.3 181.8,101.3 181.8,103.6 180.2,103.6 180.2,102.3 181,102.3 			"/>
			<rect x="182.4" y="102.1" class="st2" width="0.7" height="0.7"/>
			<path class="st2" d="M175.6,105.2c-0.7,0-1.2-0.5-1.2-1.2c0-0.8,0.7-1.5,1.5-1.5c1,0,1.9,0.8,1.9,1.9c0,0.4-0.1,0.8-0.3,1.2"/>
			<path class="st2" d="M188.1,105.6c-0.2-0.3-0.3-0.8-0.3-1.2c0-1,0.8-1.9,1.9-1.9c0.8,0,1.5,0.7,1.5,1.5c0,0.7-0.5,1.2-1.2,1.2"/>
		</g>
		<g>
			<rect x="200.2" y="159.4" class="st4" width="22.3" height="4.4"/>
			<rect x="202.7" y="154.9" class="st4" width="17.3" height="4.4"/>
			<polygon class="st2" points="210,105.6 209.6,154.9 204.1,154.9 206.2,105.6 			"/>
			<polygon class="st2" points="218.4,154.9 212.9,154.9 212.5,105.6 216.4,105.6 			"/>
			<path class="st5" d="M221,92.1c0,0-3.7,2.6-3.7,8.1h-11.5c0-5.5-3.7-8.1-3.7-8.1H221z"/>
			<path class="st2" d="M221.5,103.8c0,1.6-1.3,2.9-2.9,2.9c-0.9,0-1.6-0.5-2-1.2h-0.2v0h-10.2v0H206c-0.4,0.7-1.2,1.2-2,1.2
				c-1.6,0-2.9-1.3-2.9-2.9c0-2,1.6-3.7,3.6-3.7h13.2C219.9,100.2,221.5,101.8,221.5,103.8z"/>
			<line class="st2" x1="208" y1="105.6" x2="206.3" y2="154.9"/>
			<polygon class="st2" points="212.9,154.9 209.6,154.9 210,105.6 212.5,105.6 			"/>
			<line class="st2" x1="214.5" y1="105.6" x2="216.2" y2="154.9"/>
			<line class="st2" x1="212.5" y1="105.6" x2="212.5" y2="105.6"/>
			<polyline class="st2" points="213.1,102.3 213.9,102.3 213.9,103.6 212.3,103.6 212.3,101.3 214.8,101.3 214.8,104.5 
				207.8,104.5 207.8,101.3 210.3,101.3 210.3,103.6 208.7,103.6 208.7,102.3 209.5,102.3 			"/>
			<rect x="210.9" y="102.1" class="st2" width="0.7" height="0.7"/>
			<path class="st2" d="M204.1,105.2c-0.7,0-1.2-0.5-1.2-1.2c0-0.8,0.7-1.5,1.5-1.5c1,0,1.9,0.8,1.9,1.9c0,0.4-0.1,0.8-0.3,1.2"/>
			<path class="st2" d="M216.6,105.6c-0.2-0.3-0.3-0.8-0.3-1.2c0-1,0.8-1.9,1.9-1.9c0.8,0,1.5,0.7,1.5,1.5c0,0.7-0.5,1.2-1.2,1.2"/>
		</g>
		<g>
			<rect x="228.7" y="159.4" class="st4" width="22.3" height="4.4"/>
			<rect x="231.2" y="154.9" class="st4" width="17.3" height="4.4"/>
			<polygon class="st2" points="238.5,105.6 238.1,154.9 232.7,154.9 234.7,105.6 			"/>
			<polygon class="st2" points="246.9,154.9 241.4,154.9 241,105.6 244.9,105.6 			"/>
			<path class="st5" d="M249.5,92.1c0,0-3.7,2.6-3.7,8.1h-11.5c0-5.5-3.7-8.1-3.7-8.1H249.5z"/>
			<path class="st2" d="M250.1,103.8c0,1.6-1.3,2.9-2.9,2.9c-0.9,0-1.6-0.5-2-1.2h-0.2v0h-10.2v0h-0.2c-0.4,0.7-1.2,1.2-2,1.2
				c-1.6,0-2.9-1.3-2.9-2.9c0-2,1.6-3.7,3.6-3.7h13.2C248.4,100.2,250.1,101.8,250.1,103.8z"/>
			<line class="st2" x1="236.5" y1="105.6" x2="234.8" y2="154.9"/>
			<polygon class="st2" points="241.4,154.9 238.1,154.9 238.5,105.6 241,105.6 			"/>
			<line class="st2" x1="243" y1="105.6" x2="244.7" y2="154.9"/>
			<line class="st2" x1="241" y1="105.6" x2="241" y2="105.6"/>
			<polyline class="st2" points="241.6,102.3 242.4,102.3 242.4,103.6 240.8,103.6 240.8,101.3 243.3,101.3 243.3,104.5 
				236.3,104.5 236.3,101.3 238.8,101.3 238.8,103.6 237.2,103.6 237.2,102.3 238,102.3 			"/>
			<rect x="239.5" y="102.1" class="st2" width="0.7" height="0.7"/>
			<path class="st2" d="M232.7,105.2c-0.7,0-1.2-0.5-1.2-1.2c0-0.8,0.7-1.5,1.5-1.5c1,0,1.9,0.8,1.9,1.9c0,0.4-0.1,0.8-0.3,1.2"/>
			<path class="st2" d="M245.1,105.6c-0.2-0.3-0.3-0.8-0.3-1.2c0-1,0.8-1.9,1.9-1.9c0.8,0,1.5,0.7,1.5,1.5c0,0.7-0.5,1.2-1.2,1.2"/>
		</g>
		<g>
			<rect x="257.3" y="159.4" class="st4" width="22.3" height="4.4"/>
			<rect x="259.8" y="154.9" class="st4" width="17.3" height="4.4"/>
			<polygon class="st2" points="267.1,105.6 266.6,154.9 261.2,154.9 263.2,105.6 			"/>
			<polygon class="st2" points="275.5,154.9 269.9,154.9 269.5,105.6 273.4,105.6 			"/>
			<path class="st5" d="M278,92.1c0,0-3.7,2.6-3.7,8.1h-11.5c0-5.5-3.7-8.1-3.7-8.1H278z"/>
			<path class="st2" d="M278.6,103.8c0,1.6-1.3,2.9-2.9,2.9c-0.9,0-1.6-0.5-2-1.2h-0.2v0h-10.2v0H263c-0.4,0.7-1.2,1.2-2,1.2
				c-1.6,0-2.9-1.3-2.9-2.9c0-2,1.6-3.7,3.6-3.7h13.2C276.9,100.2,278.6,101.8,278.6,103.8z"/>
			<line class="st2" x1="265" y1="105.6" x2="263.3" y2="154.9"/>
			<polygon class="st2" points="269.9,154.9 266.6,154.9 267.1,105.6 269.5,105.6 			"/>
			<line class="st2" x1="271.5" y1="105.6" x2="273.3" y2="154.9"/>
			<line class="st2" x1="269.5" y1="105.6" x2="269.5" y2="105.6"/>
			<polyline class="st2" points="270.1,102.3 270.9,102.3 270.9,103.6 269.3,103.6 269.3,101.3 271.9,101.3 271.9,104.5 
				264.8,104.5 264.8,101.3 267.4,101.3 267.4,103.6 265.8,103.6 265.8,102.3 266.6,102.3 			"/>
			<rect x="268" y="102.1" class="st2" width="0.7" height="0.7"/>
			<path class="st2" d="M261.2,105.2c-0.7,0-1.2-0.5-1.2-1.2c0-0.8,0.7-1.5,1.5-1.5c1,0,1.9,0.8,1.9,1.9c0,0.4-0.1,0.8-0.3,1.2"/>
			<path class="st2" d="M273.6,105.6c-0.2-0.3-0.3-0.8-0.3-1.2c0-1,0.8-1.9,1.9-1.9c0.8,0,1.5,0.7,1.5,1.5c0,0.7-0.5,1.2-1.2,1.2"/>
		</g>
	</g>
	<g>
		<line class="st4" x1="279.4" y1="163.8" x2="257.1" y2="163.8"/>
		<line class="st5" x1="259" y1="92.1" x2="277.9" y2="92.1"/>
	</g>
	<path class="st5" d="M225.6,36.2L154,75.4h143.1L225.6,36.2z M225.6,39.5l62.7,34.3H162.9L225.6,39.5z"/>
	<path class="st2" d="M225.6,39.5l-62.6,34.3h125.3L225.6,39.5z M225.6,43.1l49.5,27.1H176L225.6,43.1z"/>
	<polygon class="st5" points="275.1,70.2 176,70.2 225.6,43.1 	"/>
	<g>
		<g>
			<rect x="169.7" y="75.4" class="st6" width="7.7" height="12.3"/>
			<line class="st7" x1="171.5" y1="77" x2="171.5" y2="85.6"/>
			<line class="st7" x1="175.6" y1="77" x2="175.6" y2="85.6"/>
			<line class="st7" x1="173.6" y1="77" x2="173.6" y2="85.6"/>
		</g>
		<g>
			<rect x="187.4" y="75.4" class="st6" width="7.7" height="12.3"/>
			<line class="st7" x1="189.2" y1="77" x2="189.2" y2="85.6"/>
			<line class="st7" x1="193.3" y1="77" x2="193.3" y2="85.6"/>
			<line class="st7" x1="191.2" y1="77" x2="191.2" y2="85.6"/>
		</g>
		<g>
			<rect x="205" y="75.4" class="st6" width="7.7" height="12.3"/>
			<line class="st7" x1="206.8" y1="77" x2="206.8" y2="85.6"/>
			<line class="st7" x1="210.9" y1="77" x2="210.9" y2="85.6"/>
			<line class="st7" x1="208.9" y1="77" x2="208.9" y2="85.6"/>
		</g>
		<g>
			<rect x="222.7" y="75.4" class="st6" width="7.7" height="12.3"/>
			<line class="st7" x1="224.5" y1="77" x2="224.5" y2="85.6"/>
			<line class="st7" x1="228.5" y1="77" x2="228.5" y2="85.6"/>
			<line class="st7" x1="226.5" y1="77" x2="226.5" y2="85.6"/>
		</g>
		<g>
			<rect x="240.3" y="75.4" class="st6" width="7.7" height="12.3"/>
			<line class="st7" x1="242.1" y1="77" x2="242.1" y2="85.6"/>
			<line class="st7" x1="246.2" y1="77" x2="246.2" y2="85.6"/>
			<line class="st7" x1="244.2" y1="77" x2="244.2" y2="85.6"/>
		</g>
		<g>
			<rect x="258" y="75.4" class="st6" width="7.7" height="12.3"/>
			<line class="st7" x1="259.8" y1="77" x2="259.8" y2="85.6"/>
			<line class="st7" x1="263.8" y1="77" x2="263.8" y2="85.6"/>
			<line class="st7" x1="261.8" y1="77" x2="261.8" y2="85.6"/>
		</g>
		<g>
			<rect x="275.6" y="75.4" class="st6" width="7.7" height="12.3"/>
			<line class="st7" x1="277.4" y1="77" x2="277.4" y2="85.6"/>
			<line class="st7" x1="281.5" y1="77" x2="281.5" y2="85.6"/>
			<line class="st7" x1="279.5" y1="77" x2="279.5" y2="85.6"/>
		</g>
	</g>
	<g>
		<path class="st8" d="M395,250.7c-7.1-0.3-27.2,0.5-27.2,0.5s-4.4-7.6-2.1-12.6c2.3-5,4.8,4.6,4.8,4.6s-1.8-9.2,0.7-14.5
			c2.5-5.4,4.5,8.2,4.5,8.2s0.6-9.8,4.4-7.9c3.8,1.8,1.7,11.6,1.7,11.6s2.2-15,6.5-13c4.4,2,2.4,12.2,2.4,12.2s2.8-8.4,5.5-6.9
			c2.7,1.5-1.6,9.4-1.6,9.4s6.4-5.6,4.7,1.6C399.3,243.9,397.1,250.8,395,250.7z"/>
		<polyline class="st9" points="386.3,249.6 386.8,246.6 386.3,240.9 387.7,234.5 		"/>
		<polyline class="st9" points="376.8,249.6 375.5,242 374.8,237.8 		"/>
		<line class="st9" x1="377.8" y1="240" x2="375.5" y2="242"/>
		<line class="st9" x1="376.2" y1="245.9" x2="372.8" y2="245.3"/>
		<line class="st9" x1="386.4" y1="242.6" x2="384.1" y2="244"/>
		<line class="st9" x1="387.1" y1="237.3" x2="385.7" y2="235.5"/>
		<line class="st9" x1="386.6" y1="247.8" x2="388.2" y2="247.8"/>
		<polyline class="st9" points="381.5,249.6 381.1,246.4 381.1,244.5 381.1,242.6 		"/>
		<line class="st9" x1="378.9" y1="244" x2="381.1" y2="244.5"/>
		<polyline class="st9" points="392.8,249.6 392.8,245.6 393.1,241 393.7,238.1 		"/>
		<line class="st9" x1="390.9" y1="241.4" x2="393" y2="242.6"/>
		<line class="st9" x1="394.3" y1="245.9" x2="392.8" y2="247.8"/>
		<line class="st9" x1="393.4" y1="239.3" x2="395.5" y2="237.8"/>
		<polyline class="st9" points="370,249.5 370,247.4 368.1,244 		"/>
		<line class="st9" x1="370" y1="244.5" x2="369" y2="245.6"/>
	</g>
	<polygon class="st10" points="0,76 110.7,76 77.8,112.2 76.1,138.3 73.6,156.4 74.4,178.6 96.2,183.6 125.6,189.6 139.9,197.7 
		311.2,197.7 328.9,203.7 339.3,233.9 364.6,249.5 415.6,249.7 426,233.9 426,301.1 0,301.1 	"/>
	<path class="st11" d="M91.2,61c-1.1,0-2.1,0.2-3,0.6c0-0.3,0-0.5,0-0.8c0-4.1-3.3-7.5-7.5-7.5c-0.7,0-1.3,0.1-1.9,0.3
		c-1.2-2.4-3.7-4.1-6.6-4.1c-2.9,0-5.4,1.6-6.6,4c-0.5-0.1-1.1-0.2-1.6-0.2c-4.1,0-7.5,3.3-7.5,7.5c0,0.1,0,0.2,0,0.3
		c-0.4-0.1-0.7-0.1-1.1-0.1c-4.1,0-7.5,3.3-7.5,7.5c0,4.1,3.3,7.5,7.5,7.5h35.7c4.1,0,7.5-3.3,7.5-7.5C98.6,64.4,95.3,61,91.2,61z"
		/>
	<g>
		<polyline class="st12" points="72,76 72,72.7 72,68.1 72,63.9 72,54.3 		"/>
		<path class="st13" d="M71.9,76c-0.2-0.1-0.1-0.5-0.1-0.7c0,0,0-0.7,0-0.7c0-6.6,0-13.7,0.1-20.3c0-0.2,0.3-0.2,0.3,0
			c0.1,6.6,0.1,13.7,0.1,20.3c0,0.2,0,0.8,0,1C72.3,75.8,72.1,76.1,71.9,76L71.9,76z"/>
	</g>
	<g>
		<path class="st13" d="M59.1,70.7l13,1.7l-0.1,0l6.3-2.9c0.1-0.1,0.2,0.2,0.1,0.2c0,0-6.2,3.1-6.2,3.1c0,0-0.1,0-0.1,0L59,71
			C58.9,70.9,58.9,70.7,59.1,70.7L59.1,70.7z"/>
	</g>
	<g>
		<path class="st13" d="M82.7,59.9c-1.8,1.4-6.2,5-7.9,6.4c0,0-1.3,1.1-1.3,1.1c-0.4,0.3-0.9,0.8-1.4,1c-0.1,0-0.2,0-0.2-0.1
			c0-0.4,0.4-0.5,0.6-0.8c1.2-0.9,3.4-2.7,4.7-3.7c0,0,5.3-4.2,5.3-4.2C82.7,59.4,82.9,59.7,82.7,59.9L82.7,59.9z"/>
	</g>
	<g>
		<path class="st13" d="M71.9,64.1c-0.2,0.1-0.9-0.4-1.2-0.5c0,0-1.1-0.6-1.1-0.6c-2.2-1.1-4.6-2.3-6.8-3.5c-0.1,0-0.1-0.1-0.1-0.2
			c0-0.1,0.1-0.1,0.2-0.1c1.5,0.7,3.1,1.5,4.6,2.2c0.8,0.4,2.7,1.3,3.4,1.7c0,0,0.6,0.3,0.6,0.3c0.2,0.1,0.4,0.1,0.5,0.4
			C72.2,63.9,72.1,64.1,71.9,64.1L71.9,64.1z"/>
	</g>
	<line class="st14" x1="72" y1="58.2" x2="75.9" y2="56.4"/>
	<polyline class="st15" points="79.8,109.9 69.5,104.5 69.5,96.1 60.8,85.6 	"/>
	<line class="st15" x1="75.8" y1="140.7" x2="68.9" y2="142.9"/>
	<polyline class="st15" points="73.8,154.9 47.8,134.2 34.7,128.8 	"/>
	<polyline class="st15" points="0,112.3 5.2,127.9 16.9,103.4 	"/>
	<polyline class="st15" points="54.2,203.9 49.5,232.1 55.6,242.4 75.8,252.3 54.2,265.7 	"/>
	<polyline class="st15" points="96.2,183.6 98.6,199 98.6,217.3 108.5,219 112,234.8 	"/>
	<polyline class="st15" points="252,275.5 244.2,251.6 207.7,243.8 191.1,228.9 	"/>
	<polyline class="st15" points="149.4,301.1 139.5,292.9 139.5,280.3 	"/>
	<polyline class="st2" points="0,301.1 8.4,290.7 8.4,258.2 	"/>
	<polyline class="st15" points="391.9,249.6 382.4,258.2 382.4,275.5 406.9,285.7 	"/>
	<line class="st2" x1="426" y1="262.4" x2="416.4" y2="262.4"/>
	<polyline class="st15" points="323,201.7 319.6,212.1 323,258.2 301,295.2 	"/>
	<polyline class="st15" points="267.1,290.7 281.5,267.6 281.5,223.7 258.1,213.2 221.5,201.7 229.6,197.7 	"/>
	<path class="st16" d="M162.6,30.4c-3.9-8.1-14.6-4.6-14.6-4.6c10.5,0.2,14.6,6.6,14.6,6.6s4-6.5,14.6-6.6
		C177.2,25.8,166.6,22.4,162.6,30.4z"/>
	<path class="st16" d="M338.6,47.7c-7.9-16.2-29.3-9.2-29.3-9.2c21.2,0.3,29.3,13.3,29.3,13.3s8.1-13,29.3-13.3
		C367.9,38.5,346.6,31.5,338.6,47.7z"/>
	<path class="st16" d="M393.6,18.4c-4.5-9.2-16.7-5.2-16.7-5.2c12.1,0.2,16.7,7.6,16.7,7.6s4.6-7.4,16.7-7.6
		C410.4,13.2,398.2,9.2,393.6,18.4z"/>
	<path class="st16" d="M2.4,31.5c-0.7-1.4-1.5-2.6-2.4-3.6v4.2c1.6,1.6,2.4,2.8,2.4,2.8s6.7-10.7,24.1-11
		C26.5,23.9,8.9,18.2,2.4,31.5z"/>
	<path class="st15" d="M28,76c0,0-7.1,8.2-5.4,19.1s5.6,24.5-1.6,38"/>
	<path class="st15" d="M23,49"/>
	<g>
		<polygon class="st17" points="26.3,78.9 25.9,80 25.8,80.7 26,81.4 26.4,82.3 26.8,82.7 27.4,83.1 27.9,83.5 28.2,83.6 		"/>
		<path class="st18" d="M26.3,78.9c0,0,1,3.2,1.9,4.7l0-1.1l0.1-1l-0.1-1l-0.3-0.7l-0.5-0.5L26.7,79L26.3,78.9z"/>
		<path class="st15" d="M26.3,78.9c0,0,2.2,0.5,2,2.5c-0.2,2-0.1,2.2-0.1,2.2S24.6,82.2,26.3,78.9z"/>
		<path class="st15" d="M29.5,82.6"/>
	</g>
	<g>
		<polygon class="st17" points="23.2,84.8 22.7,85.9 22.3,86.4 21.6,86.9 20.8,87.2 20.2,87.3 19.5,87.2 18.8,87 18.5,86.9 		"/>
		<path class="st18" d="M23.2,84.8c0,0-2.9,1.6-4.7,2.1l0.7-0.8l0.6-0.8l0.7-0.7l0.7-0.3l0.7,0l0.8,0.2L23.2,84.8z"/>
		<path class="st15" d="M23.2,84.8c0,0-1.9-1.1-3.2,0.4c-1.2,1.6-1.5,1.7-1.5,1.7S22.2,88.4,23.2,84.8z"/>
		<path class="st15" d="M18.3,85.3"/>
	</g>
	<g>
		<polygon class="st17" points="22.8,97.4 22.4,98.4 21.9,99 21.3,99.4 20.4,99.8 19.8,99.8 19.1,99.7 18.5,99.6 18.2,99.5 		"/>
		<path class="st18" d="M22.8,97.4c0,0-2.9,1.6-4.7,2.1l0.7-0.8l0.6-0.8l0.7-0.7L21,97l0.7,0l0.8,0.2L22.8,97.4z"/>
		<path class="st15" d="M22.8,97.4c0,0-1.9-1.1-3.2,0.4c-1.2,1.6-1.5,1.7-1.5,1.7S21.8,100.9,22.8,97.4z"/>
		<path class="st15" d="M17.9,97.9"/>
	</g>
	<g>
		<polygon class="st17" points="24.5,109.3 24,110.4 23.5,110.9 22.8,111.3 22,111.7 21.4,111.7 20.7,111.5 20,111.4 19.8,111.3 		
			"/>
		<path class="st18" d="M24.5,109.3c0,0-2.9,1.5-4.7,1.9l0.8-0.8l0.6-0.7l0.8-0.7l0.7-0.2l0.7,0l0.8,0.2L24.5,109.3z"/>
		<path class="st15" d="M24.5,109.3c0,0-1.9-1.2-3.2,0.3c-1.3,1.5-1.5,1.6-1.5,1.6S23.3,112.9,24.5,109.3z"/>
		<path class="st15" d="M19.6,109.7"/>
	</g>
	<g>
		<polygon class="st17" points="24.7,120.5 23.8,121.2 23.2,121.5 22.4,121.6 21.5,121.6 20.9,121.4 20.3,121 19.8,120.6 
			19.6,120.4 		"/>
		<path class="st18" d="M24.7,120.5c0,0-3.3,0.2-5.1-0.1l1-0.4l0.9-0.4l1-0.3l0.7,0.1l0.7,0.3l0.6,0.5L24.7,120.5z"/>
		<path class="st15" d="M24.7,120.5c0,0-1.3-1.9-3.1-1c-1.8,0.9-2.1,0.9-2.1,0.9S22.2,123.3,24.7,120.5z"/>
		<path class="st15" d="M20.1,118.8"/>
	</g>
	<g>
		<polygon class="st17" points="22.4,129.5 21.4,130.1 20.7,130.3 19.9,130.2 19,130 18.5,129.6 18,129.1 17.6,128.6 17.4,128.3 		
			"/>
		<path class="st18" d="M22.4,129.5c0,0-3.3-0.5-5-1.2l1.1-0.2l0.9-0.2l1-0.1l0.7,0.2l0.6,0.4l0.5,0.6L22.4,129.5z"/>
		<path class="st15" d="M22.4,129.5c0,0-0.8-2.1-2.8-1.6c-2,0.5-2.2,0.4-2.2,0.4S19.4,131.7,22.4,129.5z"/>
		<path class="st15" d="M18.2,126.9"/>
	</g>
	<g>
		<polygon class="st17" points="22.5,89.8 22.6,90.9 22.9,91.6 23.4,92.2 24.1,92.8 24.6,93.1 25.3,93.2 26,93.3 26.3,93.3 		"/>
		<path class="st18" d="M22.5,89.8c0,0,2.2,2.4,3.8,3.5l-0.5-1l-0.3-0.9L25,90.5L24.4,90l-0.7-0.2l-0.8,0L22.5,89.8z"/>
		<path class="st15" d="M22.5,89.8c0,0,2.2-0.5,2.9,1.4c0.7,1.9,0.9,2.1,0.9,2.1S22.4,93.5,22.5,89.8z"/>
		<path class="st15" d="M27,91.8"/>
	</g>
	<g>
		<polygon class="st17" points="23.9,101.9 24.4,102.9 24.8,103.5 25.5,103.8 26.4,104.2 27,104.2 27.7,104 28.3,103.9 28.6,103.7 
					"/>
		<path class="st18" d="M23.9,101.9c0,0,3,1.5,4.8,1.9l-0.8-0.8l-0.7-0.7l-0.8-0.6l-0.7-0.2l-0.7,0l-0.8,0.2L23.9,101.9z"/>
		<path class="st15" d="M23.9,101.9c0,0,1.9-1.3,3.2,0.3s1.6,1.6,1.6,1.6S25.1,105.4,23.9,101.9z"/>
		<path class="st15" d="M28.8,102.1"/>
	</g>
	<g>
		<polygon class="st17" points="25.3,113.9 25.5,115.1 25.8,115.7 26.3,116.3 27.1,116.8 27.7,117 28.4,117 29,117.1 29.3,117 		"/>
		<path class="st18" d="M25.3,113.9c0,0,2.5,2.2,4.1,3.1l-0.6-0.9l-0.4-0.9l-0.6-0.8l-0.6-0.4l-0.7-0.2l-0.8,0L25.3,113.9z"/>
		<path class="st15" d="M25.3,113.9c0,0,2.2-0.7,3,1.1c0.9,1.8,1.1,2,1.1,2S25.5,117.6,25.3,113.9z"/>
		<path class="st15" d="M29.9,115.5"/>
	</g>
	<g>
		<polygon class="st17" points="24.1,125.2 24.3,126.3 24.6,127 25.2,127.5 25.9,128.1 26.5,128.3 27.2,128.3 27.9,128.3 
			28.2,128.3 		"/>
		<path class="st18" d="M24.1,125.2c0,0,2.5,2.2,4.1,3.1l-0.6-0.9l-0.4-0.9l-0.6-0.8l-0.6-0.4l-0.7-0.2l-0.8,0L24.1,125.2z"/>
		<path class="st15" d="M24.1,125.2c0,0,2.2-0.7,3,1.1c0.9,1.8,1.1,2,1.1,2S24.3,128.9,24.1,125.2z"/>
		<path class="st15" d="M28.8,126.8"/>
	</g>
	<g>
		<polygon class="st17" points="21.5,132.4 21.7,133.5 22,134.2 22.6,134.7 23.3,135.3 23.9,135.4 24.6,135.5 25.3,135.5 
			25.6,135.5 		"/>
		<path class="st18" d="M21.5,132.4c0,0,2.5,2.2,4.1,3.1l-0.6-0.9l-0.4-0.9l-0.6-0.8l-0.6-0.4l-0.7-0.2l-0.8,0L21.5,132.4z"/>
		<path class="st15" d="M21.5,132.4c0,0,2.2-0.7,3,1.1s1.1,2,1.1,2S21.7,136.1,21.5,132.4z"/>
		<path class="st15" d="M26.2,134"/>
	</g>
	<path class="st15" d="M104.2,83.1c0,0-7.8,15.4-3.7,29.2c3.1,10.5,5.6,24.5-1.6,38"/>
	<g>
		<polygon class="st17" points="99.6,99.3 100.1,100.3 100.6,100.9 101.2,101.3 102.1,101.7 102.7,101.7 103.4,101.6 104.1,101.4 
			104.3,101.3 		"/>
		<path class="st18" d="M99.6,99.3c0,0,2.9,1.6,4.7,2.1l-0.8-0.8l-0.6-0.7l-0.7-0.7l-0.7-0.2l-0.7,0l-0.8,0.2L99.6,99.3z"/>
		<path class="st15" d="M99.6,99.3c0,0,1.9-1.2,3.2,0.4c1.3,1.6,1.5,1.7,1.5,1.7S100.7,102.8,99.6,99.3z"/>
		<path class="st15" d="M104.5,99.7"/>
	</g>
	<g>
		<polygon class="st17" points="101.3,92 101.5,93.1 101.8,93.8 102.4,94.4 103.1,94.9 103.7,95.1 104.4,95.1 105.1,95.1 
			105.4,95.1 		"/>
		<path class="st18" d="M101.3,92c0,0,2.5,2.2,4.1,3.1l-0.6-0.9l-0.4-0.9l-0.6-0.8l-0.6-0.4l-0.7-0.2l-0.8,0L101.3,92z"/>
		<path class="st15" d="M101.3,92c0,0,2.1-0.7,3,1.1s1.1,2,1.1,2S101.5,95.7,101.3,92z"/>
		<path class="st15" d="M106,93.6"/>
	</g>
	<g>
		<polygon class="st17" points="103.1,86.1 103.2,87.2 103.5,87.9 103.9,88.5 104.6,89.1 105.2,89.4 105.9,89.5 106.5,89.6 
			106.8,89.6 		"/>
		<path class="st18" d="M103.1,86.1c0,0,2.2,2.5,3.7,3.5l-0.4-1l-0.3-0.9l-0.5-0.9l-0.6-0.5l-0.7-0.2l-0.8-0.1L103.1,86.1z"/>
		<path class="st15" d="M103.1,86.1c0,0,2.2-0.5,2.9,1.5s0.8,2.1,0.8,2.1S102.9,89.8,103.1,86.1z"/>
		<path class="st15" d="M107.6,88.1"/>
	</g>
	<g>
		<polygon class="st17" points="99.1,104.1 98.6,105.1 98.2,105.7 97.5,106.1 96.7,106.5 96.1,106.6 95.4,106.4 94.7,106.3 
			94.4,106.2 		"/>
		<path class="st18" d="M99.1,104.1c0,0-2.9,1.6-4.7,2.1l0.7-0.8l0.6-0.8l0.7-0.7l0.7-0.3l0.7,0l0.8,0.2L99.1,104.1z"/>
		<path class="st15" d="M99.1,104.1c0,0-1.9-1.1-3.2,0.4c-1.2,1.6-1.5,1.7-1.5,1.7S98.1,107.7,99.1,104.1z"/>
		<path class="st15" d="M94.2,104.6"/>
	</g>
	<g>
		<polygon class="st17" points="99.9,96.3 99.3,97.2 98.8,97.7 98.1,98.1 97.2,98.3 96.6,98.3 95.9,98.1 95.3,97.8 95,97.7 		"/>
		<path class="st18" d="M99.9,96.3c0,0-3.1,1.2-4.9,1.5l0.9-0.7l0.7-0.7l0.8-0.6l0.7-0.2l0.7,0.1l0.7,0.3L99.9,96.3z"/>
		<path class="st15" d="M99.9,96.3c0,0-1.8-1.4-3.2,0c-1.5,1.4-1.7,1.5-1.7,1.5S98.4,99.6,99.9,96.3z"/>
		<path class="st15" d="M95,96.1"/>
	</g>
	<g>
		<polygon class="st17" points="101.2,114.9 100.7,115.9 100.3,116.5 99.6,116.9 98.8,117.3 98.2,117.3 97.5,117.2 96.8,117.1 
			96.5,117 		"/>
		<path class="st18" d="M101.2,114.9c0,0-2.9,1.6-4.7,2.1l0.7-0.8l0.6-0.8l0.7-0.7l0.7-0.3l0.7,0l0.8,0.2L101.2,114.9z"/>
		<path class="st15" d="M101.2,114.9c0,0-1.9-1.1-3.2,0.4c-1.2,1.6-1.5,1.7-1.5,1.7S100.2,118.4,101.2,114.9z"/>
		<path class="st15" d="M96.3,115.4"/>
	</g>
	<g>
		<polygon class="st17" points="103.2,126.4 102.7,127.5 102.2,128 101.5,128.4 100.7,128.8 100.1,128.8 99.4,128.6 98.7,128.5 
			98.4,128.4 		"/>
		<path class="st18" d="M103.2,126.4c0,0-2.9,1.5-4.7,1.9l0.8-0.8l0.6-0.7l0.8-0.7l0.7-0.2l0.7,0l0.8,0.2L103.2,126.4z"/>
		<path class="st15" d="M103.2,126.4c0,0-1.9-1.2-3.2,0.3c-1.3,1.5-1.5,1.6-1.5,1.6S102,130,103.2,126.4z"/>
		<path class="st15" d="M98.3,126.8"/>
	</g>
	<g>
		<polygon class="st17" points="102.9,137.4 102,138.2 101.3,138.5 100.6,138.6 99.6,138.5 99.1,138.3 98.5,137.9 98,137.5 
			97.7,137.3 		"/>
		<path class="st18" d="M102.9,137.4c0,0-3.3,0.2-5.1-0.1l1-0.4l0.9-0.4l1-0.3l0.7,0.1l0.7,0.3l0.6,0.5L102.9,137.4z"/>
		<path class="st15" d="M102.9,137.4c0,0-1.3-1.9-3.1-1c-1.8,0.9-2.1,0.9-2.1,0.9S100.4,140.2,102.9,137.4z"/>
		<path class="st15" d="M98.2,135.8"/>
	</g>
	<g>
		<polygon class="st17" points="100.6,146.3 99.6,146.8 98.9,147 98.1,146.9 97.2,146.7 96.7,146.3 96.3,145.8 95.8,145.3 95.6,145 
					"/>
		<path class="st18" d="M100.6,146.3c0,0-3.3-0.5-5-1.2l1.1-0.2l0.9-0.2l1-0.1l0.7,0.2l0.6,0.4l0.5,0.6L100.6,146.3z"/>
		<path class="st15" d="M100.6,146.3c0,0-0.8-2.1-2.8-1.6c-2,0.5-2.2,0.4-2.2,0.4S97.6,148.4,100.6,146.3z"/>
		<path class="st15" d="M96.5,143.7"/>
	</g>
	<g>
		<polygon class="st17" points="99.8,108.6 100.3,109.7 100.8,110.2 101.4,110.6 102.3,111 102.9,111 103.6,110.9 104.2,110.8 
			104.5,110.7 		"/>
		<path class="st18" d="M99.8,108.6c0,0,2.9,1.6,4.7,2l-0.8-0.8l-0.6-0.7l-0.7-0.7l-0.7-0.2l-0.7,0l-0.8,0.2L99.8,108.6z"/>
		<path class="st15" d="M99.8,108.6c0,0,1.9-1.2,3.2,0.4s1.5,1.7,1.5,1.7S100.9,112.2,99.8,108.6z"/>
		<path class="st15" d="M104.7,109.1"/>
	</g>
	<g>
		<polygon class="st17" points="102.5,119.9 103,120.9 103.5,121.5 104.2,121.9 105.1,122.2 105.6,122.2 106.3,122 107,121.9 
			107.3,121.8 		"/>
		<path class="st18" d="M102.5,119.9c0,0,3,1.5,4.8,1.9l-0.8-0.8l-0.7-0.7l-0.8-0.6l-0.7-0.2l-0.7,0l-0.8,0.2L102.5,119.9z"/>
		<path class="st15" d="M102.5,119.9c0,0,1.9-1.3,3.2,0.3c1.3,1.5,1.6,1.6,1.6,1.6S103.7,123.4,102.5,119.9z"/>
		<path class="st15" d="M107.4,120.2"/>
	</g>
	<g>
		<polygon class="st17" points="103.8,131.8 104,132.9 104.3,133.5 104.8,134.1 105.6,134.7 106.2,134.8 106.9,134.9 107.6,134.9 
			107.9,134.9 		"/>
		<path class="st18" d="M103.8,131.8c0,0,2.5,2.2,4.1,3.1l-0.6-0.9l-0.4-0.9l-0.6-0.8l-0.6-0.4l-0.7-0.2l-0.8,0L103.8,131.8z"/>
		<path class="st15" d="M103.8,131.8c0,0,2.2-0.7,3,1.1c0.9,1.8,1.1,2,1.1,2S104,135.5,103.8,131.8z"/>
		<path class="st15" d="M108.4,133.4"/>
	</g>
	<g>
		<polygon class="st17" points="102.3,142.5 102.5,143.6 102.8,144.2 103.4,144.8 104.1,145.3 104.7,145.5 105.4,145.6 106.1,145.6 
			106.4,145.6 		"/>
		<path class="st18" d="M102.3,142.5c0,0,2.5,2.2,4.1,3.1l-0.6-0.9l-0.4-0.9l-0.6-0.8l-0.6-0.4l-0.7-0.2l-0.8,0L102.3,142.5z"/>
		<path class="st15" d="M102.3,142.5c0,0,2.2-0.7,3,1.1c0.9,1.8,1.1,2,1.1,2S102.5,146.2,102.3,142.5z"/>
		<path class="st15" d="M107,144"/>
	</g>
	<g>
		<polygon class="st17" points="99.4,149.7 99.6,150.8 99.9,151.4 100.5,152 101.2,152.5 101.8,152.7 102.5,152.7 103.2,152.8 
			103.5,152.8 		"/>
		<path class="st18" d="M99.4,149.7c0,0,2.5,2.2,4.1,3.1l-0.6-0.9l-0.4-0.9l-0.6-0.8l-0.6-0.4l-0.7-0.2l-0.8,0L99.4,149.7z"/>
		<path class="st15" d="M99.4,149.7c0,0,2.2-0.7,3,1.1s1.1,2,1.1,2S99.6,153.4,99.4,149.7z"/>
		<path class="st15" d="M104.1,151.2"/>
	</g>
	<path class="st15" d="M82,180.4c0,0-7.1,8.2-5.4,19.1c1.6,10.9,2.8,9.2,1.3,18"/>
	<g>
		<polygon class="st17" points="80.3,183.3 79.9,184.4 79.8,185.1 80,185.9 80.4,186.7 80.8,187.2 81.4,187.5 81.9,187.9 82.2,188 
					"/>
		<path class="st18" d="M80.3,183.3c0,0,1,3.2,1.9,4.7l0-1.1l0.1-1l-0.1-1l-0.3-0.7l-0.5-0.5l-0.7-0.4L80.3,183.3z"/>
		<path class="st15" d="M80.3,183.3c0,0,2.2,0.5,2,2.5c-0.2,2-0.1,2.2-0.1,2.2S78.6,186.6,80.3,183.3z"/>
		<path class="st15" d="M83.5,187"/>
	</g>
	<g>
		<polygon class="st17" points="77.2,189.2 76.7,190.3 76.3,190.9 75.6,191.3 74.8,191.7 74.2,191.7 73.5,191.6 72.8,191.5 
			72.5,191.4 		"/>
		<path class="st18" d="M77.2,189.2c0,0-2.9,1.6-4.7,2.1l0.7-0.8l0.6-0.8l0.7-0.7l0.7-0.3l0.7,0l0.8,0.2L77.2,189.2z"/>
		<path class="st15" d="M77.2,189.2c0,0-1.9-1.1-3.2,0.4c-1.2,1.6-1.5,1.7-1.5,1.7S76.2,192.8,77.2,189.2z"/>
		<path class="st15" d="M72.3,189.8"/>
	</g>
	<g>
		<polygon class="st17" points="76.8,201.8 76.4,202.9 75.9,203.4 75.3,203.9 74.4,204.2 73.8,204.3 73.1,204.1 72.4,204 
			72.2,203.9 		"/>
		<path class="st18" d="M76.8,201.8c0,0-2.9,1.6-4.7,2.1l0.7-0.8l0.6-0.8l0.7-0.7l0.7-0.3l0.7,0l0.8,0.2L76.8,201.8z"/>
		<path class="st15" d="M76.8,201.8c0,0-1.9-1.1-3.2,0.4c-1.2,1.6-1.5,1.7-1.5,1.7S75.8,205.4,76.8,201.8z"/>
		<path class="st15" d="M71.9,202.3"/>
	</g>
	<g>
		<polygon class="st17" points="78.2,213.2 77.7,214.2 77.2,214.8 76.6,215.2 75.7,215.5 75.1,215.5 74.4,215.4 73.7,215.2 
			73.5,215.1 		"/>
		<path class="st18" d="M78.2,213.2c0,0-2.9,1.5-4.7,1.9l0.8-0.8l0.6-0.7l0.8-0.7l0.7-0.2l0.7,0l0.8,0.2L78.2,213.2z"/>
		<path class="st15" d="M78.2,213.2c0,0-1.9-1.2-3.2,0.3c-1.3,1.5-1.5,1.6-1.5,1.6S77,216.7,78.2,213.2z"/>
		<path class="st15" d="M73.3,213.5"/>
	</g>
	<g>
		<polygon class="st17" points="76.5,194.2 76.6,195.4 76.9,196 77.4,196.7 78.1,197.3 78.6,197.5 79.3,197.6 80,197.7 80.3,197.7 
					"/>
		<path class="st18" d="M76.5,194.2c0,0,2.2,2.4,3.8,3.5l-0.5-1l-0.3-0.9l-0.5-0.9l-0.6-0.5l-0.7-0.2l-0.8,0L76.5,194.2z"/>
		<path class="st15" d="M76.5,194.2c0,0,2.2-0.5,2.9,1.4c0.7,1.9,0.9,2.1,0.9,2.1S76.4,197.9,76.5,194.2z"/>
		<path class="st15" d="M81,196.3"/>
	</g>
	<g>
		<polygon class="st17" points="77.8,206.3 78.4,207.3 78.8,207.9 79.5,208.3 80.4,208.6 81,208.6 81.7,208.4 82.3,208.3 
			82.6,208.2 		"/>
		<path class="st18" d="M77.8,206.3c0,0,3,1.5,4.8,1.9l-0.8-0.8l-0.7-0.7l-0.8-0.6l-0.7-0.2l-0.7,0l-0.8,0.2L77.8,206.3z"/>
		<path class="st15" d="M77.8,206.3c0,0,1.9-1.3,3.2,0.3c1.3,1.5,1.6,1.6,1.6,1.6S79.1,209.8,77.8,206.3z"/>
		<path class="st15" d="M82.7,206.6"/>
	</g>
	<path class="st15" d="M352.8,242.6c0,0-7.1,8.2-5.4,19.1c1.6,10.9,2.8,13.2-4.7,26.8"/>
	<g>
		<polygon class="st17" points="351,245.4 350.6,246.5 350.6,247.2 350.8,248 351.1,248.8 351.5,249.3 352.1,249.7 352.7,250 
			353,250.2 		"/>
		<path class="st18" d="M351,245.4c0,0,1,3.2,1.9,4.7l0-1.1l0.1-1l-0.1-1l-0.3-0.7l-0.5-0.5l-0.7-0.4L351,245.4z"/>
		<path class="st15" d="M351,245.4c0,0,2.2,0.5,2,2.5s-0.1,2.2-0.1,2.2S349.3,248.7,351,245.4z"/>
		<path class="st15" d="M354.2,249.2"/>
	</g>
	<g>
		<polygon class="st17" points="347.9,251.4 347.5,252.4 347,253 346.4,253.4 345.5,253.8 344.9,253.8 344.2,253.7 343.6,253.6 
			343.3,253.5 		"/>
		<path class="st18" d="M347.9,251.4c0,0-2.9,1.6-4.7,2.1l0.7-0.8l0.6-0.8l0.7-0.7l0.7-0.3l0.7,0l0.8,0.2L347.9,251.4z"/>
		<path class="st15" d="M347.9,251.4c0,0-1.9-1.1-3.2,0.4s-1.5,1.7-1.5,1.7S346.9,255,347.9,251.4z"/>
		<path class="st15" d="M343.1,251.9"/>
	</g>
	<g>
		<polygon class="st17" points="347.6,263.9 347.1,265 346.7,265.6 346,266 345.2,266.4 344.6,266.4 343.9,266.3 343.2,266.2 
			342.9,266.1 		"/>
		<path class="st18" d="M347.6,263.9c0,0-2.9,1.6-4.7,2.1l0.7-0.8l0.6-0.8l0.7-0.7l0.7-0.3l0.7,0l0.8,0.2L347.6,263.9z"/>
		<path class="st15" d="M347.6,263.9c0,0-1.9-1.1-3.2,0.4s-1.5,1.7-1.5,1.7S346.6,267.5,347.6,263.9z"/>
		<path class="st15" d="M342.7,264.5"/>
	</g>
	<g>
		<polygon class="st17" points="348.2,274.5 347.7,275.5 347.1,276.1 346.4,276.4 345.6,276.7 345,276.7 344.3,276.5 343.6,276.3 
			343.4,276.2 		"/>
		<path class="st18" d="M348.2,274.5c0,0-3,1.3-4.9,1.6l0.8-0.7l0.7-0.7l0.8-0.6l0.7-0.2l0.7,0.1l0.7,0.3L348.2,274.5z"/>
		<path class="st15" d="M348.2,274.5c0,0-1.8-1.4-3.2,0.1s-1.6,1.5-1.6,1.5S346.8,278,348.2,274.5z"/>
		<path class="st15" d="M343.3,274.5"/>
	</g>
	<g>
		<polygon class="st17" points="345.2,283.1 344.7,284.1 344.2,284.6 343.6,285 342.7,285.4 342.1,285.4 341.4,285.2 340.7,285.1 
			340.5,285 		"/>
		<path class="st18" d="M345.2,283.1c0,0-3,1.5-4.8,1.9l0.8-0.8l0.6-0.7l0.8-0.7l0.7-0.2l0.7,0l0.8,0.2L345.2,283.1z"/>
		<path class="st15" d="M345.2,283.1c0,0-1.9-1.2-3.2,0.3c-1.3,1.5-1.5,1.6-1.5,1.6S344,286.6,345.2,283.1z"/>
		<path class="st15" d="M340.3,283.4"/>
	</g>
	<g>
		<polygon class="st17" points="347.3,256.4 347.4,257.5 347.6,258.2 348.1,258.8 348.8,259.4 349.4,259.6 350.1,259.7 350.8,259.8 
			351.1,259.8 		"/>
		<path class="st18" d="M347.3,256.4c0,0,2.2,2.4,3.8,3.5l-0.5-1l-0.3-0.9l-0.5-0.9l-0.6-0.5l-0.7-0.2l-0.8,0L347.3,256.4z"/>
		<path class="st15" d="M347.3,256.4c0,0,2.2-0.5,2.9,1.4c0.7,1.9,0.9,2.1,0.9,2.1S347.1,260.1,347.3,256.4z"/>
		<path class="st15" d="M351.8,258.4"/>
	</g>
	<g>
		<polygon class="st17" points="348.6,268.5 349.1,269.5 349.6,270 350.3,270.4 351.1,270.7 351.7,270.7 352.4,270.6 353.1,270.4 
			353.4,270.3 		"/>
		<path class="st18" d="M348.6,268.5c0,0,3,1.5,4.8,1.9l-0.8-0.8l-0.7-0.7l-0.8-0.6l-0.7-0.2l-0.7,0l-0.8,0.2L348.6,268.5z"/>
		<path class="st15" d="M348.6,268.5c0,0,1.9-1.3,3.2,0.3c1.3,1.5,1.6,1.6,1.6,1.6S349.8,272,348.6,268.5z"/>
		<path class="st15" d="M353.5,268.7"/>
	</g>
	<g>
		<polygon class="st17" points="347.1,279.7 347.3,280.8 347.5,281.5 348,282.1 348.8,282.7 349.3,282.9 350,283 350.7,283.1 
			351,283.1 		"/>
		<path class="st18" d="M347.1,279.7c0,0,2.3,2.4,3.9,3.4l-0.5-1l-0.4-0.9l-0.5-0.9l-0.6-0.4l-0.7-0.2l-0.8,0L347.1,279.7z"/>
		<path class="st15" d="M347.1,279.7c0,0,2.2-0.5,2.9,1.3c0.7,1.9,0.9,2,0.9,2S347.1,283.4,347.1,279.7z"/>
		<path class="st15" d="M351.7,281.6"/>
	</g>
	<path class="st1" d="M426,55.1v36.8h-35c-3.3,0-6.4-1.4-8.6-3.6c-2.2-2.2-3.6-5.2-3.6-8.6c0-6.7,5.5-12.1,12.1-12.1h2.2
		c-0.2-0.9-0.3-1.9-0.3-2.8c0-7.9,6.4-14.2,14.3-14.2c5.8,0,10.7,3.4,13,8.3C421.7,57.1,423.7,55.8,426,55.1z"/>
	<polyline class="st15" points="147.5,191.2 143.7,191.2 143.7,193.2 	"/>
	<line class="st0" x1="234.1" y1="188.9" x2="264" y2="188.9"/>
	<line class="st0" x1="270.9" y1="188.9" x2="276.5" y2="188.9"/>
	<polyline class="st15" points="292.7,175.6 292.7,179.9 287.8,179.9 	"/>
	<line class="st15" x1="286.1" y1="179.9" x2="284.8" y2="179.9"/>
	<line class="st15" x1="194" y1="171.4" x2="184.4" y2="171.4"/>
	<line class="st15" x1="177.5" y1="160.4" x2="182.3" y2="160.4"/>
	<line class="st15" x1="183.5" y1="160.4" x2="185.4" y2="160.4"/>
	<polyline class="st15" points="229.6,161 229.6,162.8 231.3,162.8 	"/>
	<line class="st15" x1="234.2" y1="162.8" x2="239.2" y2="162.8"/>
	<line class="st15" x1="261.2" y1="155.8" x2="267.8" y2="155.8"/>
	<line class="st15" x1="193.4" y1="91" x2="205.4" y2="91"/>
	<line class="st15" x1="210.9" y1="91" x2="250.3" y2="91"/>
	<polyline class="st15" points="286.6,76.2 292.4,76.2 292.4,78.6 	"/>
	<line class="st15" x1="292.4" y1="79.8" x2="292.4" y2="81.4"/>
	<line class="st15" x1="200.4" y1="68.9" x2="222.6" y2="68.9"/>
	<line class="st15" x1="234.5" y1="68.9" x2="244.3" y2="68.9"/>
	<line class="st15" x1="247.3" y1="49.1" x2="258.8" y2="55.6"/>
	<polyline class="st15" points="171.5,70 166.2,72.9 173.4,72.9 	"/>
	<line class="st15" x1="176.5" y1="72.9" x2="179.7" y2="72.9"/>
	<polyline class="st15" points="213.5,84.9 213.5,86.8 218.1,86.8 	"/>
	<line class="st15" x1="178.4" y1="76.2" x2="183.6" y2="76.2"/>
	<line class="st15" x1="185.9" y1="86.7" x2="183.1" y2="86.7"/>
	<line class="st15" x1="181.6" y1="86.7" x2="180.4" y2="86.7"/>
	<polyline class="st15" points="249,80.6 249,86.5 253.4,86.5 	"/>
</g>
</svg>
