<?xml version="1.0" encoding="UTF-8"?>
<svg id="Calque_2" data-name="Calque 2" xmlns="http://www.w3.org/2000/svg" viewBox="0 0 58.84 119.2">
  <defs>
    <style>
      .cls-1 {
        fill: #09214a;
      }

      .cls-2 {
        fill: #fff;
        stroke: #fff;
        stroke-linecap: round;
        stroke-linejoin: round;
        stroke-width: .25px;
      }
    </style>
  </defs>
  <g>
    <path class="cls-2" d="m35.91,110.95h0c-6.3,2.33-12.57.15-12.98,0h0C8.59,99.05-7.39,60.59,4.84,42.42c.71-1.05,1.54-2.1,2.44-3,.56-.56,1.13-1.05,1.69-1.54,0,0,20.49,5.82,40.68,0,19.48,15.27,1.91,60.04-13.73,73.06Z"/>
    <path class="cls-2" d="m35.91,110.95c-1.46,1.2-2.44,3.08-2.44,4.92,0,.56.08,1.05.23,1.54.15.49-.08,1.05-.64,1.2-1.54.41-4.54.83-7.62,0-.49-.15-.83-.71-.56-1.2.23-.49.41-1.05.41-1.54,0-1.95-.9-3.72-2.36-4.92.41.15,6.64,2.25,12.98,0Z"/>
    <path class="cls-2" d="m16.06,10c-.41-.9-.9-1.69-1.31-2.44h0c-1.61-2.74-3.23-4.35-3.23-4.35,17.9-6.94,35.84,0,35.84,0,0,0-17.6,18.76,2.44,34.6-20.19,5.82-40.68,0-40.68,0,12.42-9.87,10.24-20.94,6.94-27.81Z"/>
    <path class="cls-2" d="m35.91,110.95h0"/>
    <path class="cls-2" d="m22.93,110.95h0"/>
    <path class="cls-2" d="m7.28,39.42c-.9.9-1.69,1.95-2.44,3C-9.76,13.49,14.15,7.75,14.75,7.68h0c.41.71.9,1.54,1.31,2.44,0-.11-20.26,4.99-8.78,29.31Z"/>
    <path class="cls-2" d="m51.56,39.42c.9.9,1.69,1.95,2.44,3,14.6-28.93-9.31-34.67-9.91-34.75h0c-.41.71-.9,1.54-1.31,2.44,0-.11,20.19,4.99,8.78,29.31Z"/>
    <path class="cls-2" d="m4.88,42.42h0"/>
  </g>
  <path class="cls-1" d="m25.59,63.78v-6.23s.45-5.27,5.43-6.87c.86-.29,1.82-.45,2.75-.35,1.31.06,3.83.06,5.14.45v5.43l-3.55.06s-2.52.06-2.91,2.68c0,.16-.06.35-.06.51v4.34h6.13l-.93,6.42h-5.14l.06,15.56h-6.93v-15.59h-5.65v-6.42h5.65Z"/>
</svg>