<?xml version="1.0" encoding="utf-8"?>
<!-- Generator: $$$/GeneralStr/196=Adobe Illustrator 27.6.0, SVG Export Plug-In . SVG Version: 6.00 Build 0)  -->
<svg version="1.1" id="Calque_2_00000062185606740747886500000006454885146206097543_"
	 xmlns="http://www.w3.org/2000/svg" xmlns:xlink="http://www.w3.org/1999/xlink" x="0px" y="0px" width="96.8px" height="111px"
	 viewBox="0 0 96.8 111" style="enable-background:new 0 0 96.8 111;" xml:space="preserve">
<style type="text/css">
	.st0{fill:#09214A;}
</style>
<g>
	<path class="st0" d="M74.7,111c-3.9,0-4.6-3.2-4.6-3.2c1.7-22.6-4.6-34.3-4.6-34.3C115.6,63.1,90.5,19,90.5,19C93.9,9,90,0,90,0
		c-11,0-19.5,7.8-19.5,7.8c-19.5-6.1-36,0-36,0C23.4-0.9,15.1,0,15.1,0c-4.4,11.9-0.5,19-0.5,19S-9.7,63.3,39.7,74
		c0,0-4.9,4.6-4.6,9.5c0,0-11.9,6.3-19.5-3.9C8.8,70.6,3.9,69.4,0,70.8c0,0,0.2,2.4,2.9,3.9c2.4,1.5,6.3,5.4,8.5,11.7
		c2.4,6.8,15.6,10,23.4,7.1v14.1c0,0-0.2,3.2-4.1,3.2"/>
</g>
</svg>
