<?xml version="1.0" encoding="utf-8"?>
<!-- Generator: $$$/GeneralStr/196=Adobe Illustrator 27.6.0, SVG Export Plug-In . SVG Version: 6.00 Build 0)  -->
<svg version="1.1" id="Calque_1" xmlns="http://www.w3.org/2000/svg" xmlns:xlink="http://www.w3.org/1999/xlink" x="0px" y="0px"
	 width="105.3px" height="111px" viewBox="0 0 105.3 111" style="enable-background:new 0 0 105.3 111;" xml:space="preserve">
<style type="text/css">
	.st0{fill:#09214A;}
</style>
<path class="st0" d="M93.1,0H12.2C5.5,0,0,5.5,0,12.4v86.4c0,6.7,5.5,12.2,12.2,12.2h80.9c6.7,0,12.2-5.5,12.2-12.2V12.4
	C105.3,5.5,99.8,0,93.1,0z M52.8,81.6c-14.6,0-26.3-11.9-26.3-26.3c0-14.6,11.9-26,26.3-26c14.6,0,26,11.7,26,26
	C78.8,69.9,67.3,81.6,52.8,81.6z M83.1,27.4c-3.3,0-5.7-2.6-5.7-5.7S80,16,83.1,16s5.7,2.6,5.7,5.7S86.2,27.4,83.1,27.4z"/>
</svg>
