<?xml version="1.0" encoding="UTF-8"?>
<svg id="Calque_1" data-name="Calque 1" xmlns="http://www.w3.org/2000/svg" viewBox="0 0 58.4 118.32">
  <defs>
    <style>
      .cls-1 {
        fill: #09214a;
      }

      .cls-2 {
        fill: #fff;
        stroke: #fff;
        stroke-linecap: round;
        stroke-linejoin: round;
        stroke-width: .25px;
      }
    </style>
  </defs>
  <g>
    <path class="cls-2" d="m35.65,110.12h0c-6.26,2.31-12.48.15-12.89,0h0C8.53,98.32-7.34,60.14,4.8,42.11c.71-1.04,1.53-2.09,2.42-2.98.56-.56,1.12-1.04,1.68-1.53,0,0,20.34,5.77,40.38,0,19.33,15.16,1.9,59.6-13.63,72.52Z"/>
    <path class="cls-2" d="m35.65,110.12c-1.45,1.19-2.42,3.05-2.42,4.88,0,.56.07,1.04.22,1.53.15.48-.07,1.04-.63,1.19-1.53.41-4.51.82-7.56,0-.48-.15-.82-.71-.56-1.19.22-.48.41-1.04.41-1.53,0-1.94-.89-3.69-2.35-4.88.41.15,6.59,2.23,12.89,0Z"/>
    <path class="cls-2" d="m15.94,9.93c-.41-.89-.89-1.68-1.3-2.42h0c-1.6-2.72-3.2-4.32-3.2-4.32,17.77-6.89,35.57,0,35.57,0,0,0-17.47,18.62,2.42,34.34-20.04,5.77-40.38,0-40.38,0,12.33-9.8,10.17-20.78,6.89-27.6Z"/>
    <path class="cls-2" d="m35.65,110.12h0"/>
    <path class="cls-2" d="m22.76,110.12h0"/>
    <path class="cls-2" d="m7.23,39.13c-.89.89-1.68,1.94-2.42,2.98C-9.68,13.39,14.04,7.69,14.64,7.62h0c.41.71.89,1.53,1.3,2.42,0-.11-20.11,4.95-8.72,29.09Z"/>
    <path class="cls-2" d="m51.18,39.13c.89.89,1.68,1.94,2.42,2.98,14.49-28.72-9.24-34.42-9.83-34.49h0c-.41.71-.89,1.53-1.3,2.42,0-.11,20.04,4.95,8.72,29.09Z"/>
    <path class="cls-2" d="m4.84,42.11h0"/>
  </g>
  <path class="cls-1" d="m39.79,51.43h-21.28c-1.76,0-3.21,1.45-3.21,3.26v22.73c0,1.76,1.45,3.21,3.21,3.21h21.28c1.76,0,3.21-1.45,3.21-3.21v-22.73c0-1.81-1.45-3.26-3.21-3.26Zm-10.6,21.46c-3.84,0-6.92-3.13-6.92-6.92s3.13-6.84,6.92-6.84,6.84,3.08,6.84,6.84-3.02,6.92-6.84,6.92Zm7.97-14.26c-.87,0-1.5-.68-1.5-1.5s.68-1.5,1.5-1.5,1.5.68,1.5,1.5-.68,1.5-1.5,1.5Z"/>
</svg>