<?xml version="1.0" encoding="utf-8"?>
<!-- Generator: $$$/GeneralStr/196=Adobe Illustrator 27.6.0, SVG Export Plug-In . SVG Version: 6.00 Build 0)  -->
<svg version="1.1" id="Calque_1" xmlns="http://www.w3.org/2000/svg" xmlns:xlink="http://www.w3.org/1999/xlink" x="0px" y="0px"
	 width="156px" height="317px" viewBox="0 0 156 317" style="enable-background:new 0 0 156 317;" xml:space="preserve">
<style type="text/css">
	.st0{fill:#FFFFFF;stroke:#FFFFFF;stroke-width:0.25;stroke-linecap:round;stroke-linejoin:round;stroke-miterlimit:10;}
</style>
<g>
	<path class="st0" d="M95.3,295.3L95.3,295.3c-16.8,6.2-33.5,0.4-34.6,0l0,0l0,0l0,0c-38.2-31.7-80.8-134.2-48.2-182.6
		c1.9-2.8,4.1-5.6,6.5-8c1.5-1.5,3-2.8,4.5-4.1c0,0,54.6,15.5,108.4,0C183.8,141.3,137,260.6,95.3,295.3z"/>
	<path class="st0" d="M95.3,295.3c-3.9,3.2-6.5,8.2-6.5,13.1c0,1.5,0.2,2.8,0.6,4.1c0.4,1.3-0.2,2.8-1.7,3.2
		c-4.1,1.1-12.1,2.2-20.3,0c-1.3-0.4-2.2-1.9-1.5-3.2c0.6-1.3,1.1-2.8,1.1-4.1c0-5.2-2.4-9.9-6.3-13.1
		C61.8,295.7,78.4,301.3,95.3,295.3z"/>
	<path class="st0" d="M42.4,26.3c-1.1-2.4-2.4-4.5-3.5-6.5l0,0c-4.3-7.3-8.6-11.6-8.6-11.6c47.7-18.5,95.5,0,95.5,0
		s-46.9,50,6.5,92.2c-53.8,15.5-108.4,0-108.4,0C57,74.1,51.2,44.6,42.4,26.3z"/>
	<path class="st0" d="M95.3,295.3L95.3,295.3"/>
	<path class="st0" d="M60.7,295.3L60.7,295.3"/>
	<path class="st0" d="M19,104.7c-2.4,2.4-4.5,5.2-6.5,8c-38.9-77.1,24.8-92.4,26.4-92.6l0,0c1.1,1.9,2.4,4.1,3.5,6.5
		C42.4,26.3-11.6,39.9,19,104.7z"/>
	<path class="st0" d="M137,104.7c2.4,2.4,4.5,5.2,6.5,8c38.9-77.1-24.8-92.4-26.4-92.6l0,0c-1.1,1.9-2.4,4.1-3.5,6.5
		C113.6,26.3,167.4,39.9,137,104.7z"/>
	<path class="st0" d="M12.6,112.7L12.6,112.7"/>
</g>
</svg>
