<?xml version="1.0" encoding="UTF-8"?>
<svg id="Calque_1" data-name="Calque 1" xmlns="http://www.w3.org/2000/svg" viewBox="0 0 59.8 121.15">
  <defs>
    <style>
      .cls-1 {
        fill: #fff;
        stroke: #fff;
        stroke-linecap: round;
        stroke-linejoin: round;
        stroke-width: .25px;
      }
    </style>
  </defs>
  <path class="cls-1" d="m36.5,112.76h0c-6.41,2.36-12.78.15-13.2,0h0C8.73,100.67-7.52,61.58,4.92,43.12c.72-1.07,1.56-2.14,2.48-3.05.57-.57,1.14-1.07,1.72-1.56,0,0,20.82,5.91,41.34,0,19.79,15.52,1.95,61.02-13.96,74.26Z"/>
  <path class="cls-1" d="m36.5,112.76c-1.49,1.22-2.48,3.13-2.48,5,0,.57.08,1.07.23,1.56.15.5-.08,1.07-.65,1.22-1.56.42-4.61.84-7.74,0-.5-.15-.84-.72-.57-1.22.23-.5.42-1.07.42-1.56,0-1.98-.92-3.78-2.4-5,.42.15,6.75,2.29,13.2,0Z"/>
  <path class="cls-1" d="m16.32,10.16c-.42-.92-.92-1.72-1.33-2.48h0c-1.64-2.78-3.28-4.42-3.28-4.42,18.19-7.06,36.42,0,36.42,0,0,0-17.89,19.07,2.48,35.16-20.52,5.91-41.34,0-41.34,0,12.62-10.03,10.41-21.28,7.06-28.26Z"/>
  <path class="cls-1" d="m36.5,112.76h0"/>
  <path class="cls-1" d="m23.3,112.76h0"/>
  <path class="cls-1" d="m7.4,40.06c-.92.92-1.72,1.98-2.48,3.05C-9.92,13.71,14.38,7.88,14.99,7.8h0c.42.72.92,1.56,1.33,2.48,0-.11-20.6,5.07-8.92,29.79Z"/>
  <path class="cls-1" d="m52.4,40.06c.92.92,1.72,1.98,2.48,3.05,14.84-29.41-9.46-35.24-10.07-35.32h0c-.42.72-.92,1.56-1.33,2.48,0-.11,20.52,5.07,8.92,29.79Z"/>
  <path class="cls-1" d="m4.96,43.12h0"/>
</svg>