<?xml version="1.0" encoding="UTF-8"?>
<svg id="Calque_1" data-name="Calque 1" xmlns="http://www.w3.org/2000/svg" viewBox="0 0 110 80.75">
  <defs>
    <style>
      .cls-1 {
        fill: #fff;
      }
    </style>
  </defs>
  <path class="cls-1" d="m77.39,29.58L55.46.34c-.46-.46-1.37-.46-1.83,0l-21.01,29.24c-.46.91,0,1.83.91,1.83h43.4c.46,0,.91-.91.46-1.83h0Z"/>
  <path class="cls-1" d="m90.63,53.79H19.37q-.46,0-.91.46L.18,78.92c-.46.46,0,1.83.91,1.83h107.81c.91,0,1.37-.91.91-1.83l-18.27-24.21q-.46-.91-.91-.91h0Z"/>
  <g>
    <path class="cls-1" d="m1.7,35.81h1.67l2.48,7.28,2.46-7.28h1.66v8.61h-1.11v-5.08c0-.18,0-.47.01-.87s.01-.84.01-1.31l-2.46,7.26h-1.16l-2.48-7.26v.26c0,.21,0,.53.02.96s.02.75.02.95v5.08h-1.11v-8.61Z"/>
    <path class="cls-1" d="m14.22,35.81h1.32l3.12,8.61h-1.28l-.87-2.58h-3.4l-.93,2.58h-1.2l3.24-8.61Zm1.92,5.08l-1.31-3.8-1.39,3.8h2.7Z"/>
    <path class="cls-1" d="m19.87,35.81h3.91c.64,0,1.18.1,1.59.29.79.37,1.19,1.04,1.19,2.03,0,.52-.11.94-.32,1.27s-.51.59-.89.79c.34.14.59.32.76.54s.26.58.28,1.08l.04,1.15c.01.33.04.57.08.73.07.27.2.45.38.53v.19h-1.43c-.04-.07-.07-.17-.09-.29s-.04-.34-.06-.68l-.07-1.44c-.03-.56-.23-.94-.61-1.13-.22-.11-.56-.16-1.02-.16h-2.58v3.69h-1.17v-8.61Zm3.79,3.94c.53,0,.95-.11,1.26-.33s.46-.61.46-1.18c0-.61-.22-1.03-.65-1.25-.23-.12-.54-.18-.93-.18h-2.77v2.94h2.62Z"/>
    <path class="cls-1" d="m28.86,35.81l2.47,7.33,2.44-7.33h1.31l-3.14,8.61h-1.24l-3.13-8.61h1.29Z"/>
    <path class="cls-1" d="m36.45,35.81h1.18v8.61h-1.18v-8.61Z"/>
    <path class="cls-1" d="m39.52,35.81h1.37l4.29,6.95v-6.95h1.11v8.61h-1.31l-4.36-6.95v6.95h-1.11v-8.61Z"/>
    <path class="cls-1" d="m51.63,35.81h3.85c.76,0,1.38.22,1.85.65.47.43.7,1.04.7,1.82,0,.67-.21,1.26-.63,1.75s-1.06.75-1.92.75h-2.69v3.64h-1.17v-8.61Zm4.52,1.18c-.26-.12-.61-.18-1.05-.18h-2.3v2.98h2.3c.52,0,.94-.11,1.27-.33.32-.22.49-.62.49-1.18,0-.63-.23-1.06-.7-1.29Z"/>
    <path class="cls-1" d="m61.14,35.81h1.32l3.12,8.61h-1.28l-.87-2.58h-3.4l-.93,2.58h-1.2l3.24-8.61Zm1.92,5.08l-1.31-3.8-1.39,3.8h2.7Z"/>
    <path class="cls-1" d="m72.37,36.06c.84.45,1.36,1.24,1.55,2.36h-1.15c-.14-.63-.42-1.09-.86-1.37-.43-.29-.98-.43-1.63-.43-.78,0-1.44.3-1.97.9-.53.6-.8,1.49-.8,2.67,0,1.02.22,1.86.66,2.5s1.16.96,2.15.96c.76,0,1.39-.23,1.89-.68.5-.45.75-1.18.77-2.19h-2.7v-.97h3.78v4.6h-.75l-.28-1.11c-.39.43-.73.73-1.03.9-.5.29-1.14.43-1.92.43-1,0-1.87-.33-2.59-.99-.79-.83-1.18-1.96-1.18-3.41s.38-2.59,1.16-3.44c.73-.81,1.68-1.22,2.84-1.22.8,0,1.49.16,2.07.47Z"/>
    <path class="cls-1" d="m75.98,35.81h1.37l4.29,6.95v-6.95h1.11v8.61h-1.31l-4.36-6.95v6.95h-1.11v-8.61Z"/>
    <path class="cls-1" d="m91.73,37.04c.57.76.86,1.74.86,2.92,0,1.29-.33,2.35-.98,3.2-.77,1-1.86,1.5-3.28,1.5-1.32,0-2.37-.44-3.12-1.31-.68-.84-1.01-1.91-1.01-3.2,0-1.16.29-2.16.87-2.99.74-1.06,1.84-1.59,3.29-1.59s2.64.49,3.38,1.46Zm-1.03,5.49c.46-.74.69-1.58.69-2.54,0-1.01-.26-1.83-.79-2.45s-1.25-.93-2.17-.93-1.62.31-2.18.92-.84,1.51-.84,2.71c0,.95.24,1.76.72,2.41.48.66,1.26.98,2.35.98s1.77-.37,2.23-1.11Z"/>
    <path class="cls-1" d="m95.24,35.81v5.32c0,.62.12,1.14.35,1.56.35.62.94.94,1.77.94,1,0,1.67-.34,2.03-1.01.19-.37.29-.86.29-1.48v-5.32h1.18v4.83c0,1.06-.14,1.87-.43,2.44-.52,1.04-1.52,1.56-2.97,1.56s-2.45-.52-2.97-1.56c-.29-.57-.43-1.38-.43-2.44v-4.83h1.18Z"/>
    <path class="cls-1" d="m102.64,35.81h1.17v7.58h4.32v1.03h-5.48v-8.61Z"/>
  </g>
</svg>