<?xml version="1.0" encoding="utf-8"?>
<!-- Generator: $$$/GeneralStr/196=Adobe Illustrator 27.6.0, SVG Export Plug-In . SVG Version: 6.00 Build 0)  -->
<svg version="1.1" id="Calque_1" xmlns="http://www.w3.org/2000/svg" xmlns:xlink="http://www.w3.org/1999/xlink" x="0px" y="0px"
	 width="110px" height="80.8px" viewBox="0 0 110 80.8" style="enable-background:new 0 0 110 80.8;" xml:space="preserve">
<style type="text/css">
	.st0{fill:#FFFFFF;}
	.st1{fill:#FFFFFF;stroke:#000000;stroke-width:0.5;stroke-miterlimit:10;}
</style>
<g>
	<g>
		<rect x="21.6" y="73.8" class="st0" width="66.7" height="3.4"/>
	</g>
	<g>
		<rect x="23.6" y="77.1" class="st0" width="62.8" height="3.4"/>
	</g>
	<g>
		<rect x="18.7" y="70.5" class="st0" width="72.7" height="3.4"/>
	</g>
	<g>
		<rect x="13.1" y="67.2" class="st0" width="83.8" height="3.4"/>
	</g>
	<g>
		<rect x="13.1" y="13.8" class="st0" width="83.8" height="5.7"/>
	</g>
	<g>
		<rect x="14.7" y="19.4" class="st0" width="80.7" height="3.4"/>
	</g>
	<g>
		<g>
			<g>
				<rect x="18.7" y="35.1" class="st0" width="7.5" height="32.1"/>
			</g>
			<line class="st1" x1="20.3" y1="35.1" x2="20.3" y2="67.3"/>
			<line class="st1" x1="22.5" y1="35.1" x2="22.5" y2="67.3"/>
			<line class="st1" x1="24.4" y1="35.1" x2="24.4" y2="67.3"/>
		</g>
		<g>
			<g>
				<rect x="40.4" y="35.1" class="st0" width="7.5" height="32.1"/>
			</g>
			<line class="st1" x1="42" y1="35.1" x2="42" y2="67.3"/>
			<line class="st1" x1="44.2" y1="35.1" x2="44.2" y2="67.3"/>
			<line class="st1" x1="46.1" y1="35.1" x2="46.1" y2="67.3"/>
		</g>
		<g>
			<g>
				<rect x="62.1" y="35.1" class="st0" width="7.5" height="32.1"/>
			</g>
			<line class="st1" x1="63.7" y1="35.1" x2="63.7" y2="67.3"/>
			<line class="st1" x1="65.9" y1="35.1" x2="65.9" y2="67.3"/>
			<line class="st1" x1="67.8" y1="35.1" x2="67.8" y2="67.3"/>
		</g>
		<g>
			<g>
				<rect x="83.8" y="35.1" class="st0" width="7.5" height="32.1"/>
			</g>
			<line class="st1" x1="85.4" y1="35.1" x2="85.4" y2="67.3"/>
			<line class="st1" x1="87.6" y1="35.1" x2="87.6" y2="67.3"/>
			<line class="st1" x1="89.5" y1="35.1" x2="89.5" y2="67.3"/>
		</g>
	</g>
	<g>
		<path class="st0" d="M20.7,24.9h1.4l2.1,6.1l2.1-6.1h1.4v7.3h-0.9v-4.3c0-0.1,0-0.4,0-0.7c0-0.3,0-0.7,0-1.1l-2.1,6.1h-1L21.6,26
			v0.2c0,0.2,0,0.4,0,0.8c0,0.4,0,0.6,0,0.8v4.3h-0.9V24.9z"/>
		<path class="st0" d="M31.8,28.9c0.2,0,0.3-0.1,0.4-0.3c0-0.1,0.1-0.2,0.1-0.3c0-0.3-0.1-0.5-0.3-0.7c-0.2-0.1-0.5-0.2-0.9-0.2
			c-0.5,0-0.8,0.1-1,0.4c-0.1,0.1-0.2,0.3-0.2,0.6H29c0-0.7,0.2-1.1,0.6-1.4c0.4-0.3,0.9-0.4,1.4-0.4c0.6,0,1.1,0.1,1.5,0.4
			c0.4,0.2,0.6,0.6,0.6,1.1v3c0,0.1,0,0.2,0.1,0.2c0,0.1,0.1,0.1,0.2,0.1c0,0,0.1,0,0.1,0c0,0,0.1,0,0.2,0v0.7
			c-0.1,0-0.2,0.1-0.3,0.1c-0.1,0-0.2,0-0.3,0c-0.3,0-0.5-0.1-0.7-0.3c-0.1-0.1-0.1-0.3-0.2-0.5c-0.2,0.2-0.4,0.4-0.8,0.6
			c-0.3,0.2-0.7,0.3-1.1,0.3c-0.5,0-0.9-0.1-1.2-0.4c-0.3-0.3-0.5-0.7-0.5-1.1c0-0.5,0.2-0.9,0.5-1.1c0.3-0.3,0.7-0.4,1.2-0.5
			L31.8,28.9z M30,31.3c0.2,0.1,0.4,0.2,0.7,0.2c0.3,0,0.6-0.1,0.9-0.2c0.5-0.2,0.7-0.6,0.7-1.2v-0.7c-0.1,0.1-0.2,0.1-0.4,0.2
			c-0.2,0-0.3,0.1-0.5,0.1l-0.5,0.1c-0.3,0-0.6,0.1-0.7,0.2c-0.3,0.2-0.4,0.4-0.4,0.7C29.7,31,29.8,31.2,30,31.3z"/>
		<path class="st0" d="M34.7,26.8h0.8v0.9c0.1-0.2,0.2-0.4,0.5-0.6c0.3-0.3,0.6-0.4,0.9-0.4c0,0,0,0,0.1,0c0,0,0.1,0,0.2,0v0.9
			c-0.1,0-0.1,0-0.1,0c0,0-0.1,0-0.1,0c-0.4,0-0.8,0.1-1,0.4c-0.2,0.3-0.4,0.6-0.4,1v3h-0.9V26.8z"/>
		<path class="st0" d="M38.4,26.8l1.4,4.3l1.5-4.3h1l-2,5.3h-0.9l-2-5.3H38.4z"/>
		<path class="st0" d="M43,24.9H44v1H43V24.9z M43,26.9H44v5.3H43V26.9z"/>
		<path class="st0" d="M45.3,26.8h0.8v0.8c0.3-0.3,0.5-0.5,0.8-0.7c0.3-0.1,0.6-0.2,0.9-0.2c0.8,0,1.3,0.3,1.5,0.8
			c0.1,0.3,0.2,0.7,0.2,1.2v3.4h-0.9v-3.3c0-0.3,0-0.6-0.1-0.8c-0.2-0.3-0.4-0.5-0.9-0.5c-0.2,0-0.4,0-0.5,0.1
			c-0.2,0.1-0.5,0.2-0.6,0.4c-0.1,0.2-0.2,0.4-0.3,0.5c0,0.2-0.1,0.5-0.1,0.8v2.8h-0.9V26.8z"/>
		<path class="st0" d="M53.9,24.9h3.2c0.6,0,1.2,0.2,1.6,0.5s0.6,0.9,0.6,1.5c0,0.6-0.2,1.1-0.5,1.5c-0.4,0.4-0.9,0.6-1.6,0.6h-2.3
			v3.1h-1V24.9z M57.8,25.9c-0.2-0.1-0.5-0.2-0.9-0.2h-1.9v2.5h1.9c0.4,0,0.8-0.1,1.1-0.3c0.3-0.2,0.4-0.5,0.4-1
			C58.3,26.4,58.1,26.1,57.8,25.9z"/>
		<path class="st0" d="M63.3,28.9c0.2,0,0.3-0.1,0.4-0.3c0-0.1,0.1-0.2,0.1-0.3c0-0.3-0.1-0.5-0.3-0.7c-0.2-0.1-0.5-0.2-0.9-0.2
			c-0.5,0-0.8,0.1-1,0.4c-0.1,0.1-0.2,0.3-0.2,0.6h-0.8c0-0.7,0.2-1.1,0.6-1.4c0.4-0.3,0.9-0.4,1.4-0.4c0.6,0,1.1,0.1,1.5,0.4
			c0.4,0.2,0.6,0.6,0.6,1.1v3c0,0.1,0,0.2,0.1,0.2c0,0.1,0.1,0.1,0.2,0.1c0,0,0.1,0,0.1,0c0,0,0.1,0,0.2,0v0.7
			c-0.1,0-0.2,0.1-0.3,0.1c-0.1,0-0.2,0-0.3,0c-0.3,0-0.5-0.1-0.7-0.3c-0.1-0.1-0.1-0.3-0.2-0.5c-0.2,0.2-0.4,0.4-0.8,0.6
			c-0.3,0.2-0.7,0.3-1.1,0.3c-0.5,0-0.9-0.1-1.2-0.4c-0.3-0.3-0.5-0.7-0.5-1.1c0-0.5,0.2-0.9,0.5-1.1c0.3-0.3,0.7-0.4,1.2-0.5
			L63.3,28.9z M61.4,31.3c0.2,0.1,0.4,0.2,0.7,0.2c0.3,0,0.6-0.1,0.9-0.2c0.5-0.2,0.7-0.6,0.7-1.2v-0.7c-0.1,0.1-0.2,0.1-0.4,0.2
			c-0.2,0-0.3,0.1-0.5,0.1l-0.5,0.1c-0.3,0-0.6,0.1-0.7,0.2c-0.3,0.2-0.4,0.4-0.4,0.7C61.2,31,61.2,31.2,61.4,31.3z"/>
		<path class="st0" d="M69,27.1c0.2,0.1,0.3,0.3,0.5,0.5v-0.7h0.8v4.8c0,0.7-0.1,1.2-0.3,1.6C69.7,34,69,34.4,68,34.4
			c-0.6,0-1-0.1-1.4-0.4c-0.4-0.3-0.6-0.7-0.6-1.2h0.9c0,0.2,0.1,0.4,0.3,0.5c0.2,0.2,0.5,0.3,0.9,0.3c0.7,0,1.1-0.2,1.3-0.7
			c0.1-0.3,0.2-0.8,0.2-1.5c-0.2,0.3-0.4,0.5-0.6,0.6c-0.2,0.1-0.6,0.2-1,0.2c-0.6,0-1.1-0.2-1.5-0.6c-0.4-0.4-0.6-1.1-0.6-2
			c0-0.9,0.2-1.6,0.6-2.1c0.4-0.5,1-0.7,1.6-0.7C68.4,26.7,68.7,26.8,69,27.1z M69.1,28c-0.3-0.3-0.6-0.5-1-0.5
			c-0.6,0-1,0.3-1.3,0.9c-0.1,0.3-0.2,0.7-0.2,1.2c0,0.6,0.1,1,0.4,1.4c0.2,0.3,0.6,0.5,1,0.5c0.6,0,1.1-0.3,1.3-0.9
			c0.1-0.3,0.2-0.7,0.2-1.1C69.5,28.8,69.4,28.3,69.1,28z"/>
		<path class="st0" d="M71.7,26.8h0.8v0.8c0.3-0.3,0.5-0.5,0.8-0.7c0.3-0.1,0.6-0.2,0.9-0.2c0.8,0,1.3,0.3,1.5,0.8
			c0.1,0.3,0.2,0.7,0.2,1.2v3.4h-0.9v-3.3c0-0.3,0-0.6-0.1-0.8c-0.2-0.3-0.4-0.5-0.9-0.5c-0.2,0-0.4,0-0.5,0.1
			c-0.2,0.1-0.5,0.2-0.6,0.4c-0.1,0.2-0.2,0.4-0.3,0.5c0,0.2-0.1,0.5-0.1,0.8v2.8h-0.9V26.8z"/>
		<path class="st0" d="M81.2,27.4c0.5,0.5,0.7,1.1,0.7,2c0,0.9-0.2,1.6-0.6,2.1c-0.4,0.6-1.1,0.8-1.9,0.8c-0.7,0-1.3-0.2-1.7-0.7
			s-0.6-1.2-0.6-2c0-0.9,0.2-1.6,0.7-2.1c0.4-0.5,1-0.8,1.8-0.8C80.1,26.7,80.7,26.9,81.2,27.4z M80.6,30.9c0.2-0.4,0.3-0.9,0.3-1.5
			c0-0.5-0.1-0.9-0.2-1.2c-0.2-0.5-0.7-0.7-1.3-0.7c-0.5,0-0.9,0.2-1.2,0.6s-0.4,0.9-0.4,1.5c0,0.6,0.1,1,0.4,1.4
			c0.2,0.4,0.6,0.6,1.2,0.6C80,31.6,80.4,31.3,80.6,30.9z"/>
		<path class="st0" d="M83.9,26.8v3.5c0,0.3,0,0.5,0.1,0.7c0.2,0.3,0.4,0.5,0.9,0.5c0.6,0,1-0.3,1.2-0.8c0.1-0.3,0.2-0.7,0.2-1.2
			v-2.6h0.9v5.3h-0.8l0-0.8c-0.1,0.2-0.3,0.4-0.4,0.5c-0.3,0.3-0.7,0.4-1.2,0.4c-0.7,0-1.2-0.3-1.5-0.8c-0.1-0.3-0.2-0.6-0.2-1.1
			v-3.6H83.9z"/>
		<path class="st0" d="M88.6,24.9h0.9v7.3h-0.9V24.9z"/>
	</g>
	<polygon class="st0" points="55,0.2 18.6,13.8 91.3,13.8 	"/>
</g>
</svg>
