<?xml version="1.0" encoding="utf-8"?>
<!-- Generator: $$$/GeneralStr/196=Adobe Illustrator 27.6.0, SVG Export Plug-In . SVG Version: 6.00 Build 0)  -->
<svg version="1.1" id="Calque_1" xmlns="http://www.w3.org/2000/svg" xmlns:xlink="http://www.w3.org/1999/xlink" x="0px" y="0px"
	 width="512px" height="512px" viewBox="0 0 512 512" style="enable-background:new 0 0 512 512;" xml:space="preserve">
<style type="text/css">
	.st0{fill:#09214A;}
	.st1{fill:#FFFFFF;}
</style>
<g>
	<rect class="st0" width="512" height="512"/>
	<path class="st1" d="M360.2,205.9L258.1,69.8c-2.1-2.1-6.4-2.1-8.5,0l-97.8,136.1c-2.1,4.3,0,8.5,4.3,8.5h202
		C360.2,214.4,362.3,210.1,360.2,205.9L360.2,205.9z"/>
	<path class="st1" d="M421.9,318.6H90.1c-2.1,0-2.1,0-4.3,2.1l-85,114.8c-2.1,2.1,0,8.5,4.3,8.5H256h250.9c4.3,0,6.4-4.3,4.3-8.5
		l-85.1-112.7C424,318.6,424,318.6,421.9,318.6L421.9,318.6z"/>
	<g>
		<path class="st1" d="M9.3,236H17l11.5,33.7L39.9,236h7.7v39.9h-5.2v-23.6c0-0.8,0-2.2,0.1-4c0-1.9,0.1-3.9,0.1-6.1l-11.4,33.7
			h-5.4l-11.5-33.7v1.2c0,1,0,2.5,0.1,4.5s0.1,3.5,0.1,4.4v23.6H9.3V236z"/>
		<path class="st1" d="M67.4,236h6.1L88,275.9h-6l-4-12H62.2l-4.3,12h-5.5L67.4,236z M76.3,259.6L70.2,242l-6.4,17.6H76.3z"/>
		<path class="st1" d="M93.5,236h18.1c3,0,5.5,0.4,7.4,1.3c3.7,1.7,5.5,4.8,5.5,9.4c0,2.4-0.5,4.3-1.5,5.9c-1,1.5-2.4,2.7-4.1,3.7
			c1.6,0.6,2.7,1.5,3.5,2.5s1.2,2.7,1.3,5l0.2,5.4c0.1,1.5,0.2,2.7,0.4,3.4c0.3,1.3,0.9,2.1,1.7,2.4v0.9h-6.6
			c-0.2-0.3-0.3-0.8-0.4-1.3s-0.2-1.6-0.3-3.2l-0.3-6.7c-0.1-2.6-1.1-4.4-2.8-5.2c-1-0.5-2.6-0.7-4.7-0.7h-12v17.1h-5.4
			C93.5,275.9,93.5,236,93.5,236z M111.1,254.3c2.5,0,4.4-0.5,5.9-1.5c1.4-1,2.2-2.8,2.2-5.5c0-2.8-1-4.8-3-5.8
			c-1.1-0.5-2.5-0.8-4.3-0.8h-13v13.6H111.1z"/>
		<path class="st1" d="M135.2,236l11.5,34l11.3-34h6.1l-14.6,39.9h-5.7L129.3,236H135.2z"/>
		<path class="st1" d="M170.4,236h5.5v39.9h-5.5V236z"/>
		<path class="st1" d="M184.6,236h6.4l19.9,32.2V236h5.2v39.9H210l-20.2-32.2v32.2h-5.2V236z"/>
		<path class="st1" d="M240.8,236h17.9c3.5,0,6.4,1,8.6,3s3.3,4.8,3.3,8.4c0,3.1-1,5.8-2.9,8.1c-1.9,2.3-4.9,3.5-8.9,3.5h-12.5v16.9
			h-5.4V236H240.8z M261.8,241.5c-1.2-0.6-2.8-0.8-4.9-0.8h-10.7v13.8h10.7c2.4,0,4.4-0.5,5.9-1.5s2.3-2.9,2.3-5.5
			C265,244.5,263.9,242.5,261.8,241.5z"/>
		<path class="st1" d="M284.9,236h6.1l14.5,39.9h-5.9l-4-12h-15.8l-4.3,12H270L284.9,236z M293.8,259.6l-6.1-17.6l-6.4,17.6H293.8z"
			/>
		<path class="st1" d="M336.9,237.1c3.9,2.1,6.3,5.7,7.2,10.9h-5.4c-0.6-2.9-2-5-4-6.4c-2-1.3-4.5-2-7.6-2c-3.6,0-6.7,1.4-9.1,4.2
			c-2.5,2.8-3.7,6.9-3.7,12.4c0,4.7,1,8.6,3.1,11.6c2,3,5.4,4.5,10,4.5c3.5,0,6.5-1,8.8-3.1s3.5-5.5,3.6-10.1h-12.5v-4.5h17.5V276
			h-3.5l-1.3-5.1c-1.8,2-3.4,3.4-4.8,4.2c-2.3,1.3-5.3,2-8.9,2c-4.7,0-8.6-1.5-12-4.6c-3.7-3.8-5.5-9.1-5.5-15.8
			c0-6.7,1.8-12,5.4-15.9c3.4-3.8,7.8-5.7,13.2-5.7C331.1,235,334.2,235.7,336.9,237.1z"/>
		<path class="st1" d="M353.7,236h6.4l19.9,32.2V236h5.2v39.9H379l-20.2-32.2v32.2h-5.2V236H353.7z"/>
		<path class="st1" d="M426.7,241.7c2.6,3.5,4,8,4,13.6c0,6-1.5,10.9-4.5,14.9c-3.5,4.6-8.6,7-15.2,7c-6.1,0-11-2-14.5-6.1
			c-3.1-3.9-4.7-8.9-4.7-14.8c0-5.4,1.3-10,4-13.9c3.4-4.9,8.5-7.4,15.3-7.4C418.1,234.9,423.3,237.2,426.7,241.7z M421.9,267.1
			c2.1-3.4,3.2-7.3,3.2-11.8c0-4.7-1.2-8.5-3.7-11.3c-2.5-2.9-5.8-4.3-10.1-4.3c-4.1,0-7.5,1.4-10.1,4.3c-2.6,2.8-3.9,7-3.9,12.5
			c0,4.4,1.1,8.2,3.4,11.2c2.2,3,5.9,4.6,10.9,4.6C416.4,272.3,419.8,270.6,421.9,267.1z"/>
		<path class="st1" d="M442.9,236v24.7c0,2.9,0.5,5.3,1.6,7.2c1.6,2.9,4.4,4.3,8.2,4.3c4.6,0,7.8-1.6,9.4-4.7c0.9-1.7,1.3-4,1.3-6.9
			V236h5.5v22.4c0,4.9-0.7,8.7-2,11.3c-2.4,4.8-7,7.2-13.8,7.2s-11.3-2.4-13.8-7.2c-1.3-2.6-2-6.4-2-11.3V236H442.9z"/>
		<path class="st1" d="M477.3,236h5.4v35.1h20v4.8h-25.4V236z"/>
	</g>
</g>
</svg>
