<?xml version="1.0" encoding="utf-8"?>
<!-- Generator: $$$/GeneralStr/196=Adobe Illustrator 27.6.0, SVG Export Plug-In . SVG Version: 6.00 Build 0)  -->
<svg version="1.1" id="Calque_1" xmlns="http://www.w3.org/2000/svg" xmlns:xlink="http://www.w3.org/1999/xlink" x="0px" y="0px"
	 width="24px" height="17.5px" viewBox="0 0 24 17.5" style="enable-background:new 0 0 24 17.5;" xml:space="preserve">
<style type="text/css">
	.st0{fill:#FFFFFF;}
</style>
<g>
	<path class="st0" d="M1.3,10.2H1V8.4h0.5l0.3,1.4l0.3-1.4h0.5v1.8H2.3V9c0,0,0-0.1,0-0.1s0-0.1,0-0.1L2,10.2H1.6L1.3,8.7
		c0,0,0,0.1,0,0.1s0,0.1,0,0.1C1.3,9,1.3,10.2,1.3,10.2z"/>
	<path class="st0" d="M4,9.8H3.4l-0.1,0.4H2.9l0.6-1.8h0.4l0.6,1.8H4.2L4,9.8L4,9.8z M3.9,9.5L3.7,8.8L3.5,9.5H3.9z"/>
	<path class="st0" d="M5.5,9.5H5.1v0.7H4.8V8.4h0.9c0.1,0,0.2,0,0.3,0.1S6,8.5,6.1,8.6c0,0,0.1,0.1,0.1,0.1s0,0.1,0,0.2
		c0,0.1,0,0.2-0.1,0.2S6,9.3,5.9,9.3c0.1,0,0.1,0.1,0.2,0.1s0.1,0.1,0.1,0.3v0.1c0,0.1,0,0.1,0,0.2c0,0.1,0,0.1,0.1,0.1v0H5.8
		c0,0,0-0.1,0-0.1c0-0.1,0-0.1,0-0.1V9.8c0-0.1,0-0.2-0.1-0.2S5.6,9.5,5.5,9.5L5.5,9.5z M5.7,9.2c0.1,0,0.1-0.1,0.1-0.2
		c0-0.1,0-0.2-0.1-0.2c0,0-0.1,0-0.2,0H5.1v0.5h0.4C5.6,9.2,5.7,9.2,5.7,9.2z"/>
	<path class="st0" d="M6.4,8.4h0.4l0.4,1.3l0.4-1.3h0.4l-0.6,1.8H7L6.4,8.4z"/>
	<path class="st0" d="M8.1,8.4h0.4v1.8H8.1V8.4z"/>
	<path class="st0" d="M10.2,10.2H9.9L9.1,8.9v1.2H8.8V8.4h0.4l0.7,1.2V8.4h0.3C10.2,8.4,10.2,10.2,10.2,10.2z"/>
	<path class="st0" d="M12,9.6h-0.4v0.6h-0.4V8.4H12c0.2,0,0.3,0.1,0.4,0.1s0.2,0.2,0.2,0.4c0,0.2-0.1,0.4-0.2,0.4
		C12.4,9.5,12.2,9.6,12,9.6z M12.2,9.2c0,0,0.1-0.1,0.1-0.2s0-0.2-0.1-0.2S12.1,8.7,12,8.7h-0.3v0.5H12C12.1,9.2,12.1,9.2,12.2,9.2z
		"/>
	<path class="st0" d="M13.7,9.8h-0.6L13,10.2h-0.4l0.6-1.8h0.4l0.6,1.8h-0.4L13.7,9.8L13.7,9.8z M13.6,9.5l-0.2-0.7l-0.2,0.7H13.6z"
		/>
	<path class="st0" d="M15.5,10.1c-0.1,0.1-0.2,0.1-0.4,0.1c-0.2,0-0.4-0.1-0.6-0.2c-0.2-0.2-0.2-0.4-0.2-0.7s0.1-0.5,0.2-0.7
		s0.4-0.3,0.6-0.3c0.2,0,0.4,0.1,0.5,0.2S16,8.8,16,9h-0.4c0-0.1-0.1-0.2-0.2-0.2c-0.1,0-0.1,0-0.2,0c-0.1,0-0.3,0.1-0.4,0.2
		s-0.1,0.3-0.1,0.5s0.1,0.4,0.1,0.5s0.2,0.1,0.3,0.1s0.2,0,0.3-0.1s0.1-0.2,0.1-0.3h-0.4V9.2H16v0.9h-0.2l0-0.2
		C15.7,10,15.6,10.1,15.5,10.1L15.5,10.1z"/>
	<path class="st0" d="M17.8,10.2h-0.4l-0.7-1.2v1.2h-0.3V8.4h0.4l0.7,1.2V8.4h0.3C17.8,8.4,17.8,10.2,17.8,10.2z"/>
	<path class="st0" d="M18.9,10.2c-0.2,0-0.4-0.1-0.6-0.2c-0.2-0.2-0.3-0.4-0.3-0.7s0.1-0.6,0.3-0.7c0.1-0.1,0.3-0.2,0.6-0.2
		s0.4,0.1,0.6,0.2c0.2,0.2,0.3,0.4,0.3,0.7s-0.1,0.6-0.3,0.7C19.4,10.2,19.2,10.2,18.9,10.2z M19.3,9.8c0.1-0.1,0.1-0.3,0.1-0.5
		s0-0.4-0.1-0.5c-0.1-0.1-0.2-0.2-0.4-0.2s-0.3,0.1-0.4,0.2s-0.1,0.3-0.1,0.5s0,0.4,0.1,0.5s0.2,0.2,0.4,0.2S19.2,9.9,19.3,9.8z"/>
	<path class="st0" d="M21.1,9.5V8.4h0.4v1.1c0,0.2,0,0.3-0.1,0.4c-0.1,0.2-0.3,0.3-0.6,0.3s-0.5-0.1-0.6-0.3C20,9.9,20,9.7,20,9.5
		V8.4h0.4v1.1c0,0.1,0,0.2,0,0.3c0,0.1,0.1,0.1,0.3,0.1S21,9.9,21,9.8C21,9.7,21.1,9.6,21.1,9.5L21.1,9.5z"/>
	<path class="st0" d="M21.8,8.4h0.4v1.4H23v0.3h-1.2C21.8,10.2,21.8,8.4,21.8,8.4z"/>
</g>
<path class="st0" d="M16.9,6.5l-4.8-6.4c-0.1-0.1-0.3-0.1-0.4,0L7.1,6.5c-0.1,0.2,0,0.4,0.2,0.4h9.5C16.9,6.9,17,6.7,16.9,6.5
	L16.9,6.5z"/>
<path class="st0" d="M19.8,11.8H4.2c-0.1,0-0.1,0-0.2,0.1l-4,5.4c-0.1,0.1,0,0.4,0.2,0.4H12h11.8c0.2,0,0.3-0.2,0.2-0.4l-4-5.3
	C19.9,11.8,19.9,11.8,19.8,11.8L19.8,11.8z"/>
</svg>
