<?xml version="1.0" encoding="UTF-8"?>
<svg id="Calque_1" data-name="Calque 1" xmlns="http://www.w3.org/2000/svg" viewBox="0 0 1000.5 1000.5">
  <defs>
    <style>
      .cls-1 {
        fill: #00b9e2;
      }

      .cls-2 {
        fill: #009400;
        stroke: #000;
        stroke-miterlimit: 10;
      }
    </style>
  </defs>
  <g>
    <rect class="cls-1" x=".5" y="1" width="999" height="999"/>
    <path d="m999,1.5v998H1V1.5h998m1-1H0v1000h1000V.5h0Z"/>
  </g>
  <polygon class="cls-2" points="1000 .5 1000 764 933.5 764 878.5 739 853.5 726 846.5 677 834.5 647 825.5 606 825.5 463 823.5 429 825.5 396 832.5 357 843.5 300 869.5 245.48 869.5 148 846.5 108 808.5 100 687.5 100 640.5 100.48 640.5 194 618.5 174.74 618.5 123 586.5 115 599.5 154 599.5 184 576.5 182 576.5 141 556.5 127 530.5 127 539.5 150 546.5 178 518.5 159 500 137.61 456.5 139 422.5 152 417.5 177 417.5 208 413.5 228 408.5 256 410.5 276 447.5 288 509.5 300 558.5 313 599.5 352 608.5 388.71 608.5 491 579.5 509 556.5 479 532.5 466.51 532.5 431 500 425.84 456.5 431 480.5 484.2 480.5 520 473.5 537 443.5 537 401.5 484 401.3 500.5 401.5 550 417.5 590 418.5 635 401.5 649 378.5 626 367.5 567 344.5 567 330.5 574 330.5 608 330.56 657 300.5 657 296.5 631 296.5 527 275.5 525 267 546.09 267 586.76 243.92 597 203.5 597 205.5 570.5 205.5 532.9 226.5 525.38 226.5 506.57 201.5 482.13 187.33 466.46 169.5 466.46 155.5 454.56 160.5 438.89 180.5 416.95 208.5 395.65 242.5 388.75 267 400.06 304.04 404.42 450.5 404.42 466.5 388.13 447.27 371.2 281.5 371.2 231.5 365.56 199.5 333.6 187.5 294.74 173.5 273.44 118.5 230.19 83.5 180.68 67.5 140.73 67.5 107.36 74.16 57.62 74.16 .5 1000 .5"/>
  <polygon class="cls-2" points="384.5 845 384.5 875.43 384.5 903.9 415.46 903.9 472.5 913 524.6 913 579.16 913 631.36 913 657.45 879 647.5 856 581.53 845 538.83 845 489.01 845 427.33 845 384.5 845"/>
  <polygon class="cls-2" points="622.5 533 629.5 550 634.5 565 628.5 573.64 609.13 553.32 609.5 540 622.5 533"/>
  <polygon class="cls-2" points="645.5 584 661.5 598 653.5 603.47 639.8 593.73 645.5 584"/>
  <polygon class="cls-2" points="533.75 559.16 533.75 573.64 550.34 573.64 550.34 553.32 542.04 553.32 533.75 559.16"/>
  <polygon class="cls-2" points="115.5 477 108.5 442 86.83 442 86.83 464.58 101.17 500.5 115.5 477"/>
  <polygon class="cls-2" points="101.17 404.09 101.17 358.93 86.83 358.93 71.5 373 71.5 389.61 101.17 404.09"/>
  <polygon class="cls-2" points="142.5 325 126.5 343 149.88 343 142.5 325"/>
  <polygon class="cls-2" points="384.5 681.85 388.5 694 384.5 719.34 368.5 708 384.5 681.85"/>
  <polygon class="cls-2" points="550.34 623.91 567.5 642 575.5 662 542.04 654.59 550.34 623.91"/>
  <polygon class="cls-2" points="661.5 664.81 684.5 686 680.7 700.6 657.45 692.93 661.5 664.81"/>
  <polygon class="cls-2" points="856.5 793 821.5 816 825.5 830 856.5 830 872.5 808 856.5 793"/>
  <polygon class="cls-2" points="752.5 838 752.5 870.15 761.64 854.08 752.5 838"/>
  <rect class="cls-2" x="679.5" y="190" width="17.85" height="12.44"/>
  <polygon class="cls-2" points="801.5 302 765.86 302 762.5 312 789.5 320 816.5 307 801.5 302"/>
  <polygon class="cls-2" points="806.5 350 776.05 350 776.05 370.94 776.05 398.71 806.5 389.46 806.5 350"/>
  <polygon class="cls-2" points="758.5 506 725.5 526 733.46 553.32 770.49 553.32 770.49 512.59 758.5 506"/>
</svg>