<?xml version="1.0" encoding="UTF-8"?>
<svg id="Calque_1" data-name="Calque 1" xmlns="http://www.w3.org/2000/svg" xmlns:xlink="http://www.w3.org/1999/xlink" viewBox="0 0 1001.5 1002">
  <defs>
    <style>
      .cls-1 {
        fill: url(#Dégradé_sans_nom_262-2);
      }

      .cls-1, .cls-2, .cls-3, .cls-4, .cls-5, .cls-6, .cls-7, .cls-8, .cls-9, .cls-10, .cls-11, .cls-12, .cls-13, .cls-14, .cls-15, .cls-16, .cls-17, .cls-18, .cls-19, .cls-20 {
        stroke: #000;
        stroke-miterlimit: 10;
      }

      .cls-2 {
        fill: url(#Dégradé_sans_nom_262-9);
      }

      .cls-3 {
        fill: url(#Dégradé_sans_nom_262-7);
      }

      .cls-4 {
        fill: url(#Dégradé_sans_nom_262-6);
      }

      .cls-5 {
        fill: url(#Dégradé_sans_nom_262-8);
      }

      .cls-6 {
        fill: url(#Dégradé_sans_nom_262-5);
      }

      .cls-7 {
        fill: url(#Dégradé_sans_nom_262-4);
      }

      .cls-8 {
        fill: url(#Dégradé_sans_nom_262-3);
      }

      .cls-9 {
        fill: url(#Dégradé_sans_nom_262-12);
      }

      .cls-10 {
        fill: url(#Dégradé_sans_nom_262-10);
      }

      .cls-11 {
        fill: url(#Dégradé_sans_nom_262-11);
      }

      .cls-12 {
        fill: url(#Dégradé_sans_nom_262-13);
      }

      .cls-13 {
        fill: url(#Dégradé_sans_nom_262);
      }

      .cls-14 {
        fill: #fff;
      }

      .cls-15 {
        fill: #ce7300;
      }

      .cls-16 {
        fill: #00a7e2;
      }

      .cls-17 {
        fill: #666;
      }

      .cls-18 {
        fill: #29dde2;
      }

      .cls-19 {
        fill: #808098;
      }

      .cls-20 {
        fill: gray;
      }
    </style>
    <linearGradient id="Dégradé_sans_nom_262" data-name="Dégradé sans nom 262" x1="500" y1="611.56" x2="500" y2="14.5" gradientUnits="userSpaceOnUse">
      <stop offset="0" stop-color="#faaf95"/>
      <stop offset="1" stop-color="#f15f2b"/>
    </linearGradient>
    <linearGradient id="Dégradé_sans_nom_262-2" data-name="Dégradé sans nom 262" x1="236.44" y1="592.44" x2="236.44" y2="547.39" xlink:href="#Dégradé_sans_nom_262"/>
    <linearGradient id="Dégradé_sans_nom_262-3" data-name="Dégradé sans nom 262" x1="271" y1="456.5" x2="271" y2="448.5" xlink:href="#Dégradé_sans_nom_262"/>
    <linearGradient id="Dégradé_sans_nom_262-4" data-name="Dégradé sans nom 262" x1="367" y1="326.5" x2="367" y2="318.5" xlink:href="#Dégradé_sans_nom_262"/>
    <linearGradient id="Dégradé_sans_nom_262-5" data-name="Dégradé sans nom 262" x1="273.48" y1="277.5" x2="273.48" y2="208.5" xlink:href="#Dégradé_sans_nom_262"/>
    <linearGradient id="Dégradé_sans_nom_262-6" data-name="Dégradé sans nom 262" x1="542" y1="214" x2="542" y2="203" xlink:href="#Dégradé_sans_nom_262"/>
    <linearGradient id="Dégradé_sans_nom_262-7" data-name="Dégradé sans nom 262" x1="559" y1="265.5" x2="559" y2="257.5" xlink:href="#Dégradé_sans_nom_262"/>
    <linearGradient id="Dégradé_sans_nom_262-8" data-name="Dégradé sans nom 262" x1="689" y1="361.5" x2="689" y2="333.5" xlink:href="#Dégradé_sans_nom_262"/>
    <linearGradient id="Dégradé_sans_nom_262-9" data-name="Dégradé sans nom 262" x1="742" y1="421" x2="742" y2="406" xlink:href="#Dégradé_sans_nom_262"/>
    <linearGradient id="Dégradé_sans_nom_262-10" data-name="Dégradé sans nom 262" x1="567" y1="550.5" x2="567" y2="534.5" xlink:href="#Dégradé_sans_nom_262"/>
    <linearGradient id="Dégradé_sans_nom_262-11" data-name="Dégradé sans nom 262" x1="513.99" y1="610.5" x2="513.99" y2="201.5" xlink:href="#Dégradé_sans_nom_262"/>
    <linearGradient id="Dégradé_sans_nom_262-12" data-name="Dégradé sans nom 262" x1="716.7" y1="645.86" x2="716.7" y2="480.5" xlink:href="#Dégradé_sans_nom_262"/>
    <linearGradient id="Dégradé_sans_nom_262-13" data-name="Dégradé sans nom 262" x1="760.95" y1="234.5" x2="760.95" y2="187.5" xlink:href="#Dégradé_sans_nom_262"/>
  </defs>
  <rect class="cls-19" x="1" y=".5" width="1000" height="1001"/>
  <path class="cls-13" d="m841,355.5c0-42.61-7.82-83.4-22.09-121h-103.91c-3.32,0-6.32-1.34-8.49-3.51s-3.51-5.17-3.51-8.49h.3c-.38-1.86-.41-3.85-.02-5.9,1.17-6.16,6.23-11.01,12.44-11.93,3.73-.55,7.25.28,10.12,2.05,1.88,1.16,4.33.14,4.71-2.04,1.76-9.91,7.56-17.18,14.45-17.18,8.28,0,15,10.52,15,23.5,0,4.18-.7,8.1-1.92,11.5h1.28c5.31,0,10.52-1.11,15.49-2.96,3.41-1.27,7.82-2.04,12.65-2.04,5.09,0,9.72.85,13.19,2.25,2.29.91,4.65,1.6,7.05,2.06,2.09.4,4.21.62,6.34.68C762.25,100.25,641.14,14.5,500,14.5c-150.05,0-277.47,96.92-323.06,231.57,2.03-1.63,4.46-2.57,7.06-2.57,4.35,0,8.2,2.63,10.56,6.67,1.1,1.88,3.62,2.29,5.34.94,5.81-4.57,16.22-7.61,28.1-7.61,5.94,0,11.52.76,16.33,2.1,2.35.65,4.67-1.11,4.67-3.55v-.05c0-18.5,16.12-33.5,36-33.5,16.93,0,31.12,10.87,34.96,25.52.55,2.07,2.79,3.15,4.81,2.44,5.35-1.88,11.58-2.96,18.23-2.96,19.88,0,36,9.63,36,21.5,0,.17-.01.33-.02.5h.02c0,12.15-9.85,22-22,22h-189.03c-5.87,25.05-8.97,51.16-8.97,78,0,71.16,21.8,137.23,59.09,191.89l35.9,34.54.79,10.51c6.41,6.65,13.09,13.03,20.03,19.12l28.19-23.06,29.1-65.9v-64.74l21.9-38.36,17-38,14.14-9.93,27.17-19.07,12.85-17.51.04-.05.04-.06,14.39-19.6s.01-.02.01-.02t.01-.02l20.35-27.74,52-86,19.01,65.04h0s2.81,9.6,2.81,9.6v.02l6.68,22.84,56.05,49.6,11.45-48.1,13-72v222.42l21,36.58,17.27,49.34,10.73,30.66,30.7,25.52,19.23-9.24,24.07-72.28,48-31v51.2c31.1-51.42,49-111.72,49-176.2Zm-570,101c-2.21,0-4-1.79-4-4s1.79-4,4-4,4,1.79,4,4-1.79,4-4,4Zm96-130c-2.21,0-4-1.79-4-4s1.79-4,4-4,4,1.79,4,4-1.79,4-4,4Zm176.94-116.06l-1.94,3.56-1.94-3.56-3.56-1.94,3.56-1.94,1.94-3.56,1.94,3.56,3.56,1.94-3.56,1.94Zm15.06,55.06c-2.21,0-4-1.79-4-4s1.79-4,4-4,4,1.79,4,4-1.79,4-4,4Zm130,96c-7.73,0-14-6.27-14-14s6.27-14,14-14,14,6.27,14,14-6.27,14-14,14Zm55.65,54.65l-2.65,4.85-2.65-4.85-4.85-2.65,4.85-2.65,2.65-4.85,2.65,4.85,4.85,2.65-4.85,2.65Z"/>
  <path class="cls-1" d="m254.78,592.44c-13.47-13.92-25.75-28.99-36.69-45.05l35.9,34.54.79,10.51Z"/>
  <circle class="cls-8" cx="271" cy="452.5" r="4"/>
  <circle class="cls-7" cx="367" cy="322.5" r="4"/>
  <path class="cls-6" d="m378.98,255.5h.02c0,12.15-9.85,22-22,22h-189.03c2.49-10.68,5.49-21.16,8.97-31.43,2.03-1.63,4.46-2.57,7.06-2.57,4.35,0,8.2,2.63,10.56,6.67,1.1,1.88,3.62,2.29,5.34.94,5.81-4.57,16.22-7.61,28.1-7.61,5.94,0,11.52.76,16.33,2.1,2.35.65,4.67-1.11,4.67-3.55v-.05c0-18.5,16.12-33.5,36-33.5,16.93,0,31.12,10.87,34.96,25.52.55,2.07,2.79,3.15,4.81,2.44,5.35-1.88,11.58-2.96,18.23-2.96,19.88,0,36,9.63,36,21.5,0,.17-.01.33-.02.5Z"/>
  <polygon class="cls-4" points="547.5 208.5 543.94 210.44 542 214 540.06 210.44 536.5 208.5 540.06 206.56 542 203 543.94 206.56 547.5 208.5"/>
  <circle class="cls-3" cx="559" cy="261.5" r="4"/>
  <circle class="cls-5" cx="689" cy="347.5" r="14"/>
  <polygon class="cls-2" points="749.5 413.5 744.65 416.15 742 421 739.35 416.15 734.5 413.5 739.35 410.85 742 406 744.65 410.85 749.5 413.5"/>
  <circle class="cls-10" cx="567" cy="542.5" r="8"/>
  <path class="cls-11" d="m659.27,536.84s-11.27,24.66-38.27,25.13c-27,.47-22-37.47-37-52.47s-44-41-70.26,12.11-21.74,88.89-47.74,88.89c-19.96,0-45.82-37.73-68.27-66.52l-.73,1.52s-.29-1.16-.42-2.98c-6.38-8.12-12.46-15.45-18.04-20.91-14.72-14.4-10.21-62.33-3.79-100.18.48-2.81.96-5.55,1.45-8.23h0c4.34-23.68,8.94-41.63,8.94-41.63l27.17-19.07,12.85-17.51.04-.05.04-.06,14.39-19.6s.01-.02.01-.02t.01-.02l20.35-27.74,52-86,19.01,65.04h0s2.81,9.6,2.81,9.6v.02l6.68,22.84,56.05,49.6,11.45-48.1,13-72v222.42l21,36.58,17.27,49.34Z"/>
  <path class="cls-9" d="m792,480.5v51.2c-18.34,30.35-41.29,57.6-67.87,80.79-14.11,12.32-29.24,23.49-45.25,33.37l-37.47-24.36,59.29-28.48,19.23-9.24,24.07-72.28,48-31Z"/>
  <path class="cls-12" d="m818.91,234.5h-103.91c-3.32,0-6.32-1.34-8.49-3.51s-3.51-5.17-3.51-8.49h.3c-.38-1.86-.41-3.85-.02-5.9,1.17-6.16,6.23-11.01,12.44-11.93,3.73-.55,7.25.28,10.12,2.05,1.88,1.16,4.33.14,4.71-2.04,1.76-9.91,7.56-17.18,14.45-17.18,8.28,0,15,10.52,15,23.5,0,4.18-.7,8.1-1.92,11.5h1.28c5.31,0,10.52-1.11,15.49-2.96,3.41-1.27,7.82-2.04,12.65-2.04,5.09,0,9.72.85,13.19,2.25,2.29.91,4.65,1.6,7.05,2.06,2.09.4,4.21.62,6.34.68,1.68,3.96,3.29,7.97,4.83,12.01Z"/>
  <path class="cls-20" d="m981.54,893.06l-79.54-9.56-28-48-51.26-15.79-19.74-6.08v-61.13l-20-32-46.42-37.13-13.58-10.87,11.98-51-10.85-9.01-23.43-19.47-30.7-25.52-10.73-30.66s-11.27,24.66-38.27,25.13c-27,.47-22-37.47-37-52.47s-44-41-70.26,12.11-21.74,88.89-47.74,88.89c-19.96,0-45.82-37.73-68.27-66.52l-.73,1.52s-.29-1.16-.42-2.98c-6.38-8.12-12.46-15.45-18.04-20.91-14.72-14.4-10.21-62.33-3.79-100.18.48-2.81.96-5.55,1.45-8.23h0c4.34-23.68,8.94-41.63,8.94-41.63l-14.14,9.93-17,38-21.9,38.36v64.74l-29.1,65.9-28.19,23.06-17.53,14.35-9.28,7.59-28.16,8.51h-.01l-14.83,4.49-36,50-25,32.74v59.26l-13,45h-48l-42.5,59.56-13.5,16.44-8,31-18.5,18.7v41.8h1000v-82.68l-18.96-25.26Zm-414.54-358.56c4.42,0,8,3.58,8,8s-3.58,8-8,8-8-3.58-8-8,3.58-8,8-8Z"/>
  <path class="cls-20" d="m659.27,536.84s-11.27,24.66-38.27,25.13c-27,.47-22-37.47-37-52.47s-44-41-70.26,12.11-21.74,88.89-47.74,88.89c-19.96,0-45.82-37.73-68.27-66.52l-.73,1.52s-.29-1.16-.42-2.98c-6.38-8.12-12.46-15.45-18.04-20.91-14.72-14.4-10.21-62.33-3.79-100.18.48-2.81.96-5.55,1.45-8.23h0c4.34-23.68,8.94-41.63,8.94-41.63l27.17-19.07,12.85-17.51.04-.05.04-.06,14.39-19.6s.01-.02.01-.02t.01-.02l20.35-27.74,52-86,19.01,65.04h0s2.81,9.6,2.81,9.6v.02l6.68,22.84,56.05,49.6-6.26,26.29-19.29,80.61,50,66.11v-70.69l21,36.58,17.27,49.34Z"/>
  <circle class="cls-20" cx="567" cy="542.5" r="8"/>
  <polygon class="cls-17" points="36.35 1001 136 894.5 200 783.5 267 753.5 267 779.98 214 885.5 202 961.5 200.9 1001 36.35 1001"/>
  <polyline class="cls-17" points="700.58 1001 668 916.5 623 827.5 547 759.5 547 840.47 500.5 877.25 480 934.5 493.69 1001"/>
  <polyline class="cls-17" points="348.5 1001 436 850.5 420 784.5 376 812.5 340.03 892.75 231.5 1001"/>
  <polygon class="cls-17" points="386.01 1001 358.59 922.75 267 871.93 260.18 828.5 347 828.5 388.43 892.75 436 948.15 457 995.5 457 1001 386.01 1001"/>
  <polygon class="cls-17" points="759.86 1001 753 856.5 785 863.5 785 900.97 822 957.5 861.49 1001 759.86 1001"/>
  <polyline class="cls-17" points="900.21 1001 900 950.5 866.33 892.75 934 933.5 983.69 1001"/>
  <polyline class="cls-17" points="719.93 1001 762.28 946.88 807.25 869.51 822.74 819.71 830.03 877.25 822 957.5 879.64 1001"/>
  <polygon class="cls-17" points="590.29 1001 590.29 971.34 637.99 880.25 692.54 802.09 692.54 892.75 677.15 1000.72 590.29 1001"/>
  <polygon class="cls-17" points="792 480.5 792 551 777 613.5 736.58 683.37 678.88 645.86 641.41 621.5 700.7 593.02 719.93 583.78 744 511.5 792 480.5"/>
  <polygon class="cls-17" points="224.15 683.37 231.5 664.6 219.84 642.01 219.83 642.01 186 576.5 177 515.5 213 542.5 218.09 547.39 253.99 581.93 254.78 592.44 257.28 625.91 260.18 664.6 224.15 683.37"/>
  <polygon class="cls-17" points="621 228.5 621 521.61 571 455.5 590.29 374.89 596.55 348.6 608 300.5 621 228.5"/>
  <path class="cls-14" d="m378.98,255.5h.02c0,12.15-9.85,22-22,22H58c-6.08,0-11.58-2.46-15.56-6.44-3.98-3.98-6.44-9.48-6.44-15.56h.2c-.13-.98-.2-1.98-.2-3,0-12.7,10.3-23,23-23,.56,0,1.11.02,1.66.06,7.99.57,15.84-2.59,20.85-8.84,4.09-5.11,9.52-8.22,15.49-8.22,12.7,0,23,14.1,23,31.5,0,1.99-.14,3.93-.39,5.82-.03.24-.05.47-.05.7,0,2.71,2.19,4.98,4.98,4.98,2.16,0,3.8-1.88,3.6-4.03-.09-.97-.14-1.97-.14-2.97,0-14.91,10.3-27,23-27s23,12.09,23,27c0,.27-.01.54-.02.8.85-1.25,1.84-2.34,2.96-3.23,2.03-1.63,4.46-2.57,7.06-2.57,4.35,0,8.2,2.63,10.56,6.67,1.1,1.88,3.62,2.29,5.34.94,5.81-4.57,16.22-7.61,28.1-7.61,5.94,0,11.52.76,16.33,2.1,2.35.65,4.67-1.11,4.67-3.55v-.05c0-18.5,16.12-33.5,36-33.5,16.93,0,31.12,10.87,34.96,25.52.55,2.07,2.79,3.15,4.81,2.44,5.35-1.88,11.58-2.96,18.23-2.96,19.88,0,36,9.63,36,21.5,0,.17-.01.33-.02.5Z"/>
  <path class="cls-14" d="m911,220.5c0,.64-.09,1.27-.26,1.89-.42,1.57-.74,3.16-.74,4.78v.37c0,3.84-3.12,6.96-6.96,6.96h-188.04c-3.32,0-6.32-1.34-8.49-3.51s-3.51-5.17-3.51-8.49h.3c-.38-1.86-.41-3.85-.02-5.9,1.17-6.16,6.23-11.01,12.44-11.93,3.73-.55,7.25.28,10.12,2.05,1.88,1.16,4.33.14,4.71-2.04,1.76-9.91,7.56-17.18,14.45-17.18,8.28,0,15,10.52,15,23.5,0,4.18-.7,8.1-1.92,11.5h1.28c5.31,0,10.52-1.11,15.49-2.96,3.41-1.27,7.82-2.04,12.65-2.04,5.09,0,9.72.85,13.19,2.25,2.29.91,4.65,1.6,7.05,2.06,2.09.4,4.21.62,6.34.68.33.01.65.01.98.01-.03-.33-.06-.66-.06-1,0-7.18,6.72-13,15-13s15,5.82,15,13c0,.34-.03.67-.06,1h8.18c1.04,0,1.88-.84,1.88-1.89v-.11c0-7.73,12.54-14,28-14s28,6.27,28,14Z"/>
  <path class="cls-14" d="m486.82,165.5h38.18c14.87,0,22.99-17.92,12.69-28.65-1.76-1.84-3.92-3.28-6.56-4.11-6.5-2.04-13.56.73-17.35,6.39-2.94,4.39-7.68,9.73-13.29,9.6-9.5-.23-26.5-14.23-26.5-5.23,0,6.15,4.21,14.17,6.87,18.63,1.25,2.09,3.52,3.37,5.96,3.37Z"/>
  <polygon class="cls-15" points="375 121 377.65 125.85 382.5 128.5 377.65 131.15 375 136 372.35 131.15 367.5 128.5 372.35 125.85 375 121"/>
  <polygon class="cls-15" points="749.5 413.5 744.65 416.15 742 421 739.35 416.15 734.5 413.5 739.35 410.85 742 406 744.65 410.85 749.5 413.5"/>
  <polygon class="cls-15" points="514 65 519.83 75.67 530.5 81.5 519.83 87.33 514 98 508.17 87.33 497.5 81.5 508.17 75.67 514 65"/>
  <polygon class="cls-15" points="547.5 208.5 543.94 210.44 542 214 540.06 210.44 536.5 208.5 540.06 206.56 542 203 543.94 206.56 547.5 208.5"/>
  <circle class="cls-14" cx="932" cy="494.5" r="14"/>
  <circle class="cls-14" cx="689" cy="347.5" r="14"/>
  <circle class="cls-14" cx="334" cy="691.5" r="14"/>
  <circle class="cls-14" cx="689" cy="151.5" r="14"/>
  <circle class="cls-14" cx="83" cy="448.5" r="14"/>
  <circle class="cls-14" cx="585" cy="683.5" r="8"/>
  <circle class="cls-14" cx="720" cy="784.5" r="8"/>
  <circle class="cls-14" cx="807" cy="856.5" r="8"/>
  <circle class="cls-14" cx="406" cy="819.5" r="8"/>
  <circle class="cls-14" cx="506" cy="667.5" r="4"/>
  <circle class="cls-14" cx="367" cy="322.5" r="4"/>
  <circle class="cls-14" cx="559" cy="261.5" r="4"/>
  <circle class="cls-14" cx="445" cy="480.5" r="4"/>
  <circle class="cls-14" cx="537" cy="819.5" r="4"/>
  <circle class="cls-14" cx="204" cy="783.5" r="4"/>
  <circle class="cls-14" cx="271" cy="452.5" r="4"/>
  <circle class="cls-14" cx="567" cy="542.5" r="8"/>
  <circle class="cls-14" cx="457" cy="355.5" r="8"/>
  <circle class="cls-14" cx="238" cy="137.5" r="8"/>
  <path class="cls-16" d="m659.27,536.84s-11.27,24.66-38.27,25.13c-27,.47-22-37.47-37-52.47s-44-41-70.26,12.11-21.74,88.89-47.74,88.89c-19.96,0-45.82-37.73-68.27-66.52-.39-.49-.77-.97-1.15-1.46-.31-4.73.52-13.88,10.66-18.34,3.62-1.6,8.44-2.59,14.82-2.57,31.06.11,55.91-35.13,66.94-58.11,12-25-7-40,24.99-88.45,23.52-35.61,22.19-78.61,19.83-98.89l6.68,22.84,56.05,49.6-6.26,26.29-19.29,80.61,50,66.11v-70.69l21,36.58,17.27,49.34Z"/>
  <path class="cls-14" d="m397.73,543.98l-.73,1.52s-.29-1.16-.42-2.98c.38.49.76.97,1.15,1.46Z"/>
  <path class="cls-18" d="m513.99,375.05c-31.99,48.45-12.99,63.45-24.99,88.45-11.03,22.98-35.88,58.22-66.94,58.11-6.38-.02-11.2.97-14.82,2.57-10.14,4.46-10.97,13.61-10.66,18.34-6.38-8.12-12.46-15.45-18.04-20.91-14.72-14.4-10.21-62.33-3.79-100.18,13.5-.45,58.51-4.29,54.25-34.93-3.64-26.17,5.42-56.58,10.63-71.22,0-.01.01-.02.01-.02t.01-.02l20.35-27.74,52-86,19.01,65.04h0s2.81,9.6,2.81,9.6v.02c2.36,20.28,3.69,63.28-19.83,98.89Z"/>
  <path class="cls-14" d="m429,386.5c4.26,30.64-40.75,34.48-54.25,34.93.48-2.81.96-5.55,1.45-8.23h0c4.34-23.68,8.94-41.63,8.94-41.63l27.17-19.07,12.85-17.51.04-.05.04-.06,14.39-19.6c-5.21,14.64-14.27,45.05-10.63,71.22Z"/>
</svg>