<?xml version="1.0" encoding="UTF-8"?>
<svg id="Calque_1" data-name="Calque 1" xmlns="http://www.w3.org/2000/svg" viewBox="0 0 1001 1001">
  <defs>
    <style>
      .cls-1, .cls-2, .cls-3, .cls-4, .cls-5, .cls-6, .cls-7, .cls-8, .cls-9, .cls-10, .cls-11, .cls-12 {
        stroke-miterlimit: 10;
      }

      .cls-1, .cls-2, .cls-5, .cls-6, .cls-8 {
        stroke: #000;
      }

      .cls-13 {
        fill: red;
      }

      .cls-14 {
        fill: #c69c6d;
      }

      .cls-2 {
        fill: #999;
      }

      .cls-3 {
        fill: #ffff9e;
      }

      .cls-3, .cls-4, .cls-7, .cls-9, .cls-10, .cls-11, .cls-12 {
        stroke: #1d1d1b;
      }

      .cls-4, .cls-11 {
        fill: #fff;
      }

      .cls-5 {
        fill: #191970;
      }

      .cls-6 {
        fill: #4d4d4d;
      }

      .cls-7, .cls-8 {
        fill: none;
      }

      .cls-9 {
        fill: #666;
      }

      .cls-9, .cls-10, .cls-11, .cls-12 {
        stroke-width: 3px;
      }

      .cls-10 {
        fill: #a67c52;
      }

      .cls-12 {
        fill: #ffff58;
      }
    </style>
  </defs>
  <polygon class="cls-5" points="725.5 189.5 753.5 300.5 738.5 450.5 256.88 450.5 273.5 319.5 303.84 278.01 341.5 226.5 372.5 111.5 372.5 .5 796.79 .5 730.5 98.5 725.5 189.5"/>
  <polygon class="cls-2" points="812.37 1000.5 126.06 1000.5 139.5 761.5 239.61 541.81 247.5 524.5 251.49 493 256.88 450.5 738.5 450.5 738.5 626.5 674.5 693.68 674.5 868.5 812.37 1000.5"/>
  <path class="cls-4" d="m418.04,52.81h-1.56c0-.09,0-.18,0-.27,0-7.18-5.82-13-13-13-3.91,0-7.41,1.73-9.79,4.46-2.26-4.94-7.25-8.38-13.04-8.38-7.92,0-14.34,6.42-14.34,14.34,0,.98.1,1.93.28,2.85h-2.25c-6.72,0-12.22,5.5-12.22,12.22h0c0,6.72,5.5,12.22,12.22,12.22h53.69c6.72,0,12.22-5.5,12.22-12.22h0c0-6.72-5.5-12.22-12.22-12.22Z"/>
  <path class="cls-4" d="m559.06,146.57h-2.95c0-.17.01-.34.01-.51,0-13.6-11.03-24.63-24.63-24.63-7.4,0-14.04,3.27-18.55,8.44-4.29-9.37-13.74-15.88-24.71-15.88-15.01,0-27.17,12.17-27.17,27.17,0,1.85.19,3.65.54,5.4h-4.26c-12.73,0-23.15,10.42-23.15,23.15h0c0,12.73,10.42,23.15,23.15,23.15h101.73c12.73,0,23.15-10.42,23.15-23.15h0c0-12.73-10.42-23.15-23.15-23.15Z"/>
  <path class="cls-4" d="m807.06,41.57h-2.95c0-.17.01-.34.01-.51,0-13.6-11.03-24.63-24.63-24.63-7.4,0-14.04,3.27-18.55,8.44-4.29-9.37-13.74-15.88-24.71-15.88-15.01,0-27.17,12.17-27.17,27.17,0,1.85.19,3.65.54,5.4h-4.26c-12.73,0-23.15,10.42-23.15,23.15h0c0,12.73,10.42,23.15,23.15,23.15h101.73c12.73,0,23.15-10.42,23.15-23.15h0c0-12.73-10.42-23.15-23.15-23.15Z"/>
  <polygon class="cls-6" points="372.5 .5 372.5 111.5 341.5 226.5 303.84 278.01 273.5 319.5 256.88 450.5 251.49 493 247.5 524.5 239.61 541.81 139.5 761.5 126.06 1000.5 .5 1000.5 .5 .5 372.5 .5"/>
  <polygon class="cls-6" points="1000.5 .5 1000.5 1000.5 812.37 1000.5 674.5 868.5 674.5 693.68 738.5 626.5 738.5 450.5 753.5 300.5 725.5 189.5 730.5 98.5 796.79 .5 1000.5 .5"/>
  <polyline class="cls-7" points="163.62 708.57 133.5 661.5 167.5 575.5"/>
  <polyline class="cls-7" points="136.78 809.91 126.06 841.28 120.5 897.5"/>
  <polyline class="cls-7" points="44.41 1000.5 55.5 966.5 33.5 842.5"/>
  <polyline class="cls-7" points=".5 648.24 79.5 717.5 79.5 739.13"/>
  <polyline class="cls-7" points=".5 339.37 50.5 372.5 68.5 476.5"/>
  <polyline class="cls-7" points="263.55 397.93 199.5 353.5 143.35 397.93"/>
  <polyline class="cls-7" points="295.9 288.87 251.5 249.5 251.5 192.87"/>
  <polyline class="cls-7" points=".5 153.43 53.5 201.5 53.5 281.46 102.5 299.5"/>
  <polyline class="cls-7" points="102.5 .5 126.06 56.43 214.5 126.5"/>
  <polyline class="cls-7" points="1000.5 725.5 950.5 785.5 950.5 878.01"/>
  <polyline class="cls-7" points="748.89 939.72 772.5 902.5 772.5 801.76"/>
  <polyline class="cls-7" points="674.5 801.76 707.5 767.5 788.5 733.5 842.5 788.5"/>
  <line class="cls-7" x1="905.3" y1="1000.5" x2="870.5" y2="970.5"/>
  <polyline class="cls-7" points="1000.5 500.5 930.5 559.5 917.5 621.5 837.5 615.21 896.5 694.5"/>
  <polyline class="cls-7" points="738.5 515.95 822.5 539.5 887.9 478.73"/>
  <polyline class="cls-7" points="752.04 315.08 864.5 283.5 945.91 299.5"/>
  <polyline class="cls-7" points="1000.5 375.71 909.82 407.93 909.82 359.17"/>
  <polyline class="cls-7" points="1000.5 176.45 940.5 121.5 940.5 56.43"/>
  <polyline class="cls-7" points="830.21 .5 825.5 106.5 788.5 214.5 837.5 226.47"/>
  <polygon class="cls-3" points="469 342.07 474.99 353.01 485.93 359 474.99 364.99 469 375.93 463.01 364.99 452.07 359 463.01 353.01 469 342.07"/>
  <polygon class="cls-3" points="662 219 664.12 222.88 668 225 664.12 227.12 662 231 659.88 227.12 656 225 659.88 222.88 662 219"/>
  <polygon class="cls-3" points="492 54 499.07 66.93 512 74 499.07 81.07 492 94 484.93 81.07 472 74 484.93 66.93 492 54"/>
  <circle class="cls-12" cx="679.6" cy="897.5" r="69"/>
  <polygon class="cls-13" points="657.9 936 634.85 936 681.4 859 724.34 936 708.29 936 681.4 890.41 657.9 936"/>
  <path class="cls-10" d="m589.01,512.74h7.91v171.76c0,1.54-1.25,2.8-2.8,2.8h-2.31c-1.54,0-2.8-1.25-2.8-2.8v-171.76h0Z" transform="translate(-226.67 400.45) rotate(-31.65)"/>
  <path class="cls-9" d="m550.04,523.95l-6.25,3.85s-8.09-5.01-6.9-10.04c.6-2.51-.05-6.94-.34-8.71,1.45,1.06,5.11,3.62,7.62,4.22,5.02,1.19,5.87,10.67,5.87,10.67Z"/>
  <path class="cls-11" d="m293.38,671.07l27.34-40.66c4.58,3.08,10.8,1.86,13.88-2.72s1.86-10.8-2.72-13.88c-2.98-2.01-6.65-2.18-9.7-.8.13-3.35-1.42-6.68-4.4-8.69-4.58-3.08-10.8-1.86-13.88,2.72s-1.86,10.8,2.72,13.88l-27.34,40.66c-4.58-3.08-10.8-1.86-13.88,2.72s-1.86,10.8,2.72,13.88c2.98,2.01,6.65,2.18,9.7.8-.13,3.35,1.42,6.68,4.4,8.69,4.58,3.08,10.8,1.86,13.88-2.72s1.86-10.8-2.72-13.88Z"/>
  <path class="cls-11" d="m323.41,719.89l-1.06-28.15c3.17-.12,5.65-2.79,5.53-5.96s-2.79-5.65-5.96-5.53c-2.07.08-3.83,1.24-4.78,2.91-1.07-1.6-2.92-2.62-4.99-2.55-3.17.12-5.65,2.79-5.53,5.96s2.79,5.65,5.96,5.53l1.06,28.15c-3.17.12-5.65,2.79-5.53,5.96s2.79,5.65,5.96,5.53c2.07-.08,3.83-1.24,4.78-2.91,1.07,1.6,2.92,2.62,4.99,2.55,3.17-.12,5.65-2.79,5.53-5.96s-2.79-5.65-5.96-5.53Z"/>
  <g>
    <path class="cls-11" d="m284.8,742.82c6.51-16.43-4.02-36.02-23.53-43.75s-40.61-.69-47.12,15.74c-4.43,11.17-.97,23.8,7.83,33.17l-4.81,12.13,34.4,13.64,4.81-12.13c12.83-.8,24-7.63,28.43-18.8Z"/>
    <path class="cls-4" d="m244.45,735.14l-6,4.75c-1.63,1.29-1.25,3.86.68,4.63l7.11,2.82c1.93.77,3.97-.85,3.67-2.9l-1.11-7.57c-.3-2.06-2.72-3.01-4.35-1.72Z"/>
    <g>
      <path class="cls-1" d="m230.17,753.85h0c1.93,0,3.5,1.57,3.5,3.5v7.5h-7v-7.5c0-1.93,1.57-3.5,3.5-3.5Z" transform="translate(296.06 -31.38) rotate(21.63)"/>
      <path class="cls-1" d="m242.26,758.64h0c1.93,0,3.5,1.57,3.5,3.5v7.5h-7v-7.5c0-1.93,1.57-3.5,3.5-3.5Z" transform="translate(298.68 -35.49) rotate(21.63)"/>
    </g>
    <circle class="cls-8" cx="232.45" cy="722.07" r="8"/>
    <circle class="cls-8" cx="265.91" cy="735.34" r="8"/>
  </g>
  <g>
    <rect class="cls-14" x="115.58" y="463.5" width="120" height="56"/>
    <path d="m235.08,464v55h-119v-55h119m1-1h-121v57h121v-57h0Z"/>
  </g>
  <g>
    <path d="m130.67,482.97v1.68h-4.75v12.42h-1.93v-12.42h-4.75v-1.68h11.43Z"/>
    <path d="m132.2,482.93h1.73v5.26c.41-.52.78-.88,1.1-1.09.56-.36,1.25-.55,2.08-.55,1.49,0,2.5.52,3.03,1.56.29.57.43,1.36.43,2.37v6.59h-1.78v-6.48c0-.75-.1-1.31-.29-1.66-.31-.56-.9-.84-1.77-.84-.72,0-1.37.25-1.95.74s-.87,1.42-.87,2.79v5.45h-1.73v-14.15Z"/>
    <path d="m149.48,487.08c.68.34,1.2.79,1.55,1.33.34.52.57,1.12.69,1.81.1.47.15,1.23.15,2.26h-7.48c.03,1.05.28,1.89.73,2.52.46.63,1.16.95,2.12.95.89,0,1.61-.3,2.14-.9.3-.35.51-.75.63-1.21h1.7c-.04.38-.19.8-.45,1.26s-.54.84-.85,1.14c-.52.51-1.17.86-1.93,1.04-.41.1-.88.15-1.4.15-1.27,0-2.35-.47-3.23-1.4-.88-.93-1.33-2.23-1.33-3.91s.44-2.99,1.34-4.02c.89-1.03,2.05-1.55,3.49-1.55.72,0,1.43.17,2.11.51Zm.62,4.04c-.07-.75-.23-1.35-.49-1.79-.47-.83-1.25-1.25-2.35-1.25-.79,0-1.45.29-1.98.86s-.81,1.3-.85,2.18h5.66Z"/>
    <path d="m154.11,486.79h1.64v1.78c.13-.35.46-.77.99-1.26s1.13-.74,1.81-.74c.03,0,.09,0,.16,0s.21.02.39.04v1.82c-.1-.02-.2-.03-.28-.04s-.18,0-.28,0c-.87,0-1.54.28-2.01.84s-.7,1.2-.7,1.93v5.91h-1.73v-10.28Z"/>
    <path d="m160.6,486.79h1.71v1.46c.41-.51.78-.87,1.11-1.1.57-.39,1.22-.59,1.94-.59.82,0,1.48.2,1.98.6.28.23.54.57.77,1.02.38-.55.83-.96,1.35-1.22s1.1-.4,1.75-.4c1.38,0,2.32.5,2.82,1.5.27.54.4,1.26.4,2.17v6.84h-1.79v-7.14c0-.68-.17-1.15-.51-1.41s-.76-.38-1.25-.38c-.68,0-1.26.23-1.75.68s-.73,1.21-.73,2.27v5.98h-1.76v-6.71c0-.7-.08-1.21-.25-1.53-.26-.48-.75-.72-1.47-.72-.65,0-1.25.25-1.78.76s-.8,1.42-.8,2.74v5.45h-1.73v-10.28Z"/>
    <path d="m184.42,487.82c.91.88,1.36,2.18,1.36,3.89s-.4,3.02-1.2,4.1c-.8,1.08-2.04,1.62-3.73,1.62-1.4,0-2.52-.48-3.35-1.43s-1.24-2.24-1.24-3.85c0-1.73.44-3.1,1.31-4.12.87-1.02,2.04-1.53,3.51-1.53,1.32,0,2.43.44,3.34,1.32Zm-1.07,6.83c.42-.87.63-1.83.63-2.89,0-.96-.15-1.74-.46-2.34-.48-.95-1.31-1.42-2.49-1.42-1.04,0-1.8.4-2.28,1.21s-.71,1.78-.71,2.91.24,2,.71,2.73,1.23,1.09,2.26,1.09c1.13,0,1.91-.43,2.33-1.3Z"/>
    <path d="m187.76,486.84h1.69v1.36c.35-.47.72-.83,1.14-1.08.58-.38,1.27-.58,2.06-.58,1.17,0,2.16.45,2.97,1.34s1.22,2.17,1.22,3.82c0,2.24-.59,3.84-1.76,4.8-.74.61-1.61.91-2.6.91-.78,0-1.43-.17-1.96-.51-.31-.19-.65-.52-1.03-.99v5.25h-1.73v-14.33Zm6.5,8.06c.54-.67.8-1.68.8-3.03,0-.82-.12-1.52-.36-2.11-.45-1.13-1.27-1.7-2.46-1.7s-2.02.6-2.46,1.79c-.24.64-.36,1.45-.36,2.44,0,.79.12,1.47.36,2.02.45,1.06,1.27,1.59,2.46,1.59.81,0,1.48-.34,2.02-1.01Z"/>
    <path d="m205.26,486.79h1.91c-.24.66-.78,2.16-1.62,4.51-.63,1.77-1.15,3.21-1.57,4.32-1,2.62-1.7,4.22-2.11,4.8-.41.58-1.11.86-2.11.86-.24,0-.43,0-.56-.03-.13-.02-.29-.05-.48-.11v-1.57c.3.08.52.13.65.15.13.02.25.03.36.03.32,0,.55-.05.7-.16.15-.1.28-.23.38-.39.03-.05.15-.31.34-.79.2-.47.34-.82.43-1.05l-3.8-10.58h1.96l2.75,8.37,2.77-8.37Z"/>
    <path d="m208.71,482.97h1.73v14.1h-1.73v-14.1Z"/>
    <path d="m219.38,487.08c.68.34,1.2.79,1.55,1.33.34.52.57,1.12.69,1.81.1.47.15,1.23.15,2.26h-7.48c.03,1.05.28,1.89.73,2.52.46.63,1.16.95,2.12.95.89,0,1.61-.3,2.14-.9.3-.35.51-.75.63-1.21h1.7c-.04.38-.19.8-.45,1.26s-.54.84-.85,1.14c-.52.51-1.17.86-1.93,1.04-.41.1-.88.15-1.4.15-1.27,0-2.35-.47-3.23-1.4-.88-.93-1.33-2.23-1.33-3.91s.44-2.99,1.34-4.02c.89-1.03,2.05-1.55,3.49-1.55.72,0,1.43.17,2.11.51Zm.62,4.04c-.07-.75-.23-1.35-.49-1.79-.47-.83-1.25-1.25-2.35-1.25-.79,0-1.45.29-1.98.86s-.81,1.3-.85,2.18h5.66Z"/>
    <path d="m224.99,493.85c.05.58.2,1.02.44,1.32.44.56,1.21.83,2.31.83.65,0,1.23-.14,1.72-.42s.74-.71.74-1.29c0-.44-.2-.78-.6-1.01-.25-.14-.75-.3-1.5-.49l-1.39-.35c-.89-.22-1.55-.46-1.97-.73-.75-.47-1.13-1.11-1.13-1.94,0-.97.36-1.76,1.07-2.36.71-.6,1.66-.9,2.86-.9,1.57,0,2.7.45,3.39,1.36.43.58.65,1.2.63,1.86h-1.63c-.03-.39-.17-.74-.42-1.06-.41-.45-1.11-.68-2.11-.68-.67,0-1.17.12-1.52.37s-.52.58-.52.99c0,.45.23.8.68,1.07.26.16.64.3,1.15.42l1.16.28c1.26.3,2.11.59,2.54.87.67.44,1.01,1.14,1.01,2.08s-.35,1.71-1.05,2.37c-.7.67-1.77,1-3.21,1-1.55,0-2.64-.35-3.29-1.04s-.99-1.55-1.03-2.58h1.66Z"/>
  </g>
</svg>